<svg xmlns="http://www.w3.org/2000/svg" xmlns:xlink="http://www.w3.org/1999/xlink" contentStyleType="text/css" data-diagram-type="ACTIVITY" height="766px" preserveAspectRatio="none" style="width:891px;height:766px;background:#FFFFFF;" version="1.1" viewBox="0 0 891 766" width="891px" zoomAndPan="magnify"><defs/><g><ellipse cx="567.7195" cy="20" fill="#222222" rx="10" ry="10" style="stroke:#222222;stroke-width:1;"/><rect fill="#F1F1F1" height="33.9688" rx="12.5" ry="12.5" style="stroke:#181818;stroke-width:0.5;" width="272.7207" x="431.3591" y="50"/><text fill="#000000" font-family="sans-serif" font-size="12" lengthAdjust="spacing" textLength="252.7207" x="441.3591" y="71.1387">Abrir a conversa desejada na tela de Chat</text><rect fill="#F1F1F1" height="33.9688" rx="12.5" ry="12.5" style="stroke:#181818;stroke-width:0.5;" width="259.5137" x="437.9626" y="103.9688"/><text fill="#000000" font-family="sans-serif" font-size="12" lengthAdjust="spacing" textLength="239.5137" x="447.9626" y="125.1074">Digitar a mensagem no campo de texto</text><rect fill="#F1F1F1" height="33.9688" rx="12.5" ry="12.5" style="stroke:#181818;stroke-width:0.5;" width="129.582" x="502.9285" y="157.9375"/><text fill="#000000" font-family="sans-serif" font-size="12" lengthAdjust="spacing" textLength="109.582" x="512.9285" y="179.0762">Clicar em "Enviar"</text><polygon fill="#F1F1F1" points="471.6628,211.9063,663.7761,211.9063,675.7761,223.9063,663.7761,235.9063,471.6628,235.9063,459.6628,223.9063,471.6628,211.9063" style="stroke:#181818;stroke-width:0.5;"/><text fill="#000000" font-family="sans-serif" font-size="11" lengthAdjust="spacing" textLength="192.1133" x="471.6628" y="227.7144">Mensagem enviada para backend?</text><text fill="#000000" font-family="sans-serif" font-size="11" lengthAdjust="spacing" textLength="20.7539" x="438.9089" y="221.312">Sim</text><text fill="#000000" font-family="sans-serif" font-size="11" lengthAdjust="spacing" textLength="148.9297" x="675.7761" y="221.312">N&#227;o - Erro de comunica&#231;&#227;o</text><rect fill="#F1F1F1" height="33.9688" rx="12.5" ry="12.5" style="stroke:#181818;stroke-width:0.5;" width="246.418" x="238.3794" y="245.9063"/><text fill="#000000" font-family="sans-serif" font-size="12" lengthAdjust="spacing" textLength="226.418" x="248.3794" y="267.0449">Backend recebe dados da mensagem</text><rect fill="#F1F1F1" height="33.9688" rx="12.5" ry="12.5" style="stroke:#181818;stroke-width:0.5;" width="151.6426" x="285.7671" y="299.875"/><text fill="#000000" font-family="sans-serif" font-size="12" lengthAdjust="spacing" textLength="131.6426" x="295.7671" y="321.0137">Backend valida dados</text><polygon fill="#F1F1F1" points="320.1907,353.8438,402.9861,353.8438,414.9861,365.8438,402.9861,377.8438,320.1907,377.8438,308.1907,365.8438,320.1907,353.8438" style="stroke:#181818;stroke-width:0.5;"/><text fill="#000000" font-family="sans-serif" font-size="11" lengthAdjust="spacing" textLength="82.7954" x="320.1907" y="369.6519">Dados v&#225;lidos?</text><text fill="#000000" font-family="sans-serif" font-size="11" lengthAdjust="spacing" textLength="20.7539" x="287.4368" y="363.2495">Sim</text><text fill="#000000" font-family="sans-serif" font-size="11" lengthAdjust="spacing" textLength="21.6992" x="414.9861" y="363.2495">N&#227;o</text><rect fill="#F1F1F1" height="33.9688" rx="12.5" ry="12.5" style="stroke:#181818;stroke-width:0.5;" width="295.6367" x="52.1182" y="387.8438"/><text fill="#000000" font-family="sans-serif" font-size="12" lengthAdjust="spacing" textLength="275.6367" x="62.1182" y="408.9824">Backend salva mensagem no banco de dados</text><rect fill="#F1F1F1" height="33.9688" rx="12.5" ry="12.5" style="stroke:#181818;stroke-width:0.5;" width="377.873" x="11" y="441.8125"/><text fill="#000000" font-family="sans-serif" font-size="12" lengthAdjust="spacing" textLength="357.873" x="21" y="462.9512">Backend (idealmente) notifica outro usu&#225;rio via WebSocket</text><rect fill="#F1F1F1" height="33.9688" rx="12.5" ry="12.5" style="stroke:#181818;stroke-width:0.5;" width="171.3066" x="114.2832" y="495.7813"/><text fill="#000000" font-family="sans-serif" font-size="12" lengthAdjust="spacing" textLength="151.3066" x="124.2832" y="516.9199">Backend retorna sucesso</text><rect fill="#F1F1F1" height="33.9688" rx="12.5" ry="12.5" style="stroke:#181818;stroke-width:0.5;" width="303.0547" x="48.4092" y="549.75"/><text fill="#000000" font-family="sans-serif" font-size="12" lengthAdjust="spacing" textLength="283.0547" x="58.4092" y="570.8887">Frontend exibe a nova mensagem na conversa</text><ellipse cx="199.9365" cy="614.7188" fill="none" rx="11" ry="11" style="stroke:#222222;stroke-width:1;"/><ellipse cx="199.9365" cy="614.7188" fill="#222222" rx="6" ry="6" style="stroke:#222222;stroke-width:1;"/><rect fill="#F1F1F1" height="33.9688" rx="12.5" ry="12.5" style="stroke:#181818;stroke-width:0.5;" width="228.2305" x="409.125" y="387.8438"/><text fill="#000000" font-family="sans-serif" font-size="12" lengthAdjust="spacing" textLength="208.2305" x="419.125" y="408.9824">Backend retorna erro de valida&#231;&#227;o</text><rect fill="#F1F1F1" height="33.9688" rx="12.5" ry="12.5" style="stroke:#181818;stroke-width:0.5;" width="228.7344" x="408.873" y="441.8125"/><text fill="#000000" font-family="sans-serif" font-size="12" lengthAdjust="spacing" textLength="208.7344" x="418.873" y="462.9512">Frontend exibe mensagem de erro</text><rect fill="#F1F1F1" height="33.9688" rx="12.5" ry="12.5" style="stroke:#181818;stroke-width:0.5;" width="212.4863" x="667.6074" y="245.9063"/><text fill="#000000" font-family="sans-serif" font-size="12" lengthAdjust="spacing" textLength="192.4863" x="677.6074" y="267.0449">Frontend exibe erro de conex&#227;o</text><polygon fill="#F1F1F1" points="567.7195,635.7188,579.7195,647.7188,567.7195,659.7188,555.7195,647.7188,567.7195,635.7188" style="stroke:#181818;stroke-width:0.5;"/><rect fill="#F1F1F1" height="33.9688" rx="12.5" ry="12.5" style="stroke:#181818;stroke-width:0.5;" width="350.873" x="392.283" y="679.7188"/><text fill="#000000" font-family="sans-serif" font-size="12" lengthAdjust="spacing" textLength="330.873" x="402.283" y="700.8574">Permanecer na tela de Chat (com mensagem digitada)</text><ellipse cx="567.7195" cy="744.6875" fill="none" rx="11" ry="11" style="stroke:#222222;stroke-width:1;"/><ellipse cx="567.7195" cy="744.6875" fill="#222222" rx="6" ry="6" style="stroke:#222222;stroke-width:1;"/><line style="stroke:#181818;stroke-width:1;" x1="567.7195" x2="567.7195" y1="30" y2="50"/><polygon fill="#181818" points="563.7195,40,567.7195,50,571.7195,40,567.7195,44" style="stroke:#181818;stroke-width:1;"/><line style="stroke:#181818;stroke-width:1;" x1="567.7195" x2="567.7195" y1="83.9688" y2="103.9688"/><polygon fill="#181818" points="563.7195,93.9688,567.7195,103.9688,571.7195,93.9688,567.7195,97.9688" style="stroke:#181818;stroke-width:1;"/><line style="stroke:#181818;stroke-width:1;" x1="567.7195" x2="567.7195" y1="137.9375" y2="157.9375"/><polygon fill="#181818" points="563.7195,147.9375,567.7195,157.9375,571.7195,147.9375,567.7195,151.9375" style="stroke:#181818;stroke-width:1;"/><line style="stroke:#181818;stroke-width:1;" x1="361.5884" x2="361.5884" y1="279.875" y2="299.875"/><polygon fill="#181818" points="357.5884,289.875,361.5884,299.875,365.5884,289.875,361.5884,293.875" style="stroke:#181818;stroke-width:1;"/><line style="stroke:#181818;stroke-width:1;" x1="199.9365" x2="199.9365" y1="421.8125" y2="441.8125"/><polygon fill="#181818" points="195.9365,431.8125,199.9365,441.8125,203.9365,431.8125,199.9365,435.8125" style="stroke:#181818;stroke-width:1;"/><line style="stroke:#181818;stroke-width:1;" x1="199.9365" x2="199.9365" y1="475.7813" y2="495.7813"/><polygon fill="#181818" points="195.9365,485.7813,199.9365,495.7813,203.9365,485.7813,199.9365,489.7813" style="stroke:#181818;stroke-width:1;"/><line style="stroke:#181818;stroke-width:1;" x1="199.9365" x2="199.9365" y1="529.75" y2="549.75"/><polygon fill="#181818" points="195.9365,539.75,199.9365,549.75,203.9365,539.75,199.9365,543.75" style="stroke:#181818;stroke-width:1;"/><line style="stroke:#181818;stroke-width:1;" x1="199.9365" x2="199.9365" y1="583.7188" y2="603.7188"/><polygon fill="#181818" points="195.9365,593.7188,199.9365,603.7188,203.9365,593.7188,199.9365,597.7188" style="stroke:#181818;stroke-width:1;"/><line style="stroke:#181818;stroke-width:1;" x1="523.2402" x2="523.2402" y1="421.8125" y2="441.8125"/><polygon fill="#181818" points="519.2402,431.8125,523.2402,441.8125,527.2402,431.8125,523.2402,435.8125" style="stroke:#181818;stroke-width:1;"/><line style="stroke:#181818;stroke-width:1;" x1="308.1907" x2="199.9365" y1="365.8438" y2="365.8438"/><line style="stroke:#181818;stroke-width:1;" x1="199.9365" x2="199.9365" y1="365.8438" y2="387.8438"/><polygon fill="#181818" points="195.9365,377.8438,199.9365,387.8438,203.9365,377.8438,199.9365,381.8438" style="stroke:#181818;stroke-width:1;"/><line style="stroke:#181818;stroke-width:1;" x1="414.9861" x2="523.2402" y1="365.8438" y2="365.8438"/><line style="stroke:#181818;stroke-width:1;" x1="523.2402" x2="523.2402" y1="365.8438" y2="387.8438"/><polygon fill="#181818" points="519.2402,377.8438,523.2402,387.8438,527.2402,377.8438,523.2402,381.8438" style="stroke:#181818;stroke-width:1;"/><line style="stroke:#181818;stroke-width:1;" x1="523.2402" x2="523.2402" y1="475.7813" y2="647.7188"/><line style="stroke:#181818;stroke-width:1;" x1="523.2402" x2="555.7195" y1="647.7188" y2="647.7188"/><polygon fill="#181818" points="545.7195,643.7188,555.7195,647.7188,545.7195,651.7188,549.7195,647.7188" style="stroke:#181818;stroke-width:1;"/><line style="stroke:#181818;stroke-width:1;" x1="361.5884" x2="361.5884" y1="333.8438" y2="353.8438"/><polygon fill="#181818" points="357.5884,343.8438,361.5884,353.8438,365.5884,343.8438,361.5884,347.8438" style="stroke:#181818;stroke-width:1;"/><line style="stroke:#181818;stroke-width:1;" x1="459.6628" x2="361.5884" y1="223.9063" y2="223.9063"/><line style="stroke:#181818;stroke-width:1;" x1="361.5884" x2="361.5884" y1="223.9063" y2="245.9063"/><polygon fill="#181818" points="357.5884,235.9063,361.5884,245.9063,365.5884,235.9063,361.5884,239.9063" style="stroke:#181818;stroke-width:1;"/><line style="stroke:#181818;stroke-width:1;" x1="675.7761" x2="773.8506" y1="223.9063" y2="223.9063"/><line style="stroke:#181818;stroke-width:1;" x1="773.8506" x2="773.8506" y1="223.9063" y2="245.9063"/><polygon fill="#181818" points="769.8506,235.9063,773.8506,245.9063,777.8506,235.9063,773.8506,239.9063" style="stroke:#181818;stroke-width:1;"/><line style="stroke:#181818;stroke-width:1;" x1="773.8506" x2="773.8506" y1="279.875" y2="647.7188"/><line style="stroke:#181818;stroke-width:1;" x1="773.8506" x2="579.7195" y1="647.7188" y2="647.7188"/><polygon fill="#181818" points="589.7195,643.7188,579.7195,647.7188,589.7195,651.7188,585.7195,647.7188" style="stroke:#181818;stroke-width:1;"/><line style="stroke:#181818;stroke-width:1;" x1="567.7195" x2="567.7195" y1="191.9063" y2="211.9063"/><polygon fill="#181818" points="563.7195,201.9063,567.7195,211.9063,571.7195,201.9063,567.7195,205.9063" style="stroke:#181818;stroke-width:1;"/><line style="stroke:#181818;stroke-width:1;" x1="567.7195" x2="567.7195" y1="659.7188" y2="679.7188"/><polygon fill="#181818" points="563.7195,669.7188,567.7195,679.7188,571.7195,669.7188,567.7195,673.7188" style="stroke:#181818;stroke-width:1;"/><line style="stroke:#181818;stroke-width:1;" x1="567.7195" x2="567.7195" y1="713.6875" y2="733.6875"/><polygon fill="#181818" points="563.7195,723.6875,567.7195,733.6875,571.7195,723.6875,567.7195,727.6875" style="stroke:#181818;stroke-width:1;"/><!--SRC=[TPAnRi9038RtUmgBAHdw0ibGjK0tgaeCdPsBWMkJC_9T8bu7TUY3vCNg73H0KPSRxC-__ViS8aeqfdYgn0aWMFOzIK2eAT07rWWU8L8p1c2-mrYQOk6sJikKRia7t58Bdi5Yk-UHYdI8hDYySLOfpSwMldSeiz8Oju5izLj5OrXRx54GAhIVvEl77EAEF6Hhr-QcU3v5GSXIHL1ZpK7VgNDvGNfid6OIKgP6YqJtmr4J7FvH3jZqjqugz3OvEKjDQEPgmaRHIBc2qMtK8N0NXQ4BtN0Knw2Mu9sgDMjDBAyTH1PTPkWiXJ0kw4LObJH51wVUTDLyCydbDqeJ8kyDDO4WUns-EB_N9P4qz6aDmxTIzpqcSGN7Wj9epcskbE41bcSbostdrM7Iok-qQC8y7LAtavOftaXQzFfZylTw85FHgodI9TMOwsMC3dy0]--></g></svg>