<svg xmlns="http://www.w3.org/2000/svg" xmlns:xlink="http://www.w3.org/1999/xlink" contentStyleType="text/css" data-diagram-type="ACTIVITY" height="791px" preserveAspectRatio="none" style="width:1145px;height:791px;background:#FFFFFF;" version="1.1" viewBox="0 0 1145 791" width="1145px" zoomAndPan="magnify"><defs/><g><ellipse cx="771.5453" cy="20" fill="#222222" rx="10" ry="10" style="stroke:#222222;stroke-width:1;"/><rect fill="#F1F1F1" height="33.9688" rx="12.5" ry="12.5" style="stroke:#181818;stroke-width:0.5;" width="166.8887" x="688.101" y="50"/><text fill="#000000" font-family="sans-serif" font-size="12" lengthAdjust="spacing" textLength="146.8887" x="698.101" y="71.1387">Acessar p&#225;gina de Login</text><rect fill="#F1F1F1" height="33.9688" rx="12.5" ry="12.5" style="stroke:#181818;stroke-width:0.5;" width="146.0996" x="698.4955" y="103.9688"/><text fill="#000000" font-family="sans-serif" font-size="12" lengthAdjust="spacing" textLength="126.0996" x="708.4955" y="125.1074">Inserir email e senha</text><rect fill="#F1F1F1" height="33.9688" rx="12.5" ry="12.5" style="stroke:#181818;stroke-width:0.5;" width="128.7852" x="707.1527" y="157.9375"/><text fill="#000000" font-family="sans-serif" font-size="12" lengthAdjust="spacing" textLength="108.7852" x="717.1527" y="179.0762">Clicar em "Entrar"</text><polygon fill="#F1F1F1" points="670.5446,211.9063,872.546,211.9063,884.546,223.9063,872.546,235.9063,670.5446,235.9063,658.5446,223.9063,670.5446,211.9063" style="stroke:#181818;stroke-width:0.5;"/><text fill="#000000" font-family="sans-serif" font-size="11" lengthAdjust="spacing" textLength="202.0015" x="670.5446" y="227.7144">Credenciais enviadas para backend?</text><text fill="#000000" font-family="sans-serif" font-size="11" lengthAdjust="spacing" textLength="20.7539" x="637.7906" y="221.312">Sim</text><text fill="#000000" font-family="sans-serif" font-size="11" lengthAdjust="spacing" textLength="148.9297" x="884.546" y="221.312">N&#227;o - Erro de comunica&#231;&#227;o</text><rect fill="#F1F1F1" height="33.9688" rx="12.5" ry="12.5" style="stroke:#181818;stroke-width:0.5;" width="189.0547" x="420.2908" y="245.9063"/><text fill="#000000" font-family="sans-serif" font-size="12" lengthAdjust="spacing" textLength="169.0547" x="430.2908" y="267.0449">Backend recebe credenciais</text><polygon fill="#F1F1F1" points="445.5928,299.875,584.0435,299.875,596.0435,311.875,584.0435,323.875,445.5928,323.875,433.5928,311.875,445.5928,299.875" style="stroke:#181818;stroke-width:0.5;"/><text fill="#000000" font-family="sans-serif" font-size="11" lengthAdjust="spacing" textLength="138.4507" x="445.5928" y="315.6831">Usu&#225;rio existe no banco?</text><text fill="#000000" font-family="sans-serif" font-size="11" lengthAdjust="spacing" textLength="20.7539" x="412.8389" y="309.2808">Sim</text><text fill="#000000" font-family="sans-serif" font-size="11" lengthAdjust="spacing" textLength="21.6992" x="596.0435" y="309.2808">N&#227;o</text><polygon fill="#F1F1F1" points="234.0498,333.875,346.5742,333.875,358.5742,345.875,346.5742,357.875,234.0498,357.875,222.0498,345.875,234.0498,333.875" style="stroke:#181818;stroke-width:0.5;"/><text fill="#000000" font-family="sans-serif" font-size="11" lengthAdjust="spacing" textLength="112.5244" x="234.0498" y="349.6831">Senha corresponde?</text><text fill="#000000" font-family="sans-serif" font-size="11" lengthAdjust="spacing" textLength="20.7539" x="201.2959" y="343.2808">Sim</text><text fill="#000000" font-family="sans-serif" font-size="11" lengthAdjust="spacing" textLength="21.6992" x="358.5742" y="343.2808">N&#227;o</text><rect fill="#F1F1F1" height="33.9688" rx="12.5" ry="12.5" style="stroke:#181818;stroke-width:0.5;" width="167.1875" x="65.3135" y="367.875"/><text fill="#000000" font-family="sans-serif" font-size="12" lengthAdjust="spacing" textLength="147.1875" x="75.3135" y="389.0137">Backend gera token JWT</text><rect fill="#F1F1F1" height="33.9688" rx="12.5" ry="12.5" style="stroke:#181818;stroke-width:0.5;" width="275.8145" x="11" y="436.8438"/><text fill="#000000" font-family="sans-serif" font-size="12" lengthAdjust="spacing" textLength="255.8145" x="21" y="457.9824">Backend retorna token e dados do usu&#225;rio</text><rect fill="#F1F1F1" height="33.9688" rx="12.5" ry="12.5" style="stroke:#181818;stroke-width:0.5;" width="175.6777" x="61.0684" y="490.8125"/><text fill="#000000" font-family="sans-serif" font-size="12" lengthAdjust="spacing" textLength="155.6777" x="71.0684" y="511.9512">Frontend armazena token</text><rect fill="#F1F1F1" height="33.9688" rx="12.5" ry="12.5" style="stroke:#181818;stroke-width:0.5;" width="196.3555" x="50.7295" y="544.7813"/><text fill="#000000" font-family="sans-serif" font-size="12" lengthAdjust="spacing" textLength="176.3555" x="60.7295" y="565.9199">Redirecionar para Dashboard</text><ellipse cx="148.9072" cy="609.75" fill="none" rx="11" ry="11" style="stroke:#222222;stroke-width:1;"/><ellipse cx="148.9072" cy="609.75" fill="#222222" rx="6" ry="6" style="stroke:#222222;stroke-width:1;"/><rect fill="#F1F1F1" height="33.9688" rx="12.5" ry="12.5" style="stroke:#181818;stroke-width:0.5;" width="249.8047" x="306.8145" y="367.875"/><text fill="#000000" font-family="sans-serif" font-size="12" lengthAdjust="spacing" textLength="229.8047" x="316.8145" y="389.0137">Backend retorna erro (Senha inv&#225;lida)</text><rect fill="#F1F1F1" height="33.9688" rx="12.5" ry="12.5" style="stroke:#181818;stroke-width:0.5;" width="228.7344" x="317.3496" y="436.8438"/><text fill="#000000" font-family="sans-serif" font-size="12" lengthAdjust="spacing" textLength="208.7344" x="327.3496" y="457.9824">Frontend exibe mensagem de erro</text><rect fill="#F1F1F1" height="33.9688" rx="12.5" ry="12.5" style="stroke:#181818;stroke-width:0.5;" width="305.4102" x="586.6191" y="333.875"/><text fill="#000000" font-family="sans-serif" font-size="12" lengthAdjust="spacing" textLength="285.4102" x="596.6191" y="355.0137">Backend retorna erro (Usu&#225;rio n&#227;o encontrado)</text><rect fill="#F1F1F1" height="33.9688" rx="12.5" ry="12.5" style="stroke:#181818;stroke-width:0.5;" width="228.7344" x="624.957" y="402.8438"/><text fill="#000000" font-family="sans-serif" font-size="12" lengthAdjust="spacing" textLength="208.7344" x="634.957" y="423.9824">Frontend exibe mensagem de erro</text><polygon fill="#F1F1F1" points="514.8181,630.75,526.8181,642.75,514.8181,654.75,502.8181,642.75,514.8181,630.75" style="stroke:#181818;stroke-width:0.5;"/><rect fill="#F1F1F1" height="33.9688" rx="12.5" ry="12.5" style="stroke:#181818;stroke-width:0.5;" width="212.4863" x="922.0293" y="245.9063"/><text fill="#000000" font-family="sans-serif" font-size="12" lengthAdjust="spacing" textLength="192.4863" x="932.0293" y="267.0449">Frontend exibe erro de conex&#227;o</text><polygon fill="#F1F1F1" points="771.5453,660.75,783.5453,672.75,771.5453,684.75,759.5453,672.75,771.5453,660.75" style="stroke:#181818;stroke-width:0.5;"/><rect fill="#F1F1F1" height="33.9688" rx="12.5" ry="12.5" style="stroke:#181818;stroke-width:0.5;" width="211.1797" x="665.9554" y="704.75"/><text fill="#000000" font-family="sans-serif" font-size="12" lengthAdjust="spacing" textLength="191.1797" x="675.9554" y="725.8887">Permanecer na p&#225;gina de Login</text><ellipse cx="771.5453" cy="769.7188" fill="none" rx="11" ry="11" style="stroke:#222222;stroke-width:1;"/><ellipse cx="771.5453" cy="769.7188" fill="#222222" rx="6" ry="6" style="stroke:#222222;stroke-width:1;"/><line style="stroke:#181818;stroke-width:1;" x1="771.5453" x2="771.5453" y1="30" y2="50"/><polygon fill="#181818" points="767.5453,40,771.5453,50,775.5453,40,771.5453,44" style="stroke:#181818;stroke-width:1;"/><line style="stroke:#181818;stroke-width:1;" x1="771.5453" x2="771.5453" y1="83.9688" y2="103.9688"/><polygon fill="#181818" points="767.5453,93.9688,771.5453,103.9688,775.5453,93.9688,771.5453,97.9688" style="stroke:#181818;stroke-width:1;"/><line style="stroke:#181818;stroke-width:1;" x1="771.5453" x2="771.5453" y1="137.9375" y2="157.9375"/><polygon fill="#181818" points="767.5453,147.9375,771.5453,157.9375,775.5453,147.9375,771.5453,151.9375" style="stroke:#181818;stroke-width:1;"/><line style="stroke:#181818;stroke-width:1;" x1="148.9072" x2="148.9072" y1="401.8438" y2="436.8438"/><polygon fill="#181818" points="144.9072,426.8438,148.9072,436.8438,152.9072,426.8438,148.9072,430.8438" style="stroke:#181818;stroke-width:1;"/><line style="stroke:#181818;stroke-width:1;" x1="148.9072" x2="148.9072" y1="470.8125" y2="490.8125"/><polygon fill="#181818" points="144.9072,480.8125,148.9072,490.8125,152.9072,480.8125,148.9072,484.8125" style="stroke:#181818;stroke-width:1;"/><line style="stroke:#181818;stroke-width:1;" x1="148.9072" x2="148.9072" y1="524.7813" y2="544.7813"/><polygon fill="#181818" points="144.9072,534.7813,148.9072,544.7813,152.9072,534.7813,148.9072,538.7813" style="stroke:#181818;stroke-width:1;"/><line style="stroke:#181818;stroke-width:1;" x1="148.9072" x2="148.9072" y1="578.75" y2="598.75"/><polygon fill="#181818" points="144.9072,588.75,148.9072,598.75,152.9072,588.75,148.9072,592.75" style="stroke:#181818;stroke-width:1;"/><line style="stroke:#181818;stroke-width:1;" x1="431.7168" x2="431.7168" y1="401.8438" y2="436.8438"/><polygon fill="#181818" points="427.7168,426.8438,431.7168,436.8438,435.7168,426.8438,431.7168,430.8438" style="stroke:#181818;stroke-width:1;"/><line style="stroke:#181818;stroke-width:1;" x1="222.0498" x2="148.9072" y1="345.875" y2="345.875"/><line style="stroke:#181818;stroke-width:1;" x1="148.9072" x2="148.9072" y1="345.875" y2="367.875"/><polygon fill="#181818" points="144.9072,357.875,148.9072,367.875,152.9072,357.875,148.9072,361.875" style="stroke:#181818;stroke-width:1;"/><line style="stroke:#181818;stroke-width:1;" x1="358.5742" x2="431.7168" y1="345.875" y2="345.875"/><line style="stroke:#181818;stroke-width:1;" x1="431.7168" x2="431.7168" y1="345.875" y2="367.875"/><polygon fill="#181818" points="427.7168,357.875,431.7168,367.875,435.7168,357.875,431.7168,361.875" style="stroke:#181818;stroke-width:1;"/><line style="stroke:#181818;stroke-width:1;" x1="431.7168" x2="431.7168" y1="470.8125" y2="642.75"/><line style="stroke:#181818;stroke-width:1;" x1="431.7168" x2="502.8181" y1="642.75" y2="642.75"/><polygon fill="#181818" points="492.8181,638.75,502.8181,642.75,492.8181,646.75,496.8181,642.75" style="stroke:#181818;stroke-width:1;"/><line style="stroke:#181818;stroke-width:1;" x1="739.3242" x2="739.3242" y1="367.8438" y2="402.8438"/><polygon fill="#181818" points="735.3242,392.8438,739.3242,402.8438,743.3242,392.8438,739.3242,396.8438" style="stroke:#181818;stroke-width:1;"/><line style="stroke:#181818;stroke-width:1;" x1="433.5928" x2="290.312" y1="311.875" y2="311.875"/><line style="stroke:#181818;stroke-width:1;" x1="290.312" x2="290.312" y1="311.875" y2="333.875"/><polygon fill="#181818" points="286.312,323.875,290.312,333.875,294.312,323.875,290.312,327.875" style="stroke:#181818;stroke-width:1;"/><line style="stroke:#181818;stroke-width:1;" x1="596.0435" x2="739.3242" y1="311.875" y2="311.875"/><line style="stroke:#181818;stroke-width:1;" x1="739.3242" x2="739.3242" y1="311.875" y2="333.875"/><polygon fill="#181818" points="735.3242,323.875,739.3242,333.875,743.3242,323.875,739.3242,327.875" style="stroke:#181818;stroke-width:1;"/><line style="stroke:#181818;stroke-width:1;" x1="739.3242" x2="739.3242" y1="436.8125" y2="642.75"/><line style="stroke:#181818;stroke-width:1;" x1="739.3242" x2="526.8181" y1="642.75" y2="642.75"/><polygon fill="#181818" points="536.8181,638.75,526.8181,642.75,536.8181,646.75,532.8181,642.75" style="stroke:#181818;stroke-width:1;"/><line style="stroke:#181818;stroke-width:1;" x1="514.8181" x2="514.8181" y1="279.875" y2="299.875"/><polygon fill="#181818" points="510.8181,289.875,514.8181,299.875,518.8181,289.875,514.8181,293.875" style="stroke:#181818;stroke-width:1;"/><line style="stroke:#181818;stroke-width:1;" x1="658.5446" x2="514.8181" y1="223.9063" y2="223.9063"/><line style="stroke:#181818;stroke-width:1;" x1="514.8181" x2="514.8181" y1="223.9063" y2="245.9063"/><polygon fill="#181818" points="510.8181,235.9063,514.8181,245.9063,518.8181,235.9063,514.8181,239.9063" style="stroke:#181818;stroke-width:1;"/><line style="stroke:#181818;stroke-width:1;" x1="884.546" x2="1028.2725" y1="223.9063" y2="223.9063"/><line style="stroke:#181818;stroke-width:1;" x1="1028.2725" x2="1028.2725" y1="223.9063" y2="245.9063"/><polygon fill="#181818" points="1024.2725,235.9063,1028.2725,245.9063,1032.2725,235.9063,1028.2725,239.9063" style="stroke:#181818;stroke-width:1;"/><line style="stroke:#181818;stroke-width:1;" x1="514.8181" x2="514.8181" y1="654.75" y2="672.75"/><line style="stroke:#181818;stroke-width:1;" x1="514.8181" x2="759.5453" y1="672.75" y2="672.75"/><polygon fill="#181818" points="749.5453,668.75,759.5453,672.75,749.5453,676.75,753.5453,672.75" style="stroke:#181818;stroke-width:1;"/><line style="stroke:#181818;stroke-width:1;" x1="1028.2725" x2="1028.2725" y1="279.875" y2="672.75"/><line style="stroke:#181818;stroke-width:1;" x1="1028.2725" x2="783.5453" y1="672.75" y2="672.75"/><polygon fill="#181818" points="793.5453,668.75,783.5453,672.75,793.5453,676.75,789.5453,672.75" style="stroke:#181818;stroke-width:1;"/><line style="stroke:#181818;stroke-width:1;" x1="771.5453" x2="771.5453" y1="191.9063" y2="211.9063"/><polygon fill="#181818" points="767.5453,201.9063,771.5453,211.9063,775.5453,201.9063,771.5453,205.9063" style="stroke:#181818;stroke-width:1;"/><line style="stroke:#181818;stroke-width:1;" x1="771.5453" x2="771.5453" y1="684.75" y2="704.75"/><polygon fill="#181818" points="767.5453,694.75,771.5453,704.75,775.5453,694.75,771.5453,698.75" style="stroke:#181818;stroke-width:1;"/><line style="stroke:#181818;stroke-width:1;" x1="771.5453" x2="771.5453" y1="738.7188" y2="758.7188"/><polygon fill="#181818" points="767.5453,748.7188,771.5453,758.7188,775.5453,748.7188,771.5453,752.7188" style="stroke:#181818;stroke-width:1;"/><!--SRC=[dL91Ja913DtFAHfNiF02_8LHn4HZZ16Dwp9JO2A__UaCX7WRuiA3_8lP0J-YnCIucxIlxxs-JigesRd1kQUKKA5fDxF8287WLknLkS4r9zAeG3N61H0auZbQVRY87aiPJaQS5VMaSYvEeJTK2iG-Oan0l8eOC463YZ11_q8SplgGvyJG6yUwxmONkoeeUPeG-A_nQiltb9RjHgC0hMFA12n6n5w-qnJak5W3BwgK6k50loZDoCnaiJVSF3zMXnQoA7SzWe114WI1vQS7mrwfS2vWr1fVgKDRvu52j2MYS4coB7o9QJuHr52vbALnj4W4lRlsJVh7egGgtGwHL-rc4GFs3nKj00ke9auuizpjI6McSjQBqx-GxwDaGzbnl9JB1VcN2fp2gB0Qm4kzPFiExVjE_GSNxM5CQqDqN6vmJnOYs-4LpEJnxzl6zW40]--></g></svg>