<svg xmlns="http://www.w3.org/2000/svg" xmlns:xlink="http://www.w3.org/1999/xlink" contentStyleType="text/css" data-diagram-type="ACTIVITY" height="1207px" preserveAspectRatio="none" style="width:1826px;height:1207px;background:#FFFFFF;" version="1.1" viewBox="0 0 1826 1207" width="1826px" zoomAndPan="magnify"><defs/><g><ellipse cx="1355.5283" cy="20" fill="#222222" rx="10" ry="10" style="stroke:#222222;stroke-width:1;"/><rect fill="#F1F1F1" height="33.9688" rx="12.5" ry="12.5" style="stroke:#181818;stroke-width:0.5;" width="339.541" x="1185.7578" y="50"/><text fill="#000000" font-family="sans-serif" font-size="12" lengthAdjust="spacing" textLength="319.541" x="1195.7578" y="71.1387">Instrutor acessa p&#225;gina de Gerenciamento de Alunos</text><rect fill="#F1F1F1" height="33.9688" rx="12.5" ry="12.5" style="stroke:#181818;stroke-width:0.5;" width="355.5547" x="1177.751" y="103.9688"/><text fill="#000000" font-family="sans-serif" font-size="12" lengthAdjust="spacing" textLength="335.5547" x="1187.751" y="125.1074">Instrutor visualiza formul&#225;rio para cadastrar novo aluno</text><rect fill="#F1F1F1" height="33.9688" rx="12.5" ry="12.5" style="stroke:#181818;stroke-width:0.5;" width="257.6621" x="1226.6973" y="157.9375"/><text fill="#000000" font-family="sans-serif" font-size="12" lengthAdjust="spacing" textLength="237.6621" x="1236.6973" y="179.0762">Instrutor insere CPF do aluno no campo</text><rect fill="#F1F1F1" height="33.9688" rx="12.5" ry="12.5" style="stroke:#181818;stroke-width:0.5;" width="271.2324" x="1219.9121" y="211.9063"/><text fill="#000000" font-family="sans-serif" font-size="12" lengthAdjust="spacing" textLength="251.2324" x="1229.9121" y="233.0449">Instrutor clica no bot&#227;o "Cadastrar Aluno"</text><rect fill="#F1F1F1" height="33.9688" rx="12.5" ry="12.5" style="stroke:#181818;stroke-width:0.5;" width="210.5117" x="1250.2725" y="265.875"/><text fill="#000000" font-family="sans-serif" font-size="12" lengthAdjust="spacing" textLength="190.5117" x="1260.2725" y="287.0137">Frontend valida formato do CPF</text><polygon fill="#F1F1F1" points="1289.9526,319.8438,1421.104,319.8438,1433.104,331.8438,1421.104,343.8438,1289.9526,343.8438,1277.9526,331.8438,1289.9526,319.8438" style="stroke:#181818;stroke-width:0.5;"/><text fill="#000000" font-family="sans-serif" font-size="11" lengthAdjust="spacing" textLength="131.1514" x="1289.9526" y="335.6519">CPF em formato v&#225;lido?</text><text fill="#000000" font-family="sans-serif" font-size="11" lengthAdjust="spacing" textLength="20.7539" x="1257.1987" y="329.2495">Sim</text><text fill="#000000" font-family="sans-serif" font-size="11" lengthAdjust="spacing" textLength="21.6992" x="1433.104" y="329.2495">N&#227;o</text><rect fill="#F1F1F1" height="33.9688" rx="12.5" ry="12.5" style="stroke:#181818;stroke-width:0.5;" width="223.6426" x="914.0378" y="353.8438"/><text fill="#000000" font-family="sans-serif" font-size="12" lengthAdjust="spacing" textLength="203.6426" x="924.0378" y="374.9824">Frontend envia CPF para Backend</text><rect fill="#F1F1F1" height="33.9688" rx="12.5" ry="12.5" style="stroke:#181818;stroke-width:0.5;" width="244.9766" x="903.3708" y="407.8125"/><text fill="#000000" font-family="sans-serif" font-size="12" lengthAdjust="spacing" textLength="224.9766" x="913.3708" y="428.9512">Backend recebe CPF e ID do instrutor</text><rect fill="#F1F1F1" height="33.9688" rx="12.5" ry="12.5" style="stroke:#181818;stroke-width:0.5;" width="215.041" x="918.3386" y="461.7813"/><text fill="#000000" font-family="sans-serif" font-size="12" lengthAdjust="spacing" textLength="195.041" x="928.3386" y="482.9199">Backend busca usu&#225;rio pelo CPF</text><polygon fill="#F1F1F1" points="968.9014,515.75,1082.8169,515.75,1094.8169,527.75,1082.8169,539.75,968.9014,539.75,956.9014,527.75,968.9014,515.75" style="stroke:#181818;stroke-width:0.5;"/><text fill="#000000" font-family="sans-serif" font-size="11" lengthAdjust="spacing" textLength="113.9155" x="968.9014" y="531.5581">Usu&#225;rio encontrado?</text><text fill="#000000" font-family="sans-serif" font-size="11" lengthAdjust="spacing" textLength="20.7539" x="936.1475" y="525.1558">Sim</text><text fill="#000000" font-family="sans-serif" font-size="11" lengthAdjust="spacing" textLength="21.6992" x="1094.8169" y="525.1558">N&#227;o</text><rect fill="#F1F1F1" height="33.9688" rx="12.5" ry="12.5" style="stroke:#181818;stroke-width:0.5;" width="256.8652" x="550.0085" y="549.75"/><text fill="#000000" font-family="sans-serif" font-size="12" lengthAdjust="spacing" textLength="236.8652" x="560.0085" y="570.8887">Backend verifica se usu&#225;rio &#233; um aluno</text><polygon fill="#F1F1F1" points="644.4717,603.7188,712.4106,603.7188,724.4106,615.7188,712.4106,627.7188,644.4717,627.7188,632.4717,615.7188,644.4717,603.7188" style="stroke:#181818;stroke-width:0.5;"/><text fill="#000000" font-family="sans-serif" font-size="11" lengthAdjust="spacing" textLength="67.939" x="644.4717" y="619.5269">&#201; um aluno?</text><text fill="#000000" font-family="sans-serif" font-size="11" lengthAdjust="spacing" textLength="20.7539" x="611.7178" y="613.1245">Sim</text><text fill="#000000" font-family="sans-serif" font-size="11" lengthAdjust="spacing" textLength="21.6992" x="724.4106" y="613.1245">N&#227;o</text><rect fill="#F1F1F1" height="33.9688" rx="12.5" ry="12.5" style="stroke:#181818;stroke-width:0.5;" width="238.4727" x="271.5288" y="637.7188"/><text fill="#000000" font-family="sans-serif" font-size="12" lengthAdjust="spacing" textLength="218.4727" x="281.5288" y="658.8574">Backend verifica se j&#225; existe v&#237;nculo</text><polygon fill="#F1F1F1" points="343.1128,706.6875,438.4175,706.6875,450.4175,718.6875,438.4175,730.6875,343.1128,730.6875,331.1128,718.6875,343.1128,706.6875" style="stroke:#181818;stroke-width:0.5;"/><text fill="#000000" font-family="sans-serif" font-size="11" lengthAdjust="spacing" textLength="95.3047" x="343.1128" y="722.4956">J&#225; existe v&#237;nculo?</text><text fill="#000000" font-family="sans-serif" font-size="11" lengthAdjust="spacing" textLength="20.7539" x="310.3589" y="716.0933">Sim</text><text fill="#000000" font-family="sans-serif" font-size="11" lengthAdjust="spacing" textLength="21.6992" x="450.4175" y="716.0933">N&#227;o</text><rect fill="#F1F1F1" height="33.9688" rx="12.5" ry="12.5" style="stroke:#181818;stroke-width:0.5;" width="322.6719" x="39.8691" y="740.6875"/><text fill="#000000" font-family="sans-serif" font-size="12" lengthAdjust="spacing" textLength="302.6719" x="49.8691" y="761.8262">Backend retorna mensagem de aluno j&#225; vinculado</text><rect fill="#F1F1F1" height="33.9688" rx="12.5" ry="12.5" style="stroke:#181818;stroke-width:0.5;" width="380.4102" x="11" y="809.6563"/><text fill="#000000" font-family="sans-serif" font-size="12" lengthAdjust="spacing" textLength="360.4102" x="21" y="830.7949">Frontend exibe mensagem "Aluno j&#225; vinculado ao instrutor"</text><rect fill="#F1F1F1" height="33.9688" rx="12.5" ry="12.5" style="stroke:#181818;stroke-width:0.5;" width="318.541" x="421.0547" y="740.6875"/><text fill="#000000" font-family="sans-serif" font-size="12" lengthAdjust="spacing" textLength="298.541" x="431.0547" y="761.8262">Backend cria v&#237;nculo na tabela instructor_student</text><rect fill="#F1F1F1" height="33.9688" rx="12.5" ry="12.5" style="stroke:#181818;stroke-width:0.5;" width="337.8301" x="411.4102" y="809.6563"/><text fill="#000000" font-family="sans-serif" font-size="12" lengthAdjust="spacing" textLength="317.8301" x="421.4102" y="830.7949">Backend retorna dados do aluno e status de sucesso</text><rect fill="#F1F1F1" height="33.9688" rx="12.5" ry="12.5" style="stroke:#181818;stroke-width:0.5;" width="293.3516" x="433.6494" y="878.0273"/><text fill="#000000" font-family="sans-serif" font-size="12" lengthAdjust="spacing" textLength="273.3516" x="443.6494" y="899.166">Frontend atualiza lista de alunos cadastrados</text><rect fill="#F1F1F1" height="33.9688" rx="12.5" ry="12.5" style="stroke:#181818;stroke-width:0.5;" width="251.8262" x="454.4121" y="946.9961"/><text fill="#000000" font-family="sans-serif" font-size="12" lengthAdjust="spacing" textLength="231.8262" x="464.4121" y="968.1348">Frontend exibe mensagem de sucesso</text><polygon fill="#F1F1F1" points="390.7651,986.9648,402.7651,998.9648,390.7651,1010.9648,378.7651,998.9648,390.7651,986.9648" style="stroke:#181818;stroke-width:0.5;"/><rect fill="#F1F1F1" height="33.9688" rx="12.5" ry="12.5" style="stroke:#181818;stroke-width:0.5;" width="260.8965" x="835.6689" y="637.7188"/><text fill="#000000" font-family="sans-serif" font-size="12" lengthAdjust="spacing" textLength="240.8965" x="845.6689" y="658.8574">Backend retorna erro de tipo de usu&#225;rio</text><rect fill="#F1F1F1" height="33.9688" rx="12.5" ry="12.5" style="stroke:#181818;stroke-width:0.5;" width="373.7539" x="779.2402" y="706.6875"/><text fill="#000000" font-family="sans-serif" font-size="12" lengthAdjust="spacing" textLength="353.7539" x="789.2402" y="727.8262">Frontend exibe mensagem "CPF n&#227;o pertence a um aluno"</text><polygon fill="#F1F1F1" points="678.4412,1016.9648,690.4412,1028.9648,678.4412,1040.9648,666.4412,1028.9648,678.4412,1016.9648" style="stroke:#181818;stroke-width:0.5;"/><rect fill="#F1F1F1" height="33.9688" rx="12.5" ry="12.5" style="stroke:#181818;stroke-width:0.5;" width="313.6836" x="1185.4825" y="549.75"/><text fill="#000000" font-family="sans-serif" font-size="12" lengthAdjust="spacing" textLength="293.6836" x="1195.4825" y="570.8887">Backend retorna erro de usu&#225;rio n&#227;o encontrado</text><rect fill="#F1F1F1" height="33.9688" rx="12.5" ry="12.5" style="stroke:#181818;stroke-width:0.5;" width="340.3848" x="1172.132" y="603.7188"/><text fill="#000000" font-family="sans-serif" font-size="12" lengthAdjust="spacing" textLength="320.3848" x="1182.132" y="624.8574">Frontend exibe mensagem "Usu&#225;rio n&#227;o encontrado"</text><rect fill="#F1F1F1" height="33.9688" rx="12.5" ry="12.5" style="stroke:#181818;stroke-width:0.5;" width="298.1797" x="1193.2345" y="721.0898"/><text fill="#000000" font-family="sans-serif" font-size="12" lengthAdjust="spacing" textLength="278.1797" x="1203.2345" y="742.2285">Frontend exibe op&#231;&#227;o para convidar por email</text><polygon fill="#F1F1F1" points="1270.4457,790.0586,1414.203,790.0586,1426.203,802.0586,1414.203,814.0586,1270.4457,814.0586,1258.4457,802.0586,1270.4457,790.0586" style="stroke:#181818;stroke-width:0.5;"/><text fill="#000000" font-family="sans-serif" font-size="11" lengthAdjust="spacing" textLength="143.7573" x="1270.4457" y="805.8667">Instrutor deseja convidar?</text><text fill="#000000" font-family="sans-serif" font-size="11" lengthAdjust="spacing" textLength="20.7539" x="1237.6918" y="799.4644">Sim</text><text fill="#000000" font-family="sans-serif" font-size="11" lengthAdjust="spacing" textLength="21.6992" x="1426.203" y="799.4644">N&#227;o</text><rect fill="#F1F1F1" height="33.9688" rx="12.5" ry="12.5" style="stroke:#181818;stroke-width:0.5;" width="149.2344" x="1173.8285" y="824.0586"/><text fill="#000000" font-family="sans-serif" font-size="12" lengthAdjust="spacing" textLength="129.2344" x="1183.8285" y="845.1973">Instrutor insere email</text><rect fill="#F1F1F1" height="33.9688" rx="12.5" ry="12.5" style="stroke:#181818;stroke-width:0.5;" width="152.8086" x="1172.0414" y="892.4297"/><text fill="#000000" font-family="sans-serif" font-size="12" lengthAdjust="spacing" textLength="132.8086" x="1182.0414" y="913.5684">Sistema envia convite</text><rect fill="#F1F1F1" height="33.9688" rx="12.5" ry="12.5" style="stroke:#181818;stroke-width:0.5;" width="181.3965" x="1345.5048" y="824.0586"/><text fill="#000000" font-family="sans-serif" font-size="12" lengthAdjust="spacing" textLength="161.3965" x="1355.5048" y="845.1973">Instrutor cancela opera&#231;&#227;o</text><polygon fill="#F1F1F1" points="1342.3243,932.3984,1354.3243,944.3984,1342.3243,956.3984,1330.3243,944.3984,1342.3243,932.3984" style="stroke:#181818;stroke-width:0.5;"/><polygon fill="#F1F1F1" points="1293.4957,672.6875,1391.153,672.6875,1403.153,684.6875,1391.153,696.6875,1293.4957,696.6875,1281.4957,684.6875,1293.4957,672.6875" style="stroke:#181818;stroke-width:0.5;"/><text fill="#000000" font-family="sans-serif" font-size="11" lengthAdjust="spacing" textLength="20.7539" x="1346.3243" y="706.8979">Sim</text><text fill="#000000" font-family="sans-serif" font-size="11" lengthAdjust="spacing" textLength="97.6572" x="1293.4957" y="688.4956">Oferecer convite?</text><polygon fill="#F1F1F1" points="1342.3243,980.8008,1354.3243,992.8008,1342.3243,1004.8008,1330.3243,992.8008,1342.3243,980.8008" style="stroke:#181818;stroke-width:0.5;"/><polygon fill="#F1F1F1" points="1025.8591,1046.9648,1037.8591,1058.9648,1025.8591,1070.9648,1013.8591,1058.9648,1025.8591,1046.9648" style="stroke:#181818;stroke-width:0.5;"/><rect fill="#F1F1F1" height="33.9688" rx="12.5" ry="12.5" style="stroke:#181818;stroke-width:0.5;" width="254.498" x="1560.9012" y="353.8438"/><text fill="#000000" font-family="sans-serif" font-size="12" lengthAdjust="spacing" textLength="234.498" x="1570.9012" y="374.9824">Frontend exibe erro de formato de CPF</text><polygon fill="#F1F1F1" points="1355.5283,1076.9648,1367.5283,1088.9648,1355.5283,1100.9648,1343.5283,1088.9648,1355.5283,1076.9648" style="stroke:#181818;stroke-width:0.5;"/><rect fill="#F1F1F1" height="33.9688" rx="12.5" ry="12.5" style="stroke:#181818;stroke-width:0.5;" width="385.0684" x="1162.9941" y="1120.9648"/><text fill="#000000" font-family="sans-serif" font-size="12" lengthAdjust="spacing" textLength="365.0684" x="1172.9941" y="1142.1035">Instrutor permanece na p&#225;gina de Gerenciamento de Alunos</text><ellipse cx="1355.5283" cy="1185.9336" fill="none" rx="11" ry="11" style="stroke:#222222;stroke-width:1;"/><ellipse cx="1355.5283" cy="1185.9336" fill="#222222" rx="6" ry="6" style="stroke:#222222;stroke-width:1;"/><line style="stroke:#181818;stroke-width:1;" x1="1355.5283" x2="1355.5283" y1="30" y2="50"/><polygon fill="#181818" points="1351.5283,40,1355.5283,50,1359.5283,40,1355.5283,44" style="stroke:#181818;stroke-width:1;"/><line style="stroke:#181818;stroke-width:1;" x1="1355.5283" x2="1355.5283" y1="83.9688" y2="103.9688"/><polygon fill="#181818" points="1351.5283,93.9688,1355.5283,103.9688,1359.5283,93.9688,1355.5283,97.9688" style="stroke:#181818;stroke-width:1;"/><line style="stroke:#181818;stroke-width:1;" x1="1355.5283" x2="1355.5283" y1="137.9375" y2="157.9375"/><polygon fill="#181818" points="1351.5283,147.9375,1355.5283,157.9375,1359.5283,147.9375,1355.5283,151.9375" style="stroke:#181818;stroke-width:1;"/><line style="stroke:#181818;stroke-width:1;" x1="1355.5283" x2="1355.5283" y1="191.9063" y2="211.9063"/><polygon fill="#181818" points="1351.5283,201.9063,1355.5283,211.9063,1359.5283,201.9063,1355.5283,205.9063" style="stroke:#181818;stroke-width:1;"/><line style="stroke:#181818;stroke-width:1;" x1="1355.5283" x2="1355.5283" y1="245.875" y2="265.875"/><polygon fill="#181818" points="1351.5283,255.875,1355.5283,265.875,1359.5283,255.875,1355.5283,259.875" style="stroke:#181818;stroke-width:1;"/><line style="stroke:#181818;stroke-width:1;" x1="1025.8591" x2="1025.8591" y1="387.8125" y2="407.8125"/><polygon fill="#181818" points="1021.8591,397.8125,1025.8591,407.8125,1029.8591,397.8125,1025.8591,401.8125" style="stroke:#181818;stroke-width:1;"/><line style="stroke:#181818;stroke-width:1;" x1="1025.8591" x2="1025.8591" y1="441.7813" y2="461.7813"/><polygon fill="#181818" points="1021.8591,451.7813,1025.8591,461.7813,1029.8591,451.7813,1025.8591,455.7813" style="stroke:#181818;stroke-width:1;"/><line style="stroke:#181818;stroke-width:1;" x1="201.2051" x2="201.2051" y1="774.6563" y2="809.6563"/><polygon fill="#181818" points="197.2051,799.6563,201.2051,809.6563,205.2051,799.6563,201.2051,803.6563" style="stroke:#181818;stroke-width:1;"/><line style="stroke:#181818;stroke-width:1;" x1="580.3252" x2="580.3252" y1="774.6563" y2="809.6563"/><polygon fill="#181818" points="576.3252,799.6563,580.3252,809.6563,584.3252,799.6563,580.3252,803.6563" style="stroke:#181818;stroke-width:1;"/><line style="stroke:#181818;stroke-width:1;" x1="580.3252" x2="580.3252" y1="843.625" y2="878.0273"/><polygon fill="#181818" points="576.3252,868.0273,580.3252,878.0273,584.3252,868.0273,580.3252,872.0273" style="stroke:#181818;stroke-width:1;"/><line style="stroke:#181818;stroke-width:1;" x1="580.3252" x2="580.3252" y1="911.9961" y2="946.9961"/><polygon fill="#181818" points="576.3252,936.9961,580.3252,946.9961,584.3252,936.9961,580.3252,940.9961" style="stroke:#181818;stroke-width:1;"/><line style="stroke:#181818;stroke-width:1;" x1="331.1128" x2="201.2051" y1="718.6875" y2="718.6875"/><line style="stroke:#181818;stroke-width:1;" x1="201.2051" x2="201.2051" y1="718.6875" y2="740.6875"/><polygon fill="#181818" points="197.2051,730.6875,201.2051,740.6875,205.2051,730.6875,201.2051,734.6875" style="stroke:#181818;stroke-width:1;"/><line style="stroke:#181818;stroke-width:1;" x1="450.4175" x2="580.3252" y1="718.6875" y2="718.6875"/><line style="stroke:#181818;stroke-width:1;" x1="580.3252" x2="580.3252" y1="718.6875" y2="740.6875"/><polygon fill="#181818" points="576.3252,730.6875,580.3252,740.6875,584.3252,730.6875,580.3252,734.6875" style="stroke:#181818;stroke-width:1;"/><line style="stroke:#181818;stroke-width:1;" x1="201.2051" x2="201.2051" y1="843.625" y2="998.9648"/><line style="stroke:#181818;stroke-width:1;" x1="201.2051" x2="378.7651" y1="998.9648" y2="998.9648"/><polygon fill="#181818" points="368.7651,994.9648,378.7651,998.9648,368.7651,1002.9648,372.7651,998.9648" style="stroke:#181818;stroke-width:1;"/><line style="stroke:#181818;stroke-width:1;" x1="580.3252" x2="580.3252" y1="980.9648" y2="998.9648"/><line style="stroke:#181818;stroke-width:1;" x1="580.3252" x2="402.7651" y1="998.9648" y2="998.9648"/><polygon fill="#181818" points="412.7651,994.9648,402.7651,998.9648,412.7651,1002.9648,408.7651,998.9648" style="stroke:#181818;stroke-width:1;"/><line style="stroke:#181818;stroke-width:1;" x1="390.7651" x2="390.7651" y1="671.6875" y2="706.6875"/><polygon fill="#181818" points="386.7651,696.6875,390.7651,706.6875,394.7651,696.6875,390.7651,700.6875" style="stroke:#181818;stroke-width:1;"/><line style="stroke:#181818;stroke-width:1;" x1="966.1172" x2="966.1172" y1="671.6875" y2="706.6875"/><polygon fill="#181818" points="962.1172,696.6875,966.1172,706.6875,970.1172,696.6875,966.1172,700.6875" style="stroke:#181818;stroke-width:1;"/><line style="stroke:#181818;stroke-width:1;" x1="632.4717" x2="390.7651" y1="615.7188" y2="615.7188"/><line style="stroke:#181818;stroke-width:1;" x1="390.7651" x2="390.7651" y1="615.7188" y2="637.7188"/><polygon fill="#181818" points="386.7651,627.7188,390.7651,637.7188,394.7651,627.7188,390.7651,631.7188" style="stroke:#181818;stroke-width:1;"/><line style="stroke:#181818;stroke-width:1;" x1="724.4106" x2="966.1172" y1="615.7188" y2="615.7188"/><line style="stroke:#181818;stroke-width:1;" x1="966.1172" x2="966.1172" y1="615.7188" y2="637.7188"/><polygon fill="#181818" points="962.1172,627.7188,966.1172,637.7188,970.1172,627.7188,966.1172,631.7188" style="stroke:#181818;stroke-width:1;"/><line style="stroke:#181818;stroke-width:1;" x1="390.7651" x2="390.7651" y1="1010.9648" y2="1028.9648"/><line style="stroke:#181818;stroke-width:1;" x1="390.7651" x2="666.4412" y1="1028.9648" y2="1028.9648"/><polygon fill="#181818" points="656.4412,1024.9648,666.4412,1028.9648,656.4412,1032.9648,660.4412,1028.9648" style="stroke:#181818;stroke-width:1;"/><line style="stroke:#181818;stroke-width:1;" x1="966.1172" x2="966.1172" y1="740.6563" y2="1028.9648"/><line style="stroke:#181818;stroke-width:1;" x1="966.1172" x2="690.4412" y1="1028.9648" y2="1028.9648"/><polygon fill="#181818" points="700.4412,1024.9648,690.4412,1028.9648,700.4412,1032.9648,696.4412,1028.9648" style="stroke:#181818;stroke-width:1;"/><line style="stroke:#181818;stroke-width:1;" x1="678.4412" x2="678.4412" y1="583.7188" y2="603.7188"/><polygon fill="#181818" points="674.4412,593.7188,678.4412,603.7188,682.4412,593.7188,678.4412,597.7188" style="stroke:#181818;stroke-width:1;"/><line style="stroke:#181818;stroke-width:1;" x1="1342.3243" x2="1342.3243" y1="583.7188" y2="603.7188"/><polygon fill="#181818" points="1338.3243,593.7188,1342.3243,603.7188,1346.3243,593.7188,1342.3243,597.7188" style="stroke:#181818;stroke-width:1;"/><line style="stroke:#181818;stroke-width:1;" x1="1248.4457" x2="1248.4457" y1="858.0273" y2="892.4297"/><polygon fill="#181818" points="1244.4457,882.4297,1248.4457,892.4297,1252.4457,882.4297,1248.4457,886.4297" style="stroke:#181818;stroke-width:1;"/><line style="stroke:#181818;stroke-width:1;" x1="1258.4457" x2="1248.4457" y1="802.0586" y2="802.0586"/><line style="stroke:#181818;stroke-width:1;" x1="1248.4457" x2="1248.4457" y1="802.0586" y2="824.0586"/><polygon fill="#181818" points="1244.4457,814.0586,1248.4457,824.0586,1252.4457,814.0586,1248.4457,818.0586" style="stroke:#181818;stroke-width:1;"/><line style="stroke:#181818;stroke-width:1;" x1="1426.203" x2="1436.203" y1="802.0586" y2="802.0586"/><line style="stroke:#181818;stroke-width:1;" x1="1436.203" x2="1436.203" y1="802.0586" y2="824.0586"/><polygon fill="#181818" points="1432.203,814.0586,1436.203,824.0586,1440.203,814.0586,1436.203,818.0586" style="stroke:#181818;stroke-width:1;"/><line style="stroke:#181818;stroke-width:1;" x1="1248.4457" x2="1248.4457" y1="926.3984" y2="944.3984"/><line style="stroke:#181818;stroke-width:1;" x1="1248.4457" x2="1330.3243" y1="944.3984" y2="944.3984"/><polygon fill="#181818" points="1320.3243,940.3984,1330.3243,944.3984,1320.3243,948.3984,1324.3243,944.3984" style="stroke:#181818;stroke-width:1;"/><line style="stroke:#181818;stroke-width:1;" x1="1436.203" x2="1436.203" y1="858.0273" y2="944.3984"/><line style="stroke:#181818;stroke-width:1;" x1="1436.203" x2="1354.3243" y1="944.3984" y2="944.3984"/><polygon fill="#181818" points="1364.3243,940.3984,1354.3243,944.3984,1364.3243,948.3984,1360.3243,944.3984" style="stroke:#181818;stroke-width:1;"/><line style="stroke:#181818;stroke-width:1;" x1="1342.3243" x2="1342.3243" y1="755.0586" y2="790.0586"/><polygon fill="#181818" points="1338.3243,780.0586,1342.3243,790.0586,1346.3243,780.0586,1342.3243,784.0586" style="stroke:#181818;stroke-width:1;"/><line style="stroke:#181818;stroke-width:1;" x1="1342.3243" x2="1342.3243" y1="696.6875" y2="721.0898"/><polygon fill="#181818" points="1338.3243,711.0898,1342.3243,721.0898,1346.3243,711.0898,1342.3243,715.0898" style="stroke:#181818;stroke-width:1;"/><line style="stroke:#181818;stroke-width:1;" x1="1403.153" x2="1546.9012" y1="684.6875" y2="684.6875"/><polygon fill="#181818" points="1542.9012,829.043,1546.9012,839.043,1550.9012,829.043,1546.9012,833.043" style="stroke:#181818;stroke-width:1;"/><line style="stroke:#181818;stroke-width:1;" x1="1546.9012" x2="1546.9012" y1="684.6875" y2="992.8008"/><line style="stroke:#181818;stroke-width:1;" x1="1546.9012" x2="1354.3243" y1="992.8008" y2="992.8008"/><polygon fill="#181818" points="1364.3243,988.8008,1354.3243,992.8008,1364.3243,996.8008,1360.3243,992.8008" style="stroke:#181818;stroke-width:1;"/><line style="stroke:#181818;stroke-width:1;" x1="1342.3243" x2="1342.3243" y1="956.3984" y2="980.8008"/><polygon fill="#181818" points="1338.3243,970.8008,1342.3243,980.8008,1346.3243,970.8008,1342.3243,974.8008" style="stroke:#181818;stroke-width:1;"/><line style="stroke:#181818;stroke-width:1;" x1="1342.3243" x2="1342.3243" y1="637.6875" y2="672.6875"/><polygon fill="#181818" points="1338.3243,662.6875,1342.3243,672.6875,1346.3243,662.6875,1342.3243,666.6875" style="stroke:#181818;stroke-width:1;"/><line style="stroke:#181818;stroke-width:1;" x1="956.9014" x2="678.4412" y1="527.75" y2="527.75"/><line style="stroke:#181818;stroke-width:1;" x1="678.4412" x2="678.4412" y1="527.75" y2="549.75"/><polygon fill="#181818" points="674.4412,539.75,678.4412,549.75,682.4412,539.75,678.4412,543.75" style="stroke:#181818;stroke-width:1;"/><line style="stroke:#181818;stroke-width:1;" x1="1094.8169" x2="1342.3243" y1="527.75" y2="527.75"/><line style="stroke:#181818;stroke-width:1;" x1="1342.3243" x2="1342.3243" y1="527.75" y2="549.75"/><polygon fill="#181818" points="1338.3243,539.75,1342.3243,549.75,1346.3243,539.75,1342.3243,543.75" style="stroke:#181818;stroke-width:1;"/><line style="stroke:#181818;stroke-width:1;" x1="678.4412" x2="678.4412" y1="1040.9648" y2="1058.9648"/><line style="stroke:#181818;stroke-width:1;" x1="678.4412" x2="1013.8591" y1="1058.9648" y2="1058.9648"/><polygon fill="#181818" points="1003.8591,1054.9648,1013.8591,1058.9648,1003.8591,1062.9648,1007.8591,1058.9648" style="stroke:#181818;stroke-width:1;"/><line style="stroke:#181818;stroke-width:1;" x1="1342.3243" x2="1342.3243" y1="1004.8008" y2="1058.9648"/><line style="stroke:#181818;stroke-width:1;" x1="1342.3243" x2="1037.8591" y1="1058.9648" y2="1058.9648"/><polygon fill="#181818" points="1047.8591,1054.9648,1037.8591,1058.9648,1047.8591,1062.9648,1043.8591,1058.9648" style="stroke:#181818;stroke-width:1;"/><line style="stroke:#181818;stroke-width:1;" x1="1025.8591" x2="1025.8591" y1="495.75" y2="515.75"/><polygon fill="#181818" points="1021.8591,505.75,1025.8591,515.75,1029.8591,505.75,1025.8591,509.75" style="stroke:#181818;stroke-width:1;"/><line style="stroke:#181818;stroke-width:1;" x1="1277.9526" x2="1025.8591" y1="331.8438" y2="331.8438"/><line style="stroke:#181818;stroke-width:1;" x1="1025.8591" x2="1025.8591" y1="331.8438" y2="353.8438"/><polygon fill="#181818" points="1021.8591,343.8438,1025.8591,353.8438,1029.8591,343.8438,1025.8591,347.8438" style="stroke:#181818;stroke-width:1;"/><line style="stroke:#181818;stroke-width:1;" x1="1433.104" x2="1688.1503" y1="331.8438" y2="331.8438"/><line style="stroke:#181818;stroke-width:1;" x1="1688.1503" x2="1688.1503" y1="331.8438" y2="353.8438"/><polygon fill="#181818" points="1684.1503,343.8438,1688.1503,353.8438,1692.1503,343.8438,1688.1503,347.8438" style="stroke:#181818;stroke-width:1;"/><line style="stroke:#181818;stroke-width:1;" x1="1025.8591" x2="1025.8591" y1="1070.9648" y2="1088.9648"/><line style="stroke:#181818;stroke-width:1;" x1="1025.8591" x2="1343.5283" y1="1088.9648" y2="1088.9648"/><polygon fill="#181818" points="1333.5283,1084.9648,1343.5283,1088.9648,1333.5283,1092.9648,1337.5283,1088.9648" style="stroke:#181818;stroke-width:1;"/><line style="stroke:#181818;stroke-width:1;" x1="1688.1503" x2="1688.1503" y1="387.8125" y2="1088.9648"/><line style="stroke:#181818;stroke-width:1;" x1="1688.1503" x2="1367.5283" y1="1088.9648" y2="1088.9648"/><polygon fill="#181818" points="1377.5283,1084.9648,1367.5283,1088.9648,1377.5283,1092.9648,1373.5283,1088.9648" style="stroke:#181818;stroke-width:1;"/><line style="stroke:#181818;stroke-width:1;" x1="1355.5283" x2="1355.5283" y1="299.8438" y2="319.8438"/><polygon fill="#181818" points="1351.5283,309.8438,1355.5283,319.8438,1359.5283,309.8438,1355.5283,313.8438" style="stroke:#181818;stroke-width:1;"/><line style="stroke:#181818;stroke-width:1;" x1="1355.5283" x2="1355.5283" y1="1100.9648" y2="1120.9648"/><polygon fill="#181818" points="1351.5283,1110.9648,1355.5283,1120.9648,1359.5283,1110.9648,1355.5283,1114.9648" style="stroke:#181818;stroke-width:1;"/><line style="stroke:#181818;stroke-width:1;" x1="1355.5283" x2="1355.5283" y1="1154.9336" y2="1174.9336"/><polygon fill="#181818" points="1351.5283,1164.9336,1355.5283,1174.9336,1359.5283,1164.9336,1355.5283,1168.9336" style="stroke:#181818;stroke-width:1;"/><!--SRC=[bLHBRXin3Dtx58HNpXNYHP2cI94kcW91rWMjeLEbCz90dq7G6_GOHXT55pt5NAnFcezbkmxIZSUGoCV7fqVwm2ui5fTtnWSNWtN4IhndQllTapPCbT07SMAKvaPCiEdWkex6-dMPrMaVkTRVcRRMDR7kTqvRQjanAQuOOUp8sCuIf-I3N6qyAj3Dvrkgndk48gzf3mDLhHMdguqD_KzBoviPEbDQhj79hRCcYAce0vzguCE9jqqL4A6tj4grf9dlkdw7M7jrGU6h65ezwEQYG1BJQSxySaFlM7t3CQYD_yY9aitGWT3T-rHBJwoBi4tqu1zz7DMHkkJqE9r3R1HsV49emkd4wMsImiiUhVzDiPdKpO3zZ_da3K3F_OxaHViWaEEFKR6US3wUtfp1SuA6OHeunVCJ18PPXlTCw9rEkMXhNMhxeg7SdB2yFWqdBkJ46qiDkgjFS41HMZayqKIFm27mHceU4nKol_WGArXuVSgtGXM_Dv-G3noYJ_HzJFDmG1bNWzLhQC9pZtvsUfM7uroB9IYkzVRV3KtSnBayT46t-Jiz-6iY9YEQD26jE0GeC9ojiFolghEzCjpUcQzLVpoJinpzTB-LD32OPul12d9sx3AkRVjVkPMyIr96XNbliGwaOLslC-H-HrJYvNaVU8HzidH6ZCk7PE-6nr4VYHrPhLX434rXBWjzETERHIr_o-IZhYPzv-qamoOOCijQAD6mWLx9r6_PoWiVRFiN]--></g></svg>