<svg xmlns="http://www.w3.org/2000/svg" xmlns:xlink="http://www.w3.org/1999/xlink" contentStyleType="text/css" data-diagram-type="ACTIVITY" height="1074px" preserveAspectRatio="none" style="width:902px;height:1074px;background:#FFFFFF;" version="1.1" viewBox="0 0 902 1074" width="902px" zoomAndPan="magnify"><defs/><g><ellipse cx="577.3889" cy="20" fill="#222222" rx="10" ry="10" style="stroke:#222222;stroke-width:1;"/><rect fill="#F1F1F1" height="33.9688" rx="12.5" ry="12.5" style="stroke:#181818;stroke-width:0.5;" width="245.6973" x="454.5403" y="50"/><text fill="#000000" font-family="sans-serif" font-size="12" lengthAdjust="spacing" textLength="225.6973" x="464.5403" y="71.1387">Acessar p&#225;gina de Resposta Semanal</text><rect fill="#F1F1F1" height="33.9688" rx="12.5" ry="12.5" style="stroke:#181818;stroke-width:0.5;" width="366.582" x="394.0979" y="103.9688"/><text fill="#000000" font-family="sans-serif" font-size="12" lengthAdjust="spacing" textLength="346.582" x="404.0979" y="125.1074">Preencher campos do formul&#225;rio (texto, sentimento, etc.)</text><rect fill="#F1F1F1" height="33.9688" rx="12.5" ry="12.5" style="stroke:#181818;stroke-width:0.5;" width="194.6738" x="480.052" y="206.3398"/><text fill="#000000" font-family="sans-serif" font-size="12" lengthAdjust="spacing" textLength="174.6738" x="490.052" y="227.4785">Selecionar e anexar imagens</text><polygon fill="#F1F1F1" points="491.9993,157.9375,662.7786,157.9375,674.7786,169.9375,662.7786,181.9375,491.9993,181.9375,479.9993,169.9375,491.9993,157.9375" style="stroke:#181818;stroke-width:0.5;"/><text fill="#000000" font-family="sans-serif" font-size="11" lengthAdjust="spacing" textLength="20.7539" x="581.3889" y="192.1479">Sim</text><text fill="#000000" font-family="sans-serif" font-size="11" lengthAdjust="spacing" textLength="170.7793" x="491.9993" y="173.7456">Anexar imagens de progresso?</text><polygon fill="#F1F1F1" points="577.3889,260.3086,589.3889,272.3086,577.3889,284.3086,565.3889,272.3086,577.3889,260.3086" style="stroke:#181818;stroke-width:0.5;"/><rect fill="#F1F1F1" height="33.9688" rx="12.5" ry="12.5" style="stroke:#181818;stroke-width:0.5;" width="188.6387" x="483.0696" y="304.3086"/><text fill="#000000" font-family="sans-serif" font-size="12" lengthAdjust="spacing" textLength="168.6387" x="493.0696" y="325.4473">Clicar em "Enviar Resposta"</text><polygon fill="#F1F1F1" points="491.2285,358.2773,663.5493,358.2773,675.5493,370.2773,663.5493,382.2773,491.2285,382.2773,479.2285,370.2773,491.2285,358.2773" style="stroke:#181818;stroke-width:0.5;"/><text fill="#000000" font-family="sans-serif" font-size="11" lengthAdjust="spacing" textLength="172.3208" x="491.2285" y="374.0854">Dados enviados para backend?</text><text fill="#000000" font-family="sans-serif" font-size="11" lengthAdjust="spacing" textLength="20.7539" x="458.4746" y="367.6831">Sim</text><text fill="#000000" font-family="sans-serif" font-size="11" lengthAdjust="spacing" textLength="148.9297" x="675.5493" y="367.6831">N&#227;o - Erro de comunica&#231;&#227;o</text><rect fill="#F1F1F1" height="33.9688" rx="12.5" ry="12.5" style="stroke:#181818;stroke-width:0.5;" width="232.4551" x="253.6489" y="392.2773"/><text fill="#000000" font-family="sans-serif" font-size="12" lengthAdjust="spacing" textLength="212.4551" x="263.6489" y="413.416">Backend recebe dados (e imagens)</text><rect fill="#F1F1F1" height="33.9688" rx="12.5" ry="12.5" style="stroke:#181818;stroke-width:0.5;" width="151.6426" x="294.0552" y="446.2461"/><text fill="#000000" font-family="sans-serif" font-size="12" lengthAdjust="spacing" textLength="131.6426" x="304.0552" y="467.3848">Backend valida dados</text><polygon fill="#F1F1F1" points="328.4788,500.2148,411.2742,500.2148,423.2742,512.2148,411.2742,524.2148,328.4788,524.2148,316.4788,512.2148,328.4788,500.2148" style="stroke:#181818;stroke-width:0.5;"/><text fill="#000000" font-family="sans-serif" font-size="11" lengthAdjust="spacing" textLength="82.7954" x="328.4788" y="516.0229">Dados v&#225;lidos?</text><text fill="#000000" font-family="sans-serif" font-size="11" lengthAdjust="spacing" textLength="20.7539" x="295.7249" y="509.6206">Sim</text><text fill="#000000" font-family="sans-serif" font-size="11" lengthAdjust="spacing" textLength="21.6992" x="423.2742" y="509.6206">N&#227;o</text><rect fill="#F1F1F1" height="33.9688" rx="12.5" ry="12.5" style="stroke:#181818;stroke-width:0.5;" width="276.4766" x="67.2236" y="534.2148"/><text fill="#000000" font-family="sans-serif" font-size="12" lengthAdjust="spacing" textLength="256.4766" x="77.2236" y="555.3535">Backend salva resposta semanal no banco</text><rect fill="#F1F1F1" height="33.9688" rx="12.5" ry="12.5" style="stroke:#181818;stroke-width:0.5;" width="233.4688" x="88.7275" y="636.5859"/><text fill="#000000" font-family="sans-serif" font-size="12" lengthAdjust="spacing" textLength="213.4688" x="98.7275" y="657.7246">Backend salva imagens no servidor</text><rect fill="#F1F1F1" height="33.9688" rx="12.5" ry="12.5" style="stroke:#181818;stroke-width:0.5;" width="300.998" x="54.9629" y="705.5547"/><text fill="#000000" font-family="sans-serif" font-size="12" lengthAdjust="spacing" textLength="280.998" x="64.9629" y="726.6934">Backend associa imagens &#224; resposta no banco</text><polygon fill="#F1F1F1" points="161.6526,588.1836,249.2712,588.1836,261.2712,600.1836,249.2712,612.1836,161.6526,612.1836,149.6526,600.1836,161.6526,588.1836" style="stroke:#181818;stroke-width:0.5;"/><text fill="#000000" font-family="sans-serif" font-size="11" lengthAdjust="spacing" textLength="20.7539" x="209.4619" y="622.394">Sim</text><text fill="#000000" font-family="sans-serif" font-size="11" lengthAdjust="spacing" textLength="87.6187" x="161.6526" y="603.9917">Havia imagens?</text><polygon fill="#F1F1F1" points="205.4619,759.5234,217.4619,771.5234,205.4619,783.5234,193.4619,771.5234,205.4619,759.5234" style="stroke:#181818;stroke-width:0.5;"/><rect fill="#F1F1F1" height="33.9688" rx="12.5" ry="12.5" style="stroke:#181818;stroke-width:0.5;" width="171.3066" x="119.8086" y="803.5234"/><text fill="#000000" font-family="sans-serif" font-size="12" lengthAdjust="spacing" textLength="151.3066" x="129.8086" y="824.6621">Backend retorna sucesso</text><rect fill="#F1F1F1" height="33.9688" rx="12.5" ry="12.5" style="stroke:#181818;stroke-width:0.5;" width="388.9238" x="11" y="857.4922"/><text fill="#000000" font-family="sans-serif" font-size="12" lengthAdjust="spacing" textLength="368.9238" x="21" y="878.6309">Frontend exibe mensagem "Resposta enviada com sucesso!"</text><ellipse cx="205.4619" cy="922.4609" fill="none" rx="11" ry="11" style="stroke:#222222;stroke-width:1;"/><ellipse cx="205.4619" cy="922.4609" fill="#222222" rx="6" ry="6" style="stroke:#222222;stroke-width:1;"/><rect fill="#F1F1F1" height="33.9688" rx="12.5" ry="12.5" style="stroke:#181818;stroke-width:0.5;" width="228.2305" x="420.1758" y="534.2148"/><text fill="#000000" font-family="sans-serif" font-size="12" lengthAdjust="spacing" textLength="208.2305" x="430.1758" y="555.3535">Backend retorna erro de valida&#231;&#227;o</text><rect fill="#F1F1F1" height="33.9688" rx="12.5" ry="12.5" style="stroke:#181818;stroke-width:0.5;" width="228.7344" x="419.9238" y="588.1836"/><text fill="#000000" font-family="sans-serif" font-size="12" lengthAdjust="spacing" textLength="208.7344" x="429.9238" y="609.3223">Frontend exibe mensagem de erro</text><rect fill="#F1F1F1" height="33.9688" rx="12.5" ry="12.5" style="stroke:#181818;stroke-width:0.5;" width="212.4863" x="678.6582" y="392.2773"/><text fill="#000000" font-family="sans-serif" font-size="12" lengthAdjust="spacing" textLength="192.4863" x="688.6582" y="413.416">Frontend exibe erro de conex&#227;o</text><polygon fill="#F1F1F1" points="577.3889,943.4609,589.3889,955.4609,577.3889,967.4609,565.3889,955.4609,577.3889,943.4609" style="stroke:#181818;stroke-width:0.5;"/><rect fill="#F1F1F1" height="33.9688" rx="12.5" ry="12.5" style="stroke:#181818;stroke-width:0.5;" width="446.2754" x="354.2512" y="987.4609"/><text fill="#000000" font-family="sans-serif" font-size="12" lengthAdjust="spacing" textLength="426.2754" x="364.2512" y="1008.5996">Permanecer na p&#225;gina de Resposta Semanal (com dados preenchidos)</text><ellipse cx="577.3889" cy="1052.4297" fill="none" rx="11" ry="11" style="stroke:#222222;stroke-width:1;"/><ellipse cx="577.3889" cy="1052.4297" fill="#222222" rx="6" ry="6" style="stroke:#222222;stroke-width:1;"/><line style="stroke:#181818;stroke-width:1;" x1="577.3889" x2="577.3889" y1="30" y2="50"/><polygon fill="#181818" points="573.3889,40,577.3889,50,581.3889,40,577.3889,44" style="stroke:#181818;stroke-width:1;"/><line style="stroke:#181818;stroke-width:1;" x1="577.3889" x2="577.3889" y1="83.9688" y2="103.9688"/><polygon fill="#181818" points="573.3889,93.9688,577.3889,103.9688,581.3889,93.9688,577.3889,97.9688" style="stroke:#181818;stroke-width:1;"/><line style="stroke:#181818;stroke-width:1;" x1="577.3889" x2="577.3889" y1="181.9375" y2="206.3398"/><polygon fill="#181818" points="573.3889,196.3398,577.3889,206.3398,581.3889,196.3398,577.3889,200.3398" style="stroke:#181818;stroke-width:1;"/><line style="stroke:#181818;stroke-width:1;" x1="674.7786" x2="686.7786" y1="169.9375" y2="169.9375"/><polygon fill="#181818" points="682.7786,213.3242,686.7786,223.3242,690.7786,213.3242,686.7786,217.3242" style="stroke:#181818;stroke-width:1;"/><line style="stroke:#181818;stroke-width:1;" x1="686.7786" x2="686.7786" y1="169.9375" y2="272.3086"/><line style="stroke:#181818;stroke-width:1;" x1="686.7786" x2="589.3889" y1="272.3086" y2="272.3086"/><polygon fill="#181818" points="599.3889,268.3086,589.3889,272.3086,599.3889,276.3086,595.3889,272.3086" style="stroke:#181818;stroke-width:1;"/><line style="stroke:#181818;stroke-width:1;" x1="577.3889" x2="577.3889" y1="240.3086" y2="260.3086"/><polygon fill="#181818" points="573.3889,250.3086,577.3889,260.3086,581.3889,250.3086,577.3889,254.3086" style="stroke:#181818;stroke-width:1;"/><line style="stroke:#181818;stroke-width:1;" x1="577.3889" x2="577.3889" y1="137.9375" y2="157.9375"/><polygon fill="#181818" points="573.3889,147.9375,577.3889,157.9375,581.3889,147.9375,577.3889,151.9375" style="stroke:#181818;stroke-width:1;"/><line style="stroke:#181818;stroke-width:1;" x1="577.3889" x2="577.3889" y1="284.3086" y2="304.3086"/><polygon fill="#181818" points="573.3889,294.3086,577.3889,304.3086,581.3889,294.3086,577.3889,298.3086" style="stroke:#181818;stroke-width:1;"/><line style="stroke:#181818;stroke-width:1;" x1="369.8765" x2="369.8765" y1="426.2461" y2="446.2461"/><polygon fill="#181818" points="365.8765,436.2461,369.8765,446.2461,373.8765,436.2461,369.8765,440.2461" style="stroke:#181818;stroke-width:1;"/><line style="stroke:#181818;stroke-width:1;" x1="205.4619" x2="205.4619" y1="670.5547" y2="705.5547"/><polygon fill="#181818" points="201.4619,695.5547,205.4619,705.5547,209.4619,695.5547,205.4619,699.5547" style="stroke:#181818;stroke-width:1;"/><line style="stroke:#181818;stroke-width:1;" x1="205.4619" x2="205.4619" y1="612.1836" y2="636.5859"/><polygon fill="#181818" points="201.4619,626.5859,205.4619,636.5859,209.4619,626.5859,205.4619,630.5859" style="stroke:#181818;stroke-width:1;"/><line style="stroke:#181818;stroke-width:1;" x1="261.2712" x2="365.9609" y1="600.1836" y2="600.1836"/><polygon fill="#181818" points="361.9609,678.0547,365.9609,688.0547,369.9609,678.0547,365.9609,682.0547" style="stroke:#181818;stroke-width:1;"/><line style="stroke:#181818;stroke-width:1;" x1="365.9609" x2="365.9609" y1="600.1836" y2="771.5234"/><line style="stroke:#181818;stroke-width:1;" x1="365.9609" x2="217.4619" y1="771.5234" y2="771.5234"/><polygon fill="#181818" points="227.4619,767.5234,217.4619,771.5234,227.4619,775.5234,223.4619,771.5234" style="stroke:#181818;stroke-width:1;"/><line style="stroke:#181818;stroke-width:1;" x1="205.4619" x2="205.4619" y1="739.5234" y2="759.5234"/><polygon fill="#181818" points="201.4619,749.5234,205.4619,759.5234,209.4619,749.5234,205.4619,753.5234" style="stroke:#181818;stroke-width:1;"/><line style="stroke:#181818;stroke-width:1;" x1="205.4619" x2="205.4619" y1="568.1836" y2="588.1836"/><polygon fill="#181818" points="201.4619,578.1836,205.4619,588.1836,209.4619,578.1836,205.4619,582.1836" style="stroke:#181818;stroke-width:1;"/><line style="stroke:#181818;stroke-width:1;" x1="205.4619" x2="205.4619" y1="783.5234" y2="803.5234"/><polygon fill="#181818" points="201.4619,793.5234,205.4619,803.5234,209.4619,793.5234,205.4619,797.5234" style="stroke:#181818;stroke-width:1;"/><line style="stroke:#181818;stroke-width:1;" x1="205.4619" x2="205.4619" y1="837.4922" y2="857.4922"/><polygon fill="#181818" points="201.4619,847.4922,205.4619,857.4922,209.4619,847.4922,205.4619,851.4922" style="stroke:#181818;stroke-width:1;"/><line style="stroke:#181818;stroke-width:1;" x1="205.4619" x2="205.4619" y1="891.4609" y2="911.4609"/><polygon fill="#181818" points="201.4619,901.4609,205.4619,911.4609,209.4619,901.4609,205.4619,905.4609" style="stroke:#181818;stroke-width:1;"/><line style="stroke:#181818;stroke-width:1;" x1="534.291" x2="534.291" y1="568.1836" y2="588.1836"/><polygon fill="#181818" points="530.291,578.1836,534.291,588.1836,538.291,578.1836,534.291,582.1836" style="stroke:#181818;stroke-width:1;"/><line style="stroke:#181818;stroke-width:1;" x1="316.4788" x2="205.4619" y1="512.2148" y2="512.2148"/><line style="stroke:#181818;stroke-width:1;" x1="205.4619" x2="205.4619" y1="512.2148" y2="534.2148"/><polygon fill="#181818" points="201.4619,524.2148,205.4619,534.2148,209.4619,524.2148,205.4619,528.2148" style="stroke:#181818;stroke-width:1;"/><line style="stroke:#181818;stroke-width:1;" x1="423.2742" x2="534.291" y1="512.2148" y2="512.2148"/><line style="stroke:#181818;stroke-width:1;" x1="534.291" x2="534.291" y1="512.2148" y2="534.2148"/><polygon fill="#181818" points="530.291,524.2148,534.291,534.2148,538.291,524.2148,534.291,528.2148" style="stroke:#181818;stroke-width:1;"/><line style="stroke:#181818;stroke-width:1;" x1="534.291" x2="534.291" y1="622.1523" y2="955.4609"/><line style="stroke:#181818;stroke-width:1;" x1="534.291" x2="565.3889" y1="955.4609" y2="955.4609"/><polygon fill="#181818" points="555.3889,951.4609,565.3889,955.4609,555.3889,959.4609,559.3889,955.4609" style="stroke:#181818;stroke-width:1;"/><line style="stroke:#181818;stroke-width:1;" x1="369.8765" x2="369.8765" y1="480.2148" y2="500.2148"/><polygon fill="#181818" points="365.8765,490.2148,369.8765,500.2148,373.8765,490.2148,369.8765,494.2148" style="stroke:#181818;stroke-width:1;"/><line style="stroke:#181818;stroke-width:1;" x1="479.2285" x2="369.8765" y1="370.2773" y2="370.2773"/><line style="stroke:#181818;stroke-width:1;" x1="369.8765" x2="369.8765" y1="370.2773" y2="392.2773"/><polygon fill="#181818" points="365.8765,382.2773,369.8765,392.2773,373.8765,382.2773,369.8765,386.2773" style="stroke:#181818;stroke-width:1;"/><line style="stroke:#181818;stroke-width:1;" x1="675.5493" x2="784.9014" y1="370.2773" y2="370.2773"/><line style="stroke:#181818;stroke-width:1;" x1="784.9014" x2="784.9014" y1="370.2773" y2="392.2773"/><polygon fill="#181818" points="780.9014,382.2773,784.9014,392.2773,788.9014,382.2773,784.9014,386.2773" style="stroke:#181818;stroke-width:1;"/><line style="stroke:#181818;stroke-width:1;" x1="784.9014" x2="784.9014" y1="426.2461" y2="955.4609"/><line style="stroke:#181818;stroke-width:1;" x1="784.9014" x2="589.3889" y1="955.4609" y2="955.4609"/><polygon fill="#181818" points="599.3889,951.4609,589.3889,955.4609,599.3889,959.4609,595.3889,955.4609" style="stroke:#181818;stroke-width:1;"/><line style="stroke:#181818;stroke-width:1;" x1="577.3889" x2="577.3889" y1="338.2773" y2="358.2773"/><polygon fill="#181818" points="573.3889,348.2773,577.3889,358.2773,581.3889,348.2773,577.3889,352.2773" style="stroke:#181818;stroke-width:1;"/><line style="stroke:#181818;stroke-width:1;" x1="577.3889" x2="577.3889" y1="967.4609" y2="987.4609"/><polygon fill="#181818" points="573.3889,977.4609,577.3889,987.4609,581.3889,977.4609,577.3889,981.4609" style="stroke:#181818;stroke-width:1;"/><line style="stroke:#181818;stroke-width:1;" x1="577.3889" x2="577.3889" y1="1021.4297" y2="1041.4297"/><polygon fill="#181818" points="573.3889,1031.4297,577.3889,1041.4297,581.3889,1031.4297,577.3889,1035.4297" style="stroke:#181818;stroke-width:1;"/><!--SRC=[VLD1Rjim4Bph5TkS9A3D0-n3aROfSYg2-0KRQkqGbRZ2aXRyd1evv27wM8QcPRiDwej0Q8SpixFBcDXILItkdCJ8HiEqt_Z0r0ezIHmq9gQLz1ouMrQBHnC9xaMC7FSeKgkqLkkttRGthrGdsINzJ552yZq-E4jojysogloQwhiWEuZudZSIOXOPJ3S6QVtQK7gHGFNAzqsrM4adpci0MeZ_khQi9BH-3TFVE-yoeAUR-p1w76VFDqV17zp2fUHYFWniJC_iVeFX7y5lvI-PE7aMQW_uMcPHT722ZDpvbWjaUI4pJdiKDFw7EN8tClYFgSQIAWM5e-2qC3qmhCwYLudc474_YeqGjWkFZ4ZTcOccFsVbis89ygBtf8RXnstU1jGNFqr3oYNPUQI2aKRm8U_JSfHicPpsyxrFI3yc7Ihfeb3zQthLvgE8c6dUW9Bcz0RK5K40yuNPyfcPlj3zaGaMjW4RSU1gFd392OPrEgZDU_GeXbbWy4OmTkK9K9tRBBinbBUG1vxNEpVy3W00]--></g></svg>