<svg xmlns="http://www.w3.org/2000/svg" xmlns:xlink="http://www.w3.org/1999/xlink" contentStyleType="text/css" data-diagram-type="CLASS" height="1729px" preserveAspectRatio="none" style="width:902px;height:1729px;background:#FFFFFF;" version="1.1" viewBox="0 0 902 1729" width="902px" zoomAndPan="magnify"><defs/><g><!--class User--><g class="entity" data-entity="User" data-source-line="3" data-uid="ent0002" id="entity_User"><rect fill="#F1F1F1" height="259.8594" rx="2.5" ry="2.5" style="stroke:#181818;stroke-width:0.5;" width="202.1211" x="507.32" y="7"/><ellipse cx="588.1755" cy="23" fill="#ADD1B2" rx="11" ry="11" style="stroke:#181818;stroke-width:1;"/><path d="M591.1442,28.6406 Q590.5661,28.9375 589.9255,29.0781 Q589.2848,29.2344 588.5817,29.2344 Q586.0817,29.2344 584.7536,27.5938 Q583.4411,25.9375 583.4411,22.8125 Q583.4411,19.6875 584.7536,18.0313 Q586.0817,16.375 588.5817,16.375 Q589.2848,16.375 589.9255,16.5313 Q590.5817,16.6875 591.1442,16.9844 L591.1442,19.7031 Q590.5192,19.125 589.9255,18.8594 Q589.3317,18.5781 588.7067,18.5781 Q587.363,18.5781 586.6755,19.6563 Q585.988,20.7188 585.988,22.8125 Q585.988,24.9063 586.6755,25.9844 Q587.363,27.0469 588.7067,27.0469 Q589.3317,27.0469 589.9255,26.7813 Q590.5192,26.5 591.1442,25.9219 L591.1442,28.6406 Z " fill="#000000"/><text fill="#000000" font-family="sans-serif" font-size="14" lengthAdjust="spacing" textLength="31.9102" x="608.6755" y="27.8467">User</text><line style="stroke:#181818;stroke-width:0.5;" x1="508.32" x2="708.4411" y1="39" y2="39"/><text fill="#000000" font-family="sans-serif" font-size="14" lengthAdjust="spacing" textLength="82.6396" x="513.32" y="55.9951">+id: SERIAL</text><text fill="#000000" font-family="sans-serif" font-size="14" lengthAdjust="spacing" textLength="127.9961" x="513.32" y="72.292">+email: VARCHAR</text><text fill="#000000" font-family="sans-serif" font-size="14" lengthAdjust="spacing" textLength="156.0986" x="513.32" y="88.5889">#password: VARCHAR</text><text fill="#000000" font-family="sans-serif" font-size="14" lengthAdjust="spacing" textLength="129.0898" x="513.32" y="104.8857">+name: VARCHAR</text><text fill="#000000" font-family="sans-serif" font-size="14" lengthAdjust="spacing" textLength="190.1211" x="513.32" y="121.1826">+profile_picture: VARCHAR</text><text fill="#000000" font-family="sans-serif" font-size="14" lengthAdjust="spacing" textLength="158.1973" x="513.32" y="137.4795">+user_type: VARCHAR</text><text fill="#000000" font-family="sans-serif" font-size="14" lengthAdjust="spacing" textLength="176.7432" x="513.32" y="153.7764">+created_at: TIMESTAMP</text><text fill="#000000" font-family="sans-serif" font-size="14" lengthAdjust="spacing" textLength="181.3232" x="513.32" y="170.0732">+updated_at: TIMESTAMP</text><line style="stroke:#181818;stroke-width:1;" x1="508.32" x2="708.4411" y1="177.375" y2="177.375"/><text fill="#000000" font-family="sans-serif" font-size="14" lengthAdjust="spacing" textLength="67.4023" x="513.32" y="194.3701">+create()</text><text fill="#000000" font-family="sans-serif" font-size="14" lengthAdjust="spacing" textLength="105.9639" x="513.32" y="210.667">+findByEmail()</text><text fill="#000000" font-family="sans-serif" font-size="14" lengthAdjust="spacing" textLength="80.1377" x="513.32" y="226.9639">+findById()</text><text fill="#000000" font-family="sans-serif" font-size="14" lengthAdjust="spacing" textLength="71.9824" x="513.32" y="243.2607">+update()</text><text fill="#000000" font-family="sans-serif" font-size="14" lengthAdjust="spacing" textLength="128.6797" x="513.32" y="259.5576">+verifyPassword()</text></g><!--class Instructor--><g class="entity" data-entity="Instructor" data-source-line="20" data-uid="ent0003" id="entity_Instructor"><rect fill="#F1F1F1" height="227.2656" rx="2.5" ry="2.5" style="stroke:#181818;stroke-width:0.5;" width="193.3232" x="332.72" y="343.86"/><ellipse cx="391.1707" cy="359.86" fill="#ADD1B2" rx="11" ry="11" style="stroke:#181818;stroke-width:1;"/><path d="M394.1394,365.5006 Q393.5613,365.7975 392.9207,365.9381 Q392.2801,366.0944 391.5769,366.0944 Q389.0769,366.0944 387.7488,364.4537 Q386.4363,362.7975 386.4363,359.6725 Q386.4363,356.5475 387.7488,354.8912 Q389.0769,353.235 391.5769,353.235 Q392.2801,353.235 392.9207,353.3912 Q393.5769,353.5475 394.1394,353.8444 L394.1394,356.5631 Q393.5144,355.985 392.9207,355.7194 Q392.3269,355.4381 391.7019,355.4381 Q390.3582,355.4381 389.6707,356.5162 Q388.9832,357.5787 388.9832,359.6725 Q388.9832,361.7662 389.6707,362.8444 Q390.3582,363.9069 391.7019,363.9069 Q392.3269,363.9069 392.9207,363.6412 Q393.5144,363.36 394.1394,362.7819 L394.1394,365.5006 Z " fill="#000000"/><text fill="#000000" font-family="sans-serif" font-size="14" lengthAdjust="spacing" textLength="67.9219" x="411.6707" y="364.7067">Instructor</text><line style="stroke:#181818;stroke-width:0.5;" x1="333.72" x2="525.0432" y1="375.86" y2="375.86"/><text fill="#000000" font-family="sans-serif" font-size="14" lengthAdjust="spacing" textLength="82.6396" x="338.72" y="392.8551">+id: SERIAL</text><text fill="#000000" font-family="sans-serif" font-size="14" lengthAdjust="spacing" textLength="171.4453" x="338.72" y="409.152">+user_id: INTEGER &#171;FK&#187;</text><text fill="#000000" font-family="sans-serif" font-size="14" lengthAdjust="spacing" textLength="152.0107" x="338.72" y="425.4489">+specialty: VARCHAR</text><text fill="#000000" font-family="sans-serif" font-size="14" lengthAdjust="spacing" textLength="77.7793" x="338.72" y="441.7457">+bio: TEXT</text><text fill="#000000" font-family="sans-serif" font-size="14" lengthAdjust="spacing" textLength="176.7432" x="338.72" y="458.0426">+created_at: TIMESTAMP</text><text fill="#000000" font-family="sans-serif" font-size="14" lengthAdjust="spacing" textLength="181.3232" x="338.72" y="474.3395">+updated_at: TIMESTAMP</text><line style="stroke:#181818;stroke-width:1;" x1="333.72" x2="525.0432" y1="481.6412" y2="481.6412"/><text fill="#000000" font-family="sans-serif" font-size="14" lengthAdjust="spacing" textLength="67.4023" x="338.72" y="498.6364">+create()</text><text fill="#000000" font-family="sans-serif" font-size="14" lengthAdjust="spacing" textLength="112.0479" x="338.72" y="514.9332">+findByUserId()</text><text fill="#000000" font-family="sans-serif" font-size="14" lengthAdjust="spacing" textLength="71.9824" x="338.72" y="531.2301">+update()</text><text fill="#000000" font-family="sans-serif" font-size="14" lengthAdjust="spacing" textLength="108.0488" x="338.72" y="547.527">+getStudents()</text><text fill="#000000" font-family="sans-serif" font-size="14" lengthAdjust="spacing" textLength="102.5254" x="338.72" y="563.8239">+linkStudent()</text></g><!--class Student--><g class="entity" data-entity="Student" data-source-line="35" data-uid="ent0004" id="entity_Student"><rect fill="#F1F1F1" height="259.8594" rx="2.5" ry="2.5" style="stroke:#181818;stroke-width:0.5;" width="198.6211" x="285.07" y="870.91"/><ellipse cx="352.5749" cy="886.91" fill="#ADD1B2" rx="11" ry="11" style="stroke:#181818;stroke-width:1;"/><path d="M355.5436,892.5506 Q354.9655,892.8475 354.3249,892.9881 Q353.6843,893.1444 352.9811,893.1444 Q350.4811,893.1444 349.153,891.5038 Q347.8405,889.8475 347.8405,886.7225 Q347.8405,883.5975 349.153,881.9413 Q350.4811,880.285 352.9811,880.285 Q353.6843,880.285 354.3249,880.4413 Q354.9811,880.5975 355.5436,880.8944 L355.5436,883.6131 Q354.9186,883.035 354.3249,882.7694 Q353.7311,882.4881 353.1061,882.4881 Q351.7624,882.4881 351.0749,883.5663 Q350.3874,884.6288 350.3874,886.7225 Q350.3874,888.8163 351.0749,889.8944 Q351.7624,890.9569 353.1061,890.9569 Q353.7311,890.9569 354.3249,890.6913 Q354.9186,890.41 355.5436,889.8319 L355.5436,892.5506 Z " fill="#000000"/><text fill="#000000" font-family="sans-serif" font-size="14" lengthAdjust="spacing" textLength="55.1113" x="373.0749" y="891.7567">Student</text><line style="stroke:#181818;stroke-width:0.5;" x1="286.07" x2="482.6911" y1="902.91" y2="902.91"/><text fill="#000000" font-family="sans-serif" font-size="14" lengthAdjust="spacing" textLength="82.6396" x="291.07" y="919.9051">+id: SERIAL</text><text fill="#000000" font-family="sans-serif" font-size="14" lengthAdjust="spacing" textLength="171.4453" x="291.07" y="936.202">+user_id: INTEGER &#171;FK&#187;</text><text fill="#000000" font-family="sans-serif" font-size="14" lengthAdjust="spacing" textLength="130.1152" x="291.07" y="952.4989">+birth_date: DATE</text><text fill="#000000" font-family="sans-serif" font-size="14" lengthAdjust="spacing" textLength="133.1982" x="291.07" y="968.7957">+phone: VARCHAR</text><text fill="#000000" font-family="sans-serif" font-size="14" lengthAdjust="spacing" textLength="176.7432" x="291.07" y="985.0926">+created_at: TIMESTAMP</text><text fill="#000000" font-family="sans-serif" font-size="14" lengthAdjust="spacing" textLength="181.3232" x="291.07" y="1001.3895">+updated_at: TIMESTAMP</text><line style="stroke:#181818;stroke-width:1;" x1="286.07" x2="482.6911" y1="1008.6913" y2="1008.6913"/><text fill="#000000" font-family="sans-serif" font-size="14" lengthAdjust="spacing" textLength="67.4023" x="291.07" y="1025.6864">+create()</text><text fill="#000000" font-family="sans-serif" font-size="14" lengthAdjust="spacing" textLength="112.0479" x="291.07" y="1041.9832">+findByUserId()</text><text fill="#000000" font-family="sans-serif" font-size="14" lengthAdjust="spacing" textLength="71.9824" x="291.07" y="1058.2801">+update()</text><text fill="#000000" font-family="sans-serif" font-size="14" lengthAdjust="spacing" textLength="120.8594" x="291.07" y="1074.577">+getInstructors()</text><text fill="#000000" font-family="sans-serif" font-size="14" lengthAdjust="spacing" textLength="122.2744" x="291.07" y="1090.8739">+getAnamnesis()</text><text fill="#000000" font-family="sans-serif" font-size="14" lengthAdjust="spacing" textLength="172.1563" x="291.07" y="1107.1707">+getWeeklyResponses()</text><text fill="#000000" font-family="sans-serif" font-size="14" lengthAdjust="spacing" textLength="186.6211" x="291.07" y="1123.4676">+createWeeklyResponse()</text></g><!--class InstructorStudent--><g class="entity" data-entity="InstructorStudent" data-source-line="52" data-uid="ent0005" id="entity_InstructorStudent"><rect fill="#F1F1F1" height="145.7813" rx="2.5" ry="2.5" style="stroke:#181818;stroke-width:0.5;" width="220.5918" x="332.09" y="648.12"/><ellipse cx="376.6193" cy="664.12" fill="#ADD1B2" rx="11" ry="11" style="stroke:#181818;stroke-width:1;"/><path d="M379.588,669.7606 Q379.0099,670.0575 378.3693,670.1981 Q377.7287,670.3544 377.0255,670.3544 Q374.5255,670.3544 373.1974,668.7137 Q371.8849,667.0575 371.8849,663.9325 Q371.8849,660.8075 373.1974,659.1512 Q374.5255,657.495 377.0255,657.495 Q377.7287,657.495 378.3693,657.6512 Q379.0255,657.8075 379.588,658.1044 L379.588,660.8231 Q378.963,660.245 378.3693,659.9794 Q377.7755,659.6981 377.1505,659.6981 Q375.8068,659.6981 375.1193,660.7762 Q374.4318,661.8387 374.4318,663.9325 Q374.4318,666.0262 375.1193,667.1044 Q375.8068,668.1669 377.1505,668.1669 Q377.7755,668.1669 378.3693,667.9012 Q378.963,667.62 379.588,667.0419 L379.588,669.7606 Z " fill="#000000"/><text fill="#000000" font-family="sans-serif" font-size="14" lengthAdjust="spacing" textLength="123.0332" x="397.1193" y="668.9667">InstructorStudent</text><line style="stroke:#181818;stroke-width:0.5;" x1="333.09" x2="551.6818" y1="680.12" y2="680.12"/><text fill="#000000" font-family="sans-serif" font-size="14" lengthAdjust="spacing" textLength="82.6396" x="338.09" y="697.1151">+id: SERIAL</text><text fill="#000000" font-family="sans-serif" font-size="14" lengthAdjust="spacing" textLength="208.5918" x="338.09" y="713.412">+instructor_id: INTEGER &#171;FK&#187;</text><text fill="#000000" font-family="sans-serif" font-size="14" lengthAdjust="spacing" textLength="194.4277" x="338.09" y="729.7089">+student_id: INTEGER &#171;FK&#187;</text><text fill="#000000" font-family="sans-serif" font-size="14" lengthAdjust="spacing" textLength="132.4053" x="338.09" y="746.0057">+status: VARCHAR</text><text fill="#000000" font-family="sans-serif" font-size="14" lengthAdjust="spacing" textLength="176.7432" x="338.09" y="762.3026">+created_at: TIMESTAMP</text><text fill="#000000" font-family="sans-serif" font-size="14" lengthAdjust="spacing" textLength="181.3232" x="338.09" y="778.5995">+updated_at: TIMESTAMP</text><line style="stroke:#181818;stroke-width:0.5;" x1="333.09" x2="551.6818" y1="785.9012" y2="785.9012"/></g><!--class Anamnesis--><g class="entity" data-entity="Anamnesis" data-source-line="61" data-uid="ent0006" id="entity_Anamnesis"><rect fill="#F1F1F1" height="259.8594" rx="2.5" ry="2.5" style="stroke:#181818;stroke-width:0.5;" width="206.4277" x="281.17" y="1207.77"/><ellipse cx="341.8184" cy="1223.77" fill="#ADD1B2" rx="11" ry="11" style="stroke:#181818;stroke-width:1;"/><path d="M344.7872,1229.4106 Q344.2091,1229.7075 343.5684,1229.8481 Q342.9278,1230.0044 342.2247,1230.0044 Q339.7247,1230.0044 338.3966,1228.3638 Q337.0841,1226.7075 337.0841,1223.5825 Q337.0841,1220.4575 338.3966,1218.8013 Q339.7247,1217.145 342.2247,1217.145 Q342.9278,1217.145 343.5684,1217.3013 Q344.2247,1217.4575 344.7872,1217.7544 L344.7872,1220.4731 Q344.1622,1219.895 343.5684,1219.6294 Q342.9747,1219.3481 342.3497,1219.3481 Q341.0059,1219.3481 340.3184,1220.4263 Q339.6309,1221.4888 339.6309,1223.5825 Q339.6309,1225.6763 340.3184,1226.7544 Q341.0059,1227.8169 342.3497,1227.8169 Q342.9747,1227.8169 343.5684,1227.5513 Q344.1622,1227.27 344.7872,1226.6919 L344.7872,1229.4106 Z " fill="#000000"/><text fill="#000000" font-family="sans-serif" font-size="14" lengthAdjust="spacing" textLength="76.6309" x="362.3184" y="1228.6167">Anamnesis</text><line style="stroke:#181818;stroke-width:0.5;" x1="282.17" x2="486.5977" y1="1239.77" y2="1239.77"/><text fill="#000000" font-family="sans-serif" font-size="14" lengthAdjust="spacing" textLength="82.6396" x="287.17" y="1256.7651">+id: SERIAL</text><text fill="#000000" font-family="sans-serif" font-size="14" lengthAdjust="spacing" textLength="194.4277" x="287.17" y="1273.062">+student_id: INTEGER &#171;FK&#187;</text><text fill="#000000" font-family="sans-serif" font-size="14" lengthAdjust="spacing" textLength="108.3975" x="287.17" y="1289.3589">+age: INTEGER</text><text fill="#000000" font-family="sans-serif" font-size="14" lengthAdjust="spacing" textLength="131.0859" x="287.17" y="1305.6557">+weight: DECIMAL</text><text fill="#000000" font-family="sans-serif" font-size="14" lengthAdjust="spacing" textLength="128.5088" x="287.17" y="1321.9526">+height: DECIMAL</text><text fill="#000000" font-family="sans-serif" font-size="14" lengthAdjust="spacing" textLength="166.7832" x="287.17" y="1338.2495">+medical_history: TEXT</text><text fill="#000000" font-family="sans-serif" font-size="14" lengthAdjust="spacing" textLength="127.6611" x="287.17" y="1354.5464">+objectives: TEXT</text><text fill="#000000" font-family="sans-serif" font-size="14" lengthAdjust="spacing" textLength="13.3506" x="287.17" y="1370.8432">...</text><text fill="#000000" font-family="sans-serif" font-size="14" lengthAdjust="spacing" textLength="176.7432" x="287.17" y="1387.1401">+created_at: TIMESTAMP</text><text fill="#000000" font-family="sans-serif" font-size="14" lengthAdjust="spacing" textLength="181.3232" x="287.17" y="1403.437">+updated_at: TIMESTAMP</text><line style="stroke:#181818;stroke-width:1;" x1="282.17" x2="486.5977" y1="1410.7388" y2="1410.7388"/><text fill="#000000" font-family="sans-serif" font-size="14" lengthAdjust="spacing" textLength="67.4023" x="287.17" y="1427.7339">+create()</text><text fill="#000000" font-family="sans-serif" font-size="14" lengthAdjust="spacing" textLength="135.249" x="287.17" y="1444.0307">+findByStudentId()</text><text fill="#000000" font-family="sans-serif" font-size="14" lengthAdjust="spacing" textLength="71.9824" x="287.17" y="1460.3276">+update()</text></g><!--class WeeklyResponse--><g class="entity" data-entity="WeeklyResponse" data-source-line="78" data-uid="ent0007" id="entity_WeeklyResponse"><rect fill="#F1F1F1" height="210.9688" rx="2.5" ry="2.5" style="stroke:#181818;stroke-width:0.5;" width="206.4277" x="40.17" y="1232.21"/><ellipse cx="80.014" cy="1248.21" fill="#ADD1B2" rx="11" ry="11" style="stroke:#181818;stroke-width:1;"/><path d="M82.9828,1253.8506 Q82.4047,1254.1475 81.764,1254.2881 Q81.1234,1254.4444 80.4203,1254.4444 Q77.9203,1254.4444 76.5922,1252.8038 Q75.2797,1251.1475 75.2797,1248.0225 Q75.2797,1244.8975 76.5922,1243.2413 Q77.9203,1241.585 80.4203,1241.585 Q81.1234,1241.585 81.764,1241.7413 Q82.4203,1241.8975 82.9828,1242.1944 L82.9828,1244.9131 Q82.3578,1244.335 81.764,1244.0694 Q81.1703,1243.7881 80.5453,1243.7881 Q79.2015,1243.7881 78.514,1244.8663 Q77.8265,1245.9288 77.8265,1248.0225 Q77.8265,1250.1163 78.514,1251.1944 Q79.2015,1252.2569 80.5453,1252.2569 Q81.1703,1252.2569 81.764,1251.9913 Q82.3578,1251.71 82.9828,1251.1319 L82.9828,1253.8506 Z " fill="#000000"/><text fill="#000000" font-family="sans-serif" font-size="14" lengthAdjust="spacing" textLength="119.2188" x="99.5349" y="1253.0567">WeeklyResponse</text><line style="stroke:#181818;stroke-width:0.5;" x1="41.17" x2="245.5977" y1="1264.21" y2="1264.21"/><text fill="#000000" font-family="sans-serif" font-size="14" lengthAdjust="spacing" textLength="82.6396" x="46.17" y="1281.2051">+id: SERIAL</text><text fill="#000000" font-family="sans-serif" font-size="14" lengthAdjust="spacing" textLength="194.4277" x="46.17" y="1297.502">+student_id: INTEGER &#171;FK&#187;</text><text fill="#000000" font-family="sans-serif" font-size="14" lengthAdjust="spacing" textLength="180.7422" x="46.17" y="1313.7989">+week_number: INTEGER</text><text fill="#000000" font-family="sans-serif" font-size="14" lengthAdjust="spacing" textLength="155.21" x="46.17" y="1330.0957">+response_text: TEXT</text><text fill="#000000" font-family="sans-serif" font-size="14" lengthAdjust="spacing" textLength="137.0811" x="46.17" y="1346.3926">+feeling: VARCHAR</text><text fill="#000000" font-family="sans-serif" font-size="14" lengthAdjust="spacing" textLength="13.3506" x="46.17" y="1362.6895">...</text><text fill="#000000" font-family="sans-serif" font-size="14" lengthAdjust="spacing" textLength="176.7432" x="46.17" y="1378.9864">+created_at: TIMESTAMP</text><text fill="#000000" font-family="sans-serif" font-size="14" lengthAdjust="spacing" textLength="181.3232" x="46.17" y="1395.2832">+updated_at: TIMESTAMP</text><line style="stroke:#181818;stroke-width:1;" x1="41.17" x2="245.5977" y1="1402.585" y2="1402.585"/><text fill="#000000" font-family="sans-serif" font-size="14" lengthAdjust="spacing" textLength="186.6211" x="46.17" y="1419.5801">+createWeeklyResponse()</text><text fill="#000000" font-family="sans-serif" font-size="14" lengthAdjust="spacing" textLength="153.46" x="46.17" y="1435.877">+addProgressImage()</text></g><!--class ProgressImage--><g class="entity" data-entity="ProgressImage" data-source-line="92" data-uid="ent0008" id="entity_ProgressImage"><rect fill="#F1F1F1" height="113.1875" rx="2.5" ry="2.5" style="stroke:#181818;stroke-width:0.5;" width="272.7637" x="7" y="1577.22"/><ellipse cx="86.9053" cy="1593.22" fill="#ADD1B2" rx="11" ry="11" style="stroke:#181818;stroke-width:1;"/><path d="M89.874,1598.8606 Q89.2959,1599.1575 88.6553,1599.2981 Q88.0146,1599.4544 87.3115,1599.4544 Q84.8115,1599.4544 83.4834,1597.8138 Q82.1709,1596.1575 82.1709,1593.0325 Q82.1709,1589.9075 83.4834,1588.2513 Q84.8115,1586.595 87.3115,1586.595 Q88.0146,1586.595 88.6553,1586.7513 Q89.3115,1586.9075 89.874,1587.2044 L89.874,1589.9231 Q89.249,1589.345 88.6553,1589.0794 Q88.0615,1588.7981 87.4365,1588.7981 Q86.0928,1588.7981 85.4053,1589.8763 Q84.7178,1590.9388 84.7178,1593.0325 Q84.7178,1595.1263 85.4053,1596.2044 Q86.0928,1597.2669 87.4365,1597.2669 Q88.0615,1597.2669 88.6553,1597.0013 Q89.249,1596.72 89.874,1596.1419 L89.874,1598.8606 Z " fill="#000000"/><text fill="#000000" font-family="sans-serif" font-size="14" lengthAdjust="spacing" textLength="104.4531" x="107.4053" y="1598.0667">ProgressImage</text><line style="stroke:#181818;stroke-width:0.5;" x1="8" x2="278.7637" y1="1609.22" y2="1609.22"/><text fill="#000000" font-family="sans-serif" font-size="14" lengthAdjust="spacing" textLength="82.6396" x="13" y="1626.2151">+id: SERIAL</text><text fill="#000000" font-family="sans-serif" font-size="14" lengthAdjust="spacing" textLength="260.7637" x="13" y="1642.512">+weekly_response_id: INTEGER &#171;FK&#187;</text><text fill="#000000" font-family="sans-serif" font-size="14" lengthAdjust="spacing" textLength="171.8213" x="13" y="1658.8089">+image_path: VARCHAR</text><text fill="#000000" font-family="sans-serif" font-size="14" lengthAdjust="spacing" textLength="176.7432" x="13" y="1675.1057">+created_at: TIMESTAMP</text><line style="stroke:#181818;stroke-width:0.5;" x1="8" x2="278.7637" y1="1682.4075" y2="1682.4075"/></g><!--class Conversation--><g class="entity" data-entity="Conversation" data-source-line="99" data-uid="ent0009" id="entity_Conversation"><rect fill="#F1F1F1" height="178.375" rx="2.5" ry="2.5" style="stroke:#181818;stroke-width:0.5;" width="220.5918" x="523.09" y="1248.51"/><ellipse cx="582.8566" cy="1264.51" fill="#ADD1B2" rx="11" ry="11" style="stroke:#181818;stroke-width:1;"/><path d="M585.8254,1270.1506 Q585.2472,1270.4475 584.6066,1270.5881 Q583.966,1270.7444 583.2629,1270.7444 Q580.7629,1270.7444 579.4347,1269.1038 Q578.1222,1267.4475 578.1222,1264.3225 Q578.1222,1261.1975 579.4347,1259.5413 Q580.7629,1257.885 583.2629,1257.885 Q583.966,1257.885 584.6066,1258.0413 Q585.2629,1258.1975 585.8254,1258.4944 L585.8254,1261.2131 Q585.2004,1260.635 584.6066,1260.3694 Q584.0129,1260.0881 583.3879,1260.0881 Q582.0441,1260.0881 581.3566,1261.1663 Q580.6691,1262.2288 580.6691,1264.3225 Q580.6691,1266.4163 581.3566,1267.4944 Q582.0441,1268.5569 583.3879,1268.5569 Q584.0129,1268.5569 584.6066,1268.2913 Q585.2004,1268.01 585.8254,1267.4319 L585.8254,1270.1506 Z " fill="#000000"/><text fill="#000000" font-family="sans-serif" font-size="14" lengthAdjust="spacing" textLength="92.5586" x="603.3566" y="1269.3567">Conversation</text><line style="stroke:#181818;stroke-width:0.5;" x1="524.09" x2="742.6818" y1="1280.51" y2="1280.51"/><text fill="#000000" font-family="sans-serif" font-size="14" lengthAdjust="spacing" textLength="82.6396" x="529.09" y="1297.5051">+id: SERIAL</text><text fill="#000000" font-family="sans-serif" font-size="14" lengthAdjust="spacing" textLength="208.5918" x="529.09" y="1313.802">+instructor_id: INTEGER &#171;FK&#187;</text><text fill="#000000" font-family="sans-serif" font-size="14" lengthAdjust="spacing" textLength="194.4277" x="529.09" y="1330.0989">+student_id: INTEGER &#171;FK&#187;</text><text fill="#000000" font-family="sans-serif" font-size="14" lengthAdjust="spacing" textLength="176.7432" x="529.09" y="1346.3957">+created_at: TIMESTAMP</text><text fill="#000000" font-family="sans-serif" font-size="14" lengthAdjust="spacing" textLength="181.3232" x="529.09" y="1362.6926">+updated_at: TIMESTAMP</text><line style="stroke:#181818;stroke-width:1;" x1="524.09" x2="742.6818" y1="1369.9944" y2="1369.9944"/><text fill="#000000" font-family="sans-serif" font-size="14" lengthAdjust="spacing" textLength="159.9609" x="529.09" y="1386.9895">+createConversation()</text><text fill="#000000" font-family="sans-serif" font-size="14" lengthAdjust="spacing" textLength="141.791" x="529.09" y="1403.2864">+findConversation()</text><text fill="#000000" font-family="sans-serif" font-size="14" lengthAdjust="spacing" textLength="114.2969" x="529.09" y="1419.5832">+getMessages()</text></g><!--class Message--><g class="entity" data-entity="Message" data-source-line="111" data-uid="ent0010" id="entity_Message"><rect fill="#F1F1F1" height="178.375" rx="2.5" ry="2.5" style="stroke:#181818;stroke-width:0.5;" width="243.3896" x="637.69" y="1544.62"/><ellipse cx="724.4551" cy="1560.62" fill="#ADD1B2" rx="11" ry="11" style="stroke:#181818;stroke-width:1;"/><path d="M727.4239,1566.2606 Q726.8458,1566.5575 726.2051,1566.6981 Q725.5645,1566.8544 724.8614,1566.8544 Q722.3614,1566.8544 721.0333,1565.2138 Q719.7208,1563.5575 719.7208,1560.4325 Q719.7208,1557.3075 721.0333,1555.6513 Q722.3614,1553.995 724.8614,1553.995 Q725.5645,1553.995 726.2051,1554.1513 Q726.8614,1554.3075 727.4239,1554.6044 L727.4239,1557.3231 Q726.7989,1556.745 726.2051,1556.4794 Q725.6114,1556.1981 724.9864,1556.1981 Q723.6426,1556.1981 722.9551,1557.2763 Q722.2676,1558.3388 722.2676,1560.4325 Q722.2676,1562.5263 722.9551,1563.6044 Q723.6426,1564.6669 724.9864,1564.6669 Q725.6114,1564.6669 726.2051,1564.4013 Q726.7989,1564.12 727.4239,1563.5419 L727.4239,1566.2606 Z " fill="#000000"/><text fill="#000000" font-family="sans-serif" font-size="14" lengthAdjust="spacing" textLength="61.3594" x="744.9551" y="1565.4667">Message</text><line style="stroke:#181818;stroke-width:0.5;" x1="638.69" x2="880.0796" y1="1576.62" y2="1576.62"/><text fill="#000000" font-family="sans-serif" font-size="14" lengthAdjust="spacing" textLength="82.6396" x="643.69" y="1593.6151">+id: SERIAL</text><text fill="#000000" font-family="sans-serif" font-size="14" lengthAdjust="spacing" textLength="231.3896" x="643.69" y="1609.912">+conversation_id: INTEGER &#171;FK&#187;</text><text fill="#000000" font-family="sans-serif" font-size="14" lengthAdjust="spacing" textLength="188.9453" x="643.69" y="1626.2089">+sender_id: INTEGER &#171;FK&#187;</text><text fill="#000000" font-family="sans-serif" font-size="14" lengthAdjust="spacing" textLength="154.2324" x="643.69" y="1642.5057">+message_text: TEXT</text><text fill="#000000" font-family="sans-serif" font-size="14" lengthAdjust="spacing" textLength="139.2549" x="643.69" y="1658.8026">+is_read: BOOLEAN</text><text fill="#000000" font-family="sans-serif" font-size="14" lengthAdjust="spacing" textLength="176.7432" x="643.69" y="1675.0995">+created_at: TIMESTAMP</text><line style="stroke:#181818;stroke-width:1;" x1="638.69" x2="880.0796" y1="1682.4013" y2="1682.4013"/><text fill="#000000" font-family="sans-serif" font-size="14" lengthAdjust="spacing" textLength="117.6807" x="643.69" y="1699.3964">+sendMessage()</text><text fill="#000000" font-family="sans-serif" font-size="14" lengthAdjust="spacing" textLength="180.0654" x="643.69" y="1715.6932">+markMessagesAsRead()</text></g><!--class Notification--><g class="entity" data-entity="Notification" data-source-line="123" data-uid="ent0011" id="entity_Notification"><rect fill="#F1F1F1" height="162.0781" rx="2.5" ry="2.5" style="stroke:#181818;stroke-width:0.5;" width="218.3906" x="561.19" y="376.45"/><ellipse cx="625.9708" cy="392.45" fill="#ADD1B2" rx="11" ry="11" style="stroke:#181818;stroke-width:1;"/><path d="M628.9395,398.0906 Q628.3614,398.3875 627.7208,398.5281 Q627.0801,398.6844 626.377,398.6844 Q623.877,398.6844 622.5489,397.0438 Q621.2364,395.3875 621.2364,392.2625 Q621.2364,389.1375 622.5489,387.4813 Q623.877,385.825 626.377,385.825 Q627.0801,385.825 627.7208,385.9813 Q628.377,386.1375 628.9395,386.4344 L628.9395,389.1531 Q628.3145,388.575 627.7208,388.3094 Q627.127,388.0281 626.502,388.0281 Q625.1583,388.0281 624.4708,389.1063 Q623.7833,390.1688 623.7833,392.2625 Q623.7833,394.3563 624.4708,395.4344 Q625.1583,396.4969 626.502,396.4969 Q627.127,396.4969 627.7208,396.2313 Q628.3145,395.95 628.9395,395.3719 L628.9395,398.0906 Z " fill="#000000"/><text fill="#000000" font-family="sans-serif" font-size="14" lengthAdjust="spacing" textLength="80.3291" x="646.4708" y="397.2967">Notification</text><line style="stroke:#181818;stroke-width:0.5;" x1="562.19" x2="778.5806" y1="408.45" y2="408.45"/><text fill="#000000" font-family="sans-serif" font-size="14" lengthAdjust="spacing" textLength="82.6396" x="567.19" y="425.4451">+id: SERIAL</text><text fill="#000000" font-family="sans-serif" font-size="14" lengthAdjust="spacing" textLength="171.4453" x="567.19" y="441.742">+user_id: INTEGER &#171;FK&#187;</text><text fill="#000000" font-family="sans-serif" font-size="14" lengthAdjust="spacing" textLength="116.7578" x="567.19" y="458.0389">+title: VARCHAR</text><text fill="#000000" font-family="sans-serif" font-size="14" lengthAdjust="spacing" textLength="119.3555" x="567.19" y="474.3357">+message: TEXT</text><text fill="#000000" font-family="sans-serif" font-size="14" lengthAdjust="spacing" textLength="139.2549" x="567.19" y="490.6326">+is_read: BOOLEAN</text><text fill="#000000" font-family="sans-serif" font-size="14" lengthAdjust="spacing" textLength="206.3906" x="567.19" y="506.9295">+notification_type: VARCHAR</text><text fill="#000000" font-family="sans-serif" font-size="14" lengthAdjust="spacing" textLength="176.7432" x="567.19" y="523.2264">+created_at: TIMESTAMP</text><line style="stroke:#181818;stroke-width:0.5;" x1="562.19" x2="778.5806" y1="530.5281" y2="530.5281"/></g><!--link User to Instructor--><g class="link" data-entity-1="User" data-entity-2="Instructor" data-source-line="134" data-uid="lnk12" id="link_User_Instructor"><path codeLine="134" d="M535.83,267.04 C521.59,292.4 506.75,318.81 492.83,343.58" fill="none" id="User-Instructor" style="stroke:#181818;stroke-width:1;"/><polygon fill="#000000" points="521.931,309.7856,528.9235,303.3392,523.799,300.4603,521.931,309.7856" style="stroke:#000000;stroke-width:1;"/><text fill="#000000" font-family="sans-serif" font-size="13" lengthAdjust="spacing" textLength="68.4595" x="533.38" y="309.9269">has profile</text><text fill="#000000" font-family="sans-serif" font-size="13" lengthAdjust="spacing" textLength="8.271" x="523.4123" y="287.0663">1</text><text fill="#000000" font-family="sans-serif" font-size="13" lengthAdjust="spacing" textLength="8.271" x="488.6471" y="332.8731">1</text></g><!--link User to Student--><g class="link" data-entity-1="User" data-entity-2="Student" data-source-line="135" data-uid="lnk13" id="link_User_Student"><path codeLine="135" d="M506.85,179.1 C439.19,212.52 355.56,266.82 315.38,343.86 C228.67,510.12 281.12,732.08 330.18,870.45" fill="none" id="User-Student" style="stroke:#181818;stroke-width:1;"/><polygon fill="#000000" points="276.1421,614.5307,281.2289,606.4949,275.5341,605.0396,276.1421,614.5307" style="stroke:#000000;stroke-width:1;"/><text fill="#000000" font-family="sans-serif" font-size="13" lengthAdjust="spacing" textLength="68.4595" x="286.38" y="614.1869">has profile</text><text fill="#000000" font-family="sans-serif" font-size="13" lengthAdjust="spacing" textLength="8.271" x="491.1101" y="178.7179">1</text><text fill="#000000" font-family="sans-serif" font-size="13" lengthAdjust="spacing" textLength="8.271" x="319.0046" y="859.9797">1</text></g><!--link Instructor to InstructorStudent--><g class="link" data-entity-1="Instructor" data-entity-2="InstructorStudent" data-source-line="137" data-uid="lnk14" id="link_Instructor_InstructorStudent"><path codeLine="137" d="M411.35,571.56 C410.8,587.22 411.28,603.09 413.38,618.12 C414.73,627.78 416.76,637.8 419.14,647.63" fill="none" id="Instructor-InstructorStudent" style="stroke:#181818;stroke-width:1;"/><polygon fill="#000000" points="418.8894,614.6604,420.8916,605.363,415.0443,605.9618,418.8894,614.6604" style="stroke:#000000;stroke-width:1;"/><text fill="#000000" font-family="sans-serif" font-size="13" lengthAdjust="spacing" textLength="59.8584" x="427.38" y="614.1869">manages</text><text fill="#000000" font-family="sans-serif" font-size="13" lengthAdjust="spacing" textLength="8.271" x="402.0157" y="591.0389">1</text><text fill="#000000" font-family="sans-serif" font-size="13" lengthAdjust="spacing" textLength="23.0356" x="392.83" y="636.9943">0..*</text></g><!--link InstructorStudent to Instructor--><g class="link" data-entity-1="InstructorStudent" data-entity-2="Instructor" data-source-line="139" data-uid="lnk16" id="link_InstructorStudent_Instructor"><path codeLine="139" d="M487.22,647.8 C492.28,632.7 494.61,616.64 491.38,601.12 C489.35,591.34 486.61,581.41 483.41,571.57" fill="none" id="InstructorStudent-Instructor" style="stroke:#181818;stroke-width:1;"/><text fill="#000000" font-family="sans-serif" font-size="13" lengthAdjust="spacing" textLength="6.5" x="485.3627" y="636.9285">*</text><text fill="#000000" font-family="sans-serif" font-size="13" lengthAdjust="spacing" textLength="8.271" x="478.4669" y="591.0496">1</text></g><!--link Student to InstructorStudent--><g class="link" data-entity-1="Student" data-entity-2="InstructorStudent" data-source-line="138" data-uid="lnk15" id="link_Student_InstructorStudent"><path codeLine="138" d="M411.36,870.61 C416.84,844.37 422.41,817.68 427.29,794.28" fill="none" id="Student-InstructorStudent" style="stroke:#181818;stroke-width:1;"/><polygon fill="#000000" points="426.4015,827.5819,421.6767,835.8358,427.4305,837.0366,426.4015,827.5819" style="stroke:#000000;stroke-width:1;"/><text fill="#000000" font-family="sans-serif" font-size="13" lengthAdjust="spacing" textLength="95.9321" x="434.38" y="836.9769">is managed by</text><text fill="#000000" font-family="sans-serif" font-size="13" lengthAdjust="spacing" textLength="8.271" x="404.6963" y="859.7182">1</text><text fill="#000000" font-family="sans-serif" font-size="13" lengthAdjust="spacing" textLength="23.0356" x="426.949" y="814.0516">0..*</text></g><!--link InstructorStudent to Student--><g class="link" data-entity-1="InstructorStudent" data-entity-2="Student" data-source-line="140" data-uid="lnk17" id="link_InstructorStudent_Student"><path codeLine="140" d="M419,794.31 C416.21,804.2 413.58,814.26 411.38,823.91 C407.95,838.97 404.83,854.86 402.03,870.68" fill="none" id="InstructorStudent-Student" style="stroke:#181818;stroke-width:1;"/><text fill="#000000" font-family="sans-serif" font-size="13" lengthAdjust="spacing" textLength="6.5" x="410.5089" y="814.0844">*</text><text fill="#000000" font-family="sans-serif" font-size="13" lengthAdjust="spacing" textLength="8.271" x="394.8269" y="859.7923">1</text></g><!--link Student to Anamnesis--><g class="link" data-entity-1="Student" data-entity-2="Anamnesis" data-source-line="142" data-uid="lnk18" id="link_Student_Anamnesis"><path codeLine="142" d="M384.38,1130.82 C384.38,1155.97 384.38,1182.34 384.38,1207.5" fill="none" id="Student-Anamnesis" style="stroke:#181818;stroke-width:1;"/><polygon fill="#000000" points="389.38,1174.3364,392.3189,1165.2913,386.4411,1165.2913,389.38,1174.3364" style="stroke:#000000;stroke-width:1;"/><text fill="#000000" font-family="sans-serif" font-size="13" lengthAdjust="spacing" textLength="22.9785" x="398.38" y="1173.8369">has</text><text fill="#000000" font-family="sans-serif" font-size="13" lengthAdjust="spacing" textLength="8.271" x="376.1566" y="1150.8388">1</text><text fill="#000000" font-family="sans-serif" font-size="13" lengthAdjust="spacing" textLength="24.8066" x="359.7093" y="1196.61">0..1</text></g><!--link Student to WeeklyResponse--><g class="link" data-entity-1="Student" data-entity-2="WeeklyResponse" data-source-line="143" data-uid="lnk19" id="link_Student_WeeklyResponse"><path codeLine="143" d="M291.55,1130.82 C267.48,1164.26 241.86,1199.86 218.81,1231.89" fill="none" id="Student-WeeklyResponse" style="stroke:#181818;stroke-width:1;"/><polygon fill="#000000" points="266.4593,1173.3947,274.1283,1167.77,269.3575,1164.3365,266.4593,1173.3947" style="stroke:#000000;stroke-width:1;"/><text fill="#000000" font-family="sans-serif" font-size="13" lengthAdjust="spacing" textLength="51.4097" x="278.38" y="1173.8369">submits</text><text fill="#000000" font-family="sans-serif" font-size="13" lengthAdjust="spacing" textLength="8.271" x="277.9598" y="1150.8388">1</text><text fill="#000000" font-family="sans-serif" font-size="13" lengthAdjust="spacing" textLength="23.0356" x="200.3061" y="1220.9948">0..*</text></g><!--link WeeklyResponse to ProgressImage--><g class="link" data-entity-1="WeeklyResponse" data-entity-2="ProgressImage" data-source-line="144" data-uid="lnk20" id="link_WeeklyResponse_ProgressImage"><path codeLine="144" d="M143.38,1443.63 C143.38,1488.67 143.38,1539.46 143.38,1577.07" fill="none" id="WeeklyResponse-ProgressImage" style="stroke:#181818;stroke-width:1;"/><polygon fill="#000000" points="148.38,1511.1864,151.3189,1502.1413,145.4411,1502.1413,148.38,1511.1864" style="stroke:#000000;stroke-width:1;"/><text fill="#000000" font-family="sans-serif" font-size="13" lengthAdjust="spacing" textLength="55.0278" x="157.38" y="1510.6869">contains</text><text fill="#000000" font-family="sans-serif" font-size="13" lengthAdjust="spacing" textLength="8.271" x="135.1201" y="1463.3228">1</text><text fill="#000000" font-family="sans-serif" font-size="13" lengthAdjust="spacing" textLength="23.0356" x="118.9804" y="1566.3153">0..*</text></g><!--link Instructor to Conversation--><g class="link" data-entity-1="Instructor" data-entity-2="Conversation" data-source-line="146" data-uid="lnk21" id="link_Instructor_Conversation"><path codeLine="146" d="M526.48,568.29 C543.84,593.09 559.76,620.34 570.38,648.12 C648.37,852.05 647.35,1113.76 640.21,1248.23" fill="none" id="Instructor-Conversation" style="stroke:#181818;stroke-width:1;"/><polygon fill="#000000" points="626.2049,837.4079,627.6113,828.0019,621.814,828.9716,626.2049,837.4079" style="stroke:#000000;stroke-width:1;"/><text fill="#000000" font-family="sans-serif" font-size="13" lengthAdjust="spacing" textLength="93.1011" x="634.38" y="836.9769">participates in</text><text fill="#000000" font-family="sans-serif" font-size="13" lengthAdjust="spacing" textLength="8.271" x="533.9144" y="572.9477">1</text><text fill="#000000" font-family="sans-serif" font-size="13" lengthAdjust="spacing" textLength="23.0356" x="616.8388" y="1237.5751">0..*</text></g><!--link Student to Conversation--><g class="link" data-entity-1="Student" data-entity-2="Conversation" data-source-line="147" data-uid="lnk22" id="link_Student_Conversation"><path codeLine="147" d="M453.86,1130.86 C463.89,1147.02 474.51,1163.03 485.38,1177.77 C503.06,1201.74 523.92,1226.05 544.32,1248.21" fill="none" id="Student-Conversation" style="stroke:#181818;stroke-width:1;"/><polygon fill="#000000" points="493.4326,1173.2964,490.238,1164.3384,485.5828,1167.927,493.4326,1173.2964" style="stroke:#000000;stroke-width:1;"/><text fill="#000000" font-family="sans-serif" font-size="13" lengthAdjust="spacing" textLength="93.1011" x="499.38" y="1173.8369">participates in</text><text fill="#000000" font-family="sans-serif" font-size="13" lengthAdjust="spacing" textLength="8.271" x="449.6534" y="1150.8811">1</text><text fill="#000000" font-family="sans-serif" font-size="13" lengthAdjust="spacing" textLength="23.0356" x="513.3076" y="1237.5535">0..*</text></g><!--link Conversation to Message--><g class="link" data-entity-1="Conversation" data-entity-2="Message" data-source-line="148" data-uid="lnk23" id="link_Conversation_Message"><path codeLine="148" d="M671.36,1427.34 C687.23,1464.38 705.62,1507.33 721.48,1544.35" fill="none" id="Conversation-Message" style="stroke:#181818;stroke-width:1;"/><polygon fill="#000000" points="714.3487,1510.7825,713.4888,1501.3109,708.0858,1503.6252,714.3487,1510.7825" style="stroke:#000000;stroke-width:1;"/><text fill="#000000" font-family="sans-serif" font-size="13" lengthAdjust="spacing" textLength="55.0278" x="721.38" y="1510.6869">contains</text><text fill="#000000" font-family="sans-serif" font-size="13" lengthAdjust="spacing" textLength="8.271" x="665.9715" y="1446.8495">1</text><text fill="#000000" font-family="sans-serif" font-size="13" lengthAdjust="spacing" textLength="23.0356" x="694.5445" y="1533.6959">0..*</text></g><!--link Message to User--><g class="link" data-entity-1="Message" data-entity-2="User" data-source-line="149" data-uid="lnk24" id="link_Message_User"><path codeLine="149" d="M793.21,1544.44 C812.31,1486.76 832.38,1409.33 832.38,1338.7 C832.38,456.49 832.38,456.49 832.38,456.49 C832.38,364.54 769.16,280.38 709.9,221.69" fill="none" id="Message-User" style="stroke:#181818;stroke-width:1;"/><polygon fill="#000000" points="837.0657,827.4863,834.7012,836.6982,840.5674,836.3288,837.0657,827.4863" style="stroke:#000000;stroke-width:1;"/><text fill="#000000" font-family="sans-serif" font-size="13" lengthAdjust="spacing" textLength="48.1851" x="846.38" y="836.9769">sent by</text><text fill="#000000" font-family="sans-serif" font-size="13" lengthAdjust="spacing" textLength="6.5" x="789.7834" y="1533.4906">*</text><text fill="#000000" font-family="sans-serif" font-size="13" lengthAdjust="spacing" textLength="8.271" x="717.3289" y="224.1939">1</text></g><!--link User to Notification--><g class="link" data-entity-1="User" data-entity-2="Notification" data-source-line="151" data-uid="lnk25" id="link_User_Notification"><path codeLine="151" d="M633.51,267.04 C640.69,303.95 648.31,343.1 654.75,376.17" fill="none" id="User-Notification" style="stroke:#181818;stroke-width:1;"/><polygon fill="#000000" points="647.3352,310.3343,648.492,300.8944,642.7224,302.0173,647.3352,310.3343" style="stroke:#000000;stroke-width:1;"/><text fill="#000000" font-family="sans-serif" font-size="13" lengthAdjust="spacing" textLength="54.5645" x="655.38" y="309.9269">receives</text><text fill="#000000" font-family="sans-serif" font-size="13" lengthAdjust="spacing" textLength="8.271" x="626.7394" y="287.0663">1</text><text fill="#000000" font-family="sans-serif" font-size="13" lengthAdjust="spacing" textLength="23.0356" x="629.3348" y="365.3324">0..*</text></g><!--SRC=[hLPDRzim3BtxLmZPOLk31DtLA0AuhRSPQzeYoJvkXc8piHPRDYIvMJhilu_oHo8xTjjrESMY-AZtI8gAt32UKK4J4iHKIaSfmPQv0Yz8-Pmz0Zcth6A7V9KWo6zho4ARpDsPvznOGqWeYstopPbTVNPcrfiC7RUf20-c8QS96CjCf2iMWv-nGEN2tCanlgzscMaB1505eK-LJHRUr9qldEazkcPXXtaqgW7ltbl35UFXvSxL10zBBzJV9Ln_FO1WgzrznHejVsgr7fTAv85AZpGNFBN1krsudzmPkRZu-6KoiOOoWu3HMEqC0KkM8aNtn-84MdG1sWBMeEOg3u4hgPSnuvjgROgfJ2zMicH2HRu-moRNpiB5iaKfFsbXUiGSqYuhYuCDn46oUlqTO1FlPY2pb4ieh6NivaPtBNiImVOEtOKjKJrxLENojPdPKzohR5DxwcowXhtH6cw1hIECVkrUULCDZTg6148MqDYFc4Ifkxenq-LF21Hx05bPnkFn2IfSvRfLvBtYPhd-HVOMaJxFaoK8Gxwe8laAVgbQsWe0hyJwK9x_aNRKO4CQXlSYNUFHqakm6gQ-naPRthO8vUyvTyba6kXdL4NFTjV-qAkKuqYJLB6Kdx39NvamaqtT5sqRtkWfPWcbIZDxbQsj8J3GtIg0Xpr3BIb3Dlg3IQm1HUVBkxiRrxdjawerwT0LBKqyeM9JCtVa3AEO_6zJnLPusReAqJjs5LEnEMGhnlrakN7AovvE9FYMp20k839YcRIATttmOK16e-B7UFbi4b59gYURJ8vSwt7QzhEC6BNx-NXyDkWOnJP9ADT9H5njUnw3WxA4XMIvG-Inp-2iGz7JVfN9wkA1NuSPNUhjuzkQR3QH-J9XIWDQMqrSSsBO19jTKRorJoQqSUDjWd_b50iOJWrCAEEz79-5DHoQsFfkDXZMHYETHRUWUdrwKQHc_vJ16XV59W82q2yHcVm5]--></g></svg>