<svg xmlns="http://www.w3.org/2000/svg" xmlns:xlink="http://www.w3.org/1999/xlink" contentStyleType="text/css" data-diagram-type="CLASS" height="1064px" preserveAspectRatio="none" style="width:1437px;height:1064px;background:#FFFFFF;" version="1.1" viewBox="0 0 1437 1064" width="1437px" zoomAndPan="magnify"><defs/><g><!--class users--><g class="entity" data-entity="users" data-source-line="9" data-uid="ent0002" id="entity_users"><rect fill="#F1F1F1" height="178.375" rx="2.5" ry="2.5" style="stroke:#181818;stroke-width:0.5;" width="218.876" x="996.32" y="7"/><ellipse cx="1082.5929" cy="23" fill="#ADD1B2" rx="11" ry="11" style="stroke:#181818;stroke-width:1;"/><path d="M1086.7023,29 L1078.9836,29 L1078.9836,16.6094 L1086.7023,16.6094 L1086.7023,18.7656 L1081.4367,18.7656 L1081.4367,21.4375 L1086.2023,21.4375 L1086.2023,23.5938 L1081.4367,23.5938 L1081.4367,26.8438 L1086.7023,26.8438 L1086.7023,29 Z " fill="#000000"/><text fill="#000000" font-family="sans-serif" font-size="14" lengthAdjust="spacing" textLength="37.8301" x="1103.0929" y="27.8467">users</text><line style="stroke:#181818;stroke-width:0.5;" x1="997.32" x2="1214.196" y1="39" y2="39"/><text fill="#000000" font-family="sans-serif" font-size="14" lengthAdjust="spacing" textLength="11.7305" x="1002.32" y="55.9951">+</text><text fill="#000000" font-family="sans-serif" font-size="14" font-weight="bold" lengthAdjust="spacing" textLength="14.8203" x="1014.0505" y="55.9951">id</text><text fill="#000000" font-family="sans-serif" font-size="14" lengthAdjust="spacing" textLength="121.3721" x="1033.321" y="55.9951">as "SERIAL" &#171;PK&#187;</text><line style="stroke:#181818;stroke-width:1;" x1="997.32" x2="1214.196" y1="63.2969" y2="63.2969"/><text fill="#000000" font-family="sans-serif" font-size="14" lengthAdjust="spacing" textLength="204.1621" x="1002.32" y="80.292">email as "VARCHAR UNIQUE"</text><text fill="#000000" font-family="sans-serif" font-size="14" lengthAdjust="spacing" textLength="172.8535" x="1002.32" y="96.5889">password as "VARCHAR"</text><text fill="#000000" font-family="sans-serif" font-size="14" lengthAdjust="spacing" textLength="145.8447" x="1002.32" y="112.8857">name as "VARCHAR"</text><text fill="#000000" font-family="sans-serif" font-size="14" lengthAdjust="spacing" textLength="206.876" x="1002.32" y="129.1826">profile_picture as "VARCHAR"</text><text fill="#000000" font-family="sans-serif" font-size="14" lengthAdjust="spacing" textLength="174.9521" x="1002.32" y="145.4795">user_type as "VARCHAR"</text><text fill="#000000" font-family="sans-serif" font-size="14" lengthAdjust="spacing" textLength="193.498" x="1002.32" y="161.7764">created_at as "TIMESTAMP"</text><text fill="#000000" font-family="sans-serif" font-size="14" lengthAdjust="spacing" textLength="198.0781" x="1002.32" y="178.0732">updated_at as "TIMESTAMP"</text></g><!--class instructors--><g class="entity" data-entity="instructors" data-source-line="21" data-uid="ent0003" id="entity_instructors"><rect fill="#F1F1F1" height="145.7813" rx="2.5" ry="2.5" style="stroke:#181818;stroke-width:0.5;" width="210.0781" x="868.72" y="278.67"/><ellipse cx="932.0208" cy="294.67" fill="#ADD1B2" rx="11" ry="11" style="stroke:#181818;stroke-width:1;"/><path d="M936.1302,300.67 L928.4114,300.67 L928.4114,288.2794 L936.1302,288.2794 L936.1302,290.4356 L930.8645,290.4356 L930.8645,293.1075 L935.6302,293.1075 L935.6302,295.2637 L930.8645,295.2637 L930.8645,298.5137 L936.1302,298.5137 L936.1302,300.67 Z " fill="#000000"/><text fill="#000000" font-family="sans-serif" font-size="14" lengthAdjust="spacing" textLength="74.9766" x="952.5208" y="299.5167">instructors</text><line style="stroke:#181818;stroke-width:0.5;" x1="869.72" x2="1077.7981" y1="310.67" y2="310.67"/><text fill="#000000" font-family="sans-serif" font-size="14" lengthAdjust="spacing" textLength="11.7305" x="874.72" y="327.6651">+</text><text fill="#000000" font-family="sans-serif" font-size="14" font-weight="bold" lengthAdjust="spacing" textLength="14.8203" x="886.4505" y="327.6651">id</text><text fill="#000000" font-family="sans-serif" font-size="14" lengthAdjust="spacing" textLength="121.3721" x="905.721" y="327.6651">as "SERIAL" &#171;PK&#187;</text><line style="stroke:#181818;stroke-width:1;" x1="869.72" x2="1077.7981" y1="334.9669" y2="334.9669"/><text fill="#000000" font-family="sans-serif" font-size="14" font-style="italic" lengthAdjust="spacing" textLength="50.3125" x="874.72" y="351.962">user_id</text><text fill="#000000" font-family="sans-serif" font-size="14" lengthAdjust="spacing" textLength="133.4375" x="929.4827" y="351.962">as "INTEGER" &#171;FK&#187;</text><text fill="#000000" font-family="sans-serif" font-size="14" lengthAdjust="spacing" textLength="168.7656" x="874.72" y="368.2589">specialty as "VARCHAR"</text><text fill="#000000" font-family="sans-serif" font-size="14" lengthAdjust="spacing" textLength="94.5342" x="874.72" y="384.5557">bio as "TEXT"</text><text fill="#000000" font-family="sans-serif" font-size="14" lengthAdjust="spacing" textLength="193.498" x="874.72" y="400.8526">created_at as "TIMESTAMP"</text><text fill="#000000" font-family="sans-serif" font-size="14" lengthAdjust="spacing" textLength="198.0781" x="874.72" y="417.1495">updated_at as "TIMESTAMP"</text></g><!--class students--><g class="entity" data-entity="students" data-source-line="31" data-uid="ent0004" id="entity_students"><rect fill="#F1F1F1" height="145.7813" rx="2.5" ry="2.5" style="stroke:#181818;stroke-width:0.5;" width="210.0781" x="525.72" y="278.67"/><ellipse cx="596.1028" cy="294.67" fill="#ADD1B2" rx="11" ry="11" style="stroke:#181818;stroke-width:1;"/><path d="M600.2122,300.67 L592.4934,300.67 L592.4934,288.2794 L600.2122,288.2794 L600.2122,290.4356 L594.9466,290.4356 L594.9466,293.1075 L599.7122,293.1075 L599.7122,295.2637 L594.9466,295.2637 L594.9466,298.5137 L600.2122,298.5137 L600.2122,300.67 Z " fill="#000000"/><text fill="#000000" font-family="sans-serif" font-size="14" lengthAdjust="spacing" textLength="60.8125" x="616.6028" y="299.5167">students</text><line style="stroke:#181818;stroke-width:0.5;" x1="526.72" x2="734.7981" y1="310.67" y2="310.67"/><text fill="#000000" font-family="sans-serif" font-size="14" lengthAdjust="spacing" textLength="11.7305" x="531.72" y="327.6651">+</text><text fill="#000000" font-family="sans-serif" font-size="14" font-weight="bold" lengthAdjust="spacing" textLength="14.8203" x="543.4505" y="327.6651">id</text><text fill="#000000" font-family="sans-serif" font-size="14" lengthAdjust="spacing" textLength="121.3721" x="562.721" y="327.6651">as "SERIAL" &#171;PK&#187;</text><line style="stroke:#181818;stroke-width:1;" x1="526.72" x2="734.7981" y1="334.9669" y2="334.9669"/><text fill="#000000" font-family="sans-serif" font-size="14" font-style="italic" lengthAdjust="spacing" textLength="50.3125" x="531.72" y="351.962">user_id</text><text fill="#000000" font-family="sans-serif" font-size="14" lengthAdjust="spacing" textLength="133.4375" x="586.4827" y="351.962">as "INTEGER" &#171;FK&#187;</text><text fill="#000000" font-family="sans-serif" font-size="14" lengthAdjust="spacing" textLength="146.8701" x="531.72" y="368.2589">birth_date as "DATE"</text><text fill="#000000" font-family="sans-serif" font-size="14" lengthAdjust="spacing" textLength="149.9531" x="531.72" y="384.5557">phone as "VARCHAR"</text><text fill="#000000" font-family="sans-serif" font-size="14" lengthAdjust="spacing" textLength="193.498" x="531.72" y="400.8526">created_at as "TIMESTAMP"</text><text fill="#000000" font-family="sans-serif" font-size="14" lengthAdjust="spacing" textLength="198.0781" x="531.72" y="417.1495">updated_at as "TIMESTAMP"</text></g><!--class instructor_student--><g class="entity" data-entity="instructor_student" data-source-line="41" data-uid="ent0005" id="entity_instructor_student"><rect fill="#F1F1F1" height="170.0781" rx="2.5" ry="2.5" style="stroke:#181818;stroke-width:0.5;" width="247.5391" x="840.99" y="591.08"/><ellipse cx="896.4089" cy="607.08" fill="#ADD1B2" rx="11" ry="11" style="stroke:#181818;stroke-width:1;"/><path d="M900.5183,613.08 L892.7996,613.08 L892.7996,600.6894 L900.5183,600.6894 L900.5183,602.8456 L895.2527,602.8456 L895.2527,605.5175 L900.0183,605.5175 L900.0183,607.6737 L895.2527,607.6737 L895.2527,610.9237 L900.5183,610.9237 L900.5183,613.08 Z " fill="#000000"/><text fill="#000000" font-family="sans-serif" font-size="14" lengthAdjust="spacing" textLength="128.2012" x="916.9089" y="611.9267">instructor_student</text><line style="stroke:#181818;stroke-width:0.5;" x1="841.99" x2="1087.5291" y1="623.08" y2="623.08"/><text fill="#000000" font-family="sans-serif" font-size="14" lengthAdjust="spacing" textLength="11.7305" x="846.99" y="640.0751">+</text><text fill="#000000" font-family="sans-serif" font-size="14" font-weight="bold" lengthAdjust="spacing" textLength="14.8203" x="858.7205" y="640.0751">id</text><text fill="#000000" font-family="sans-serif" font-size="14" lengthAdjust="spacing" textLength="121.3721" x="877.991" y="640.0751">as "SERIAL" &#171;PK&#187;</text><line style="stroke:#181818;stroke-width:1;" x1="841.99" x2="1087.5291" y1="647.3769" y2="647.3769"/><text fill="#000000" font-family="sans-serif" font-size="14" font-style="italic" lengthAdjust="spacing" textLength="87.459" x="846.99" y="664.372">instructor_id</text><text fill="#000000" font-family="sans-serif" font-size="14" lengthAdjust="spacing" textLength="133.4375" x="938.8992" y="664.372">as "INTEGER" &#171;FK&#187;</text><text fill="#000000" font-family="sans-serif" font-size="14" font-style="italic" lengthAdjust="spacing" textLength="73.2949" x="846.99" y="680.6689">student_id</text><text fill="#000000" font-family="sans-serif" font-size="14" lengthAdjust="spacing" textLength="133.4375" x="924.7351" y="680.6689">as "INTEGER" &#171;FK&#187;</text><text fill="#000000" font-family="sans-serif" font-size="14" lengthAdjust="spacing" textLength="149.1602" x="846.99" y="696.9657">status as "VARCHAR"</text><text fill="#000000" font-family="sans-serif" font-size="14" lengthAdjust="spacing" textLength="193.498" x="846.99" y="713.2626">created_at as "TIMESTAMP"</text><text fill="#000000" font-family="sans-serif" font-size="14" lengthAdjust="spacing" textLength="198.0781" x="846.99" y="729.5595">updated_at as "TIMESTAMP"</text><line style="stroke:#181818;stroke-width:1;" x1="841.99" x2="1087.5291" y1="736.8612" y2="736.8612"/><text fill="#000000" font-family="sans-serif" font-size="14" lengthAdjust="spacing" textLength="235.5391" x="846.99" y="753.8564">UNIQUE(instructor_id, student_id)</text></g><!--class anamnesis--><g class="entity" data-entity="anamnesis" data-source-line="53" data-uid="ent0006" id="entity_anamnesis"><rect fill="#F1F1F1" height="316.75" rx="2.5" ry="2.5" style="stroke:#181818;stroke-width:0.5;" width="224.9258" x="298.3" y="517.75"/><ellipse cx="368.6965" cy="533.75" fill="#ADD1B2" rx="11" ry="11" style="stroke:#181818;stroke-width:1;"/><path d="M372.8059,539.75 L365.0871,539.75 L365.0871,527.3594 L372.8059,527.3594 L372.8059,529.5156 L367.5402,529.5156 L367.5402,532.1875 L372.3059,532.1875 L372.3059,534.3438 L367.5402,534.3438 L367.5402,537.5938 L372.8059,537.5938 L372.8059,539.75 Z " fill="#000000"/><text fill="#000000" font-family="sans-serif" font-size="14" lengthAdjust="spacing" textLength="75.6328" x="389.1965" y="538.5967">anamnesis</text><line style="stroke:#181818;stroke-width:0.5;" x1="299.3" x2="522.2258" y1="549.75" y2="549.75"/><text fill="#000000" font-family="sans-serif" font-size="14" lengthAdjust="spacing" textLength="11.7305" x="304.3" y="566.7451">+</text><text fill="#000000" font-family="sans-serif" font-size="14" font-weight="bold" lengthAdjust="spacing" textLength="14.8203" x="316.0305" y="566.7451">id</text><text fill="#000000" font-family="sans-serif" font-size="14" lengthAdjust="spacing" textLength="121.3721" x="335.301" y="566.7451">as "SERIAL" &#171;PK&#187;</text><line style="stroke:#181818;stroke-width:1;" x1="299.3" x2="522.2258" y1="574.0469" y2="574.0469"/><text fill="#000000" font-family="sans-serif" font-size="14" font-style="italic" lengthAdjust="spacing" textLength="73.2949" x="304.3" y="591.042">student_id</text><text fill="#000000" font-family="sans-serif" font-size="14" lengthAdjust="spacing" textLength="133.4375" x="382.0451" y="591.042">as "INTEGER" &#171;FK&#187;</text><text fill="#000000" font-family="sans-serif" font-size="14" lengthAdjust="spacing" textLength="125.1523" x="304.3" y="607.3389">age as "INTEGER"</text><text fill="#000000" font-family="sans-serif" font-size="14" lengthAdjust="spacing" textLength="147.8408" x="304.3" y="623.6357">weight as "DECIMAL"</text><text fill="#000000" font-family="sans-serif" font-size="14" lengthAdjust="spacing" textLength="145.2637" x="304.3" y="639.9326">height as "DECIMAL"</text><text fill="#000000" font-family="sans-serif" font-size="14" lengthAdjust="spacing" textLength="183.5381" x="304.3" y="656.2295">medical_history as "TEXT"</text><text fill="#000000" font-family="sans-serif" font-size="14" lengthAdjust="spacing" textLength="211.0732" x="304.3" y="672.5264">physical_limitations as "TEXT"</text><text fill="#000000" font-family="sans-serif" font-size="14" lengthAdjust="spacing" textLength="132.6035" x="304.3" y="688.8232">allergies as "TEXT"</text><text fill="#000000" font-family="sans-serif" font-size="14" lengthAdjust="spacing" textLength="158.6074" x="304.3" y="705.1201">medications as "TEXT"</text><text fill="#000000" font-family="sans-serif" font-size="14" lengthAdjust="spacing" textLength="144.416" x="304.3" y="721.417">objectives as "TEXT"</text><text fill="#000000" font-family="sans-serif" font-size="14" lengthAdjust="spacing" textLength="212.9258" x="304.3" y="737.7139">lifestyle_description as "TEXT"</text><text fill="#000000" font-family="sans-serif" font-size="14" lengthAdjust="spacing" textLength="169.1758" x="304.3" y="754.0107">sleep_pattern as "TEXT"</text><text fill="#000000" font-family="sans-serif" font-size="14" lengthAdjust="spacing" textLength="188.1729" x="304.3" y="770.3076">stress_level as "VARCHAR"</text><text fill="#000000" font-family="sans-serif" font-size="14" lengthAdjust="spacing" textLength="193.498" x="304.3" y="786.6045">created_at as "TIMESTAMP"</text><text fill="#000000" font-family="sans-serif" font-size="14" lengthAdjust="spacing" textLength="198.0781" x="304.3" y="802.9014">updated_at as "TIMESTAMP"</text><line style="stroke:#181818;stroke-width:1;" x1="299.3" x2="522.2258" y1="810.2031" y2="810.2031"/><text fill="#000000" font-family="sans-serif" font-size="14" lengthAdjust="spacing" textLength="139.1797" x="304.3" y="827.1982">UNIQUE(student_id)</text></g><!--class weekly_responses--><g class="entity" data-entity="weekly_responses" data-source-line="74" data-uid="ent0007" id="entity_weekly_responses"><rect fill="#F1F1F1" height="194.6719" rx="2.5" ry="2.5" style="stroke:#181818;stroke-width:0.5;" width="223.1826" x="40.17" y="578.79"/><ellipse cx="83.9854" cy="594.79" fill="#ADD1B2" rx="11" ry="11" style="stroke:#181818;stroke-width:1;"/><path d="M88.0948,600.79 L80.376,600.79 L80.376,588.3994 L88.0948,588.3994 L88.0948,590.5556 L82.8291,590.5556 L82.8291,593.2275 L87.5948,593.2275 L87.5948,595.3838 L82.8291,595.3838 L82.8291,598.6338 L88.0948,598.6338 L88.0948,600.79 Z " fill="#000000"/><text fill="#000000" font-family="sans-serif" font-size="14" lengthAdjust="spacing" textLength="127.1484" x="104.3888" y="599.6367">weekly_responses</text><line style="stroke:#181818;stroke-width:0.5;" x1="41.17" x2="262.3526" y1="610.79" y2="610.79"/><text fill="#000000" font-family="sans-serif" font-size="14" lengthAdjust="spacing" textLength="11.7305" x="46.17" y="627.7851">+</text><text fill="#000000" font-family="sans-serif" font-size="14" font-weight="bold" lengthAdjust="spacing" textLength="14.8203" x="57.9005" y="627.7851">id</text><text fill="#000000" font-family="sans-serif" font-size="14" lengthAdjust="spacing" textLength="121.3721" x="77.171" y="627.7851">as "SERIAL" &#171;PK&#187;</text><line style="stroke:#181818;stroke-width:1;" x1="41.17" x2="262.3526" y1="635.0869" y2="635.0869"/><text fill="#000000" font-family="sans-serif" font-size="14" font-style="italic" lengthAdjust="spacing" textLength="73.2949" x="46.17" y="652.082">student_id</text><text fill="#000000" font-family="sans-serif" font-size="14" lengthAdjust="spacing" textLength="133.4375" x="123.9151" y="652.082">as "INTEGER" &#171;FK&#187;</text><text fill="#000000" font-family="sans-serif" font-size="14" lengthAdjust="spacing" textLength="197.4971" x="46.17" y="668.3789">week_number as "INTEGER"</text><text fill="#000000" font-family="sans-serif" font-size="14" lengthAdjust="spacing" textLength="171.9648" x="46.17" y="684.6757">response_text as "TEXT"</text><text fill="#000000" font-family="sans-serif" font-size="14" lengthAdjust="spacing" textLength="153.8359" x="46.17" y="700.9726">feeling as "VARCHAR"</text><text fill="#000000" font-family="sans-serif" font-size="14" lengthAdjust="spacing" textLength="145.4619" x="46.17" y="717.2695">difficulties as "TEXT"</text><text fill="#000000" font-family="sans-serif" font-size="14" lengthAdjust="spacing" textLength="178.7256" x="46.17" y="733.5664">nutrition_notes as "TEXT"</text><text fill="#000000" font-family="sans-serif" font-size="14" lengthAdjust="spacing" textLength="193.498" x="46.17" y="749.8632">created_at as "TIMESTAMP"</text><text fill="#000000" font-family="sans-serif" font-size="14" lengthAdjust="spacing" textLength="198.0781" x="46.17" y="766.1601">updated_at as "TIMESTAMP"</text></g><!--class progress_images--><g class="entity" data-entity="progress_images" data-source-line="87" data-uid="ent0008" id="entity_progress_images"><rect fill="#F1F1F1" height="113.1875" rx="2.5" ry="2.5" style="stroke:#181818;stroke-width:0.5;" width="289.5186" x="7" y="927.8"/><ellipse cx="88.0332" cy="943.8" fill="#ADD1B2" rx="11" ry="11" style="stroke:#181818;stroke-width:1;"/><path d="M92.1426,949.8 L84.4238,949.8 L84.4238,937.4094 L92.1426,937.4094 L92.1426,939.5656 L86.877,939.5656 L86.877,942.2375 L91.6426,942.2375 L91.6426,944.3938 L86.877,944.3938 L86.877,947.6438 L92.1426,947.6438 L92.1426,949.8 Z " fill="#000000"/><text fill="#000000" font-family="sans-serif" font-size="14" lengthAdjust="spacing" textLength="118.9521" x="108.5332" y="948.6467">progress_images</text><line style="stroke:#181818;stroke-width:0.5;" x1="8" x2="295.5186" y1="959.8" y2="959.8"/><text fill="#000000" font-family="sans-serif" font-size="14" lengthAdjust="spacing" textLength="11.7305" x="13" y="976.7951">+</text><text fill="#000000" font-family="sans-serif" font-size="14" font-weight="bold" lengthAdjust="spacing" textLength="14.8203" x="24.7305" y="976.7951">id</text><text fill="#000000" font-family="sans-serif" font-size="14" lengthAdjust="spacing" textLength="121.3721" x="44.001" y="976.7951">as "SERIAL" &#171;PK&#187;</text><line style="stroke:#181818;stroke-width:1;" x1="8" x2="295.5186" y1="984.0969" y2="984.0969"/><text fill="#000000" font-family="sans-serif" font-size="14" font-style="italic" lengthAdjust="spacing" textLength="139.6309" x="13" y="1001.092">weekly_response_id</text><text fill="#000000" font-family="sans-serif" font-size="14" lengthAdjust="spacing" textLength="133.4375" x="157.0811" y="1001.092">as "INTEGER" &#171;FK&#187;</text><text fill="#000000" font-family="sans-serif" font-size="14" lengthAdjust="spacing" textLength="188.5762" x="13" y="1017.3889">image_path as "VARCHAR"</text><text fill="#000000" font-family="sans-serif" font-size="14" lengthAdjust="spacing" textLength="193.498" x="13" y="1033.6857">created_at as "TIMESTAMP"</text></g><!--class conversations--><g class="entity" data-entity="conversations" data-source-line="95" data-uid="ent0009" id="entity_conversations"><rect fill="#F1F1F1" height="153.7813" rx="2.5" ry="2.5" style="stroke:#181818;stroke-width:0.5;" width="247.5391" x="557.99" y="599.23"/><ellipse cx="628.6223" cy="615.23" fill="#ADD1B2" rx="11" ry="11" style="stroke:#181818;stroke-width:1;"/><path d="M632.7317,621.23 L625.0129,621.23 L625.0129,608.8394 L632.7317,608.8394 L632.7317,610.9956 L627.4661,610.9956 L627.4661,613.6675 L632.2317,613.6675 L632.2317,615.8238 L627.4661,615.8238 L627.4661,619.0738 L632.7317,619.0738 L632.7317,621.23 Z " fill="#000000"/><text fill="#000000" font-family="sans-serif" font-size="14" lengthAdjust="spacing" textLength="97.7744" x="649.1223" y="620.0767">conversations</text><line style="stroke:#181818;stroke-width:0.5;" x1="558.99" x2="804.5291" y1="631.23" y2="631.23"/><text fill="#000000" font-family="sans-serif" font-size="14" lengthAdjust="spacing" textLength="11.7305" x="563.99" y="648.2251">+</text><text fill="#000000" font-family="sans-serif" font-size="14" font-weight="bold" lengthAdjust="spacing" textLength="14.8203" x="575.7205" y="648.2251">id</text><text fill="#000000" font-family="sans-serif" font-size="14" lengthAdjust="spacing" textLength="121.3721" x="594.991" y="648.2251">as "SERIAL" &#171;PK&#187;</text><line style="stroke:#181818;stroke-width:1;" x1="558.99" x2="804.5291" y1="655.5269" y2="655.5269"/><text fill="#000000" font-family="sans-serif" font-size="14" font-style="italic" lengthAdjust="spacing" textLength="87.459" x="563.99" y="672.522">instructor_id</text><text fill="#000000" font-family="sans-serif" font-size="14" lengthAdjust="spacing" textLength="133.4375" x="655.8992" y="672.522">as "INTEGER" &#171;FK&#187;</text><text fill="#000000" font-family="sans-serif" font-size="14" font-style="italic" lengthAdjust="spacing" textLength="73.2949" x="563.99" y="688.8189">student_id</text><text fill="#000000" font-family="sans-serif" font-size="14" lengthAdjust="spacing" textLength="133.4375" x="641.7351" y="688.8189">as "INTEGER" &#171;FK&#187;</text><text fill="#000000" font-family="sans-serif" font-size="14" lengthAdjust="spacing" textLength="193.498" x="563.99" y="705.1157">created_at as "TIMESTAMP"</text><text fill="#000000" font-family="sans-serif" font-size="14" lengthAdjust="spacing" textLength="198.0781" x="563.99" y="721.4126">updated_at as "TIMESTAMP"</text><line style="stroke:#181818;stroke-width:1;" x1="558.99" x2="804.5291" y1="728.7144" y2="728.7144"/><text fill="#000000" font-family="sans-serif" font-size="14" lengthAdjust="spacing" textLength="235.5391" x="563.99" y="745.7095">UNIQUE(instructor_id, student_id)</text></g><!--class messages--><g class="entity" data-entity="messages" data-source-line="106" data-uid="ent0010" id="entity_messages"><rect fill="#F1F1F1" height="145.7813" rx="2.5" ry="2.5" style="stroke:#181818;stroke-width:0.5;" width="260.1445" x="864.69" y="911.5"/><ellipse cx="955.4063" cy="927.5" fill="#ADD1B2" rx="11" ry="11" style="stroke:#181818;stroke-width:1;"/><path d="M959.5157,933.5 L951.7969,933.5 L951.7969,921.1094 L959.5157,921.1094 L959.5157,923.2656 L954.2501,923.2656 L954.2501,925.9375 L959.0157,925.9375 L959.0157,928.0938 L954.2501,928.0938 L954.2501,931.3438 L959.5157,931.3438 L959.5157,933.5 Z " fill="#000000"/><text fill="#000000" font-family="sans-serif" font-size="14" lengthAdjust="spacing" textLength="70.2119" x="975.9063" y="932.3467">messages</text><line style="stroke:#181818;stroke-width:0.5;" x1="865.69" x2="1123.8345" y1="943.5" y2="943.5"/><text fill="#000000" font-family="sans-serif" font-size="14" lengthAdjust="spacing" textLength="11.7305" x="870.69" y="960.4951">+</text><text fill="#000000" font-family="sans-serif" font-size="14" font-weight="bold" lengthAdjust="spacing" textLength="14.8203" x="882.4205" y="960.4951">id</text><text fill="#000000" font-family="sans-serif" font-size="14" lengthAdjust="spacing" textLength="121.3721" x="901.691" y="960.4951">as "SERIAL" &#171;PK&#187;</text><line style="stroke:#181818;stroke-width:1;" x1="865.69" x2="1123.8345" y1="967.7969" y2="967.7969"/><text fill="#000000" font-family="sans-serif" font-size="14" font-style="italic" lengthAdjust="spacing" textLength="110.2568" x="870.69" y="984.792">conversation_id</text><text fill="#000000" font-family="sans-serif" font-size="14" lengthAdjust="spacing" textLength="133.4375" x="985.397" y="984.792">as "INTEGER" &#171;FK&#187;</text><text fill="#000000" font-family="sans-serif" font-size="14" font-style="italic" lengthAdjust="spacing" textLength="67.8125" x="870.69" y="1001.0889">sender_id</text><text fill="#000000" font-family="sans-serif" font-size="14" lengthAdjust="spacing" textLength="133.4375" x="942.9527" y="1001.0889">as "INTEGER" &#171;FK&#187;</text><text fill="#000000" font-family="sans-serif" font-size="14" lengthAdjust="spacing" textLength="170.9873" x="870.69" y="1017.3857">message_text as "TEXT"</text><text fill="#000000" font-family="sans-serif" font-size="14" lengthAdjust="spacing" textLength="156.0098" x="870.69" y="1033.6826">is_read as "BOOLEAN"</text><text fill="#000000" font-family="sans-serif" font-size="14" lengthAdjust="spacing" textLength="193.498" x="870.69" y="1049.9795">created_at as "TIMESTAMP"</text></g><!--class notifications--><g class="entity" data-entity="notifications" data-source-line="116" data-uid="ent0011" id="entity_notifications"><rect fill="#F1F1F1" height="178.375" rx="2.5" ry="2.5" style="stroke:#181818;stroke-width:0.5;" width="235.1455" x="1195.19" y="262.37"/><ellipse cx="1265.501" cy="278.37" fill="#ADD1B2" rx="11" ry="11" style="stroke:#181818;stroke-width:1;"/><path d="M1269.6104,284.37 L1261.8917,284.37 L1261.8917,271.9794 L1269.6104,271.9794 L1269.6104,274.1356 L1264.3448,274.1356 L1264.3448,276.8075 L1269.1104,276.8075 L1269.1104,278.9638 L1264.3448,278.9638 L1264.3448,282.2138 L1269.6104,282.2138 L1269.6104,284.37 Z " fill="#000000"/><text fill="#000000" font-family="sans-serif" font-size="14" lengthAdjust="spacing" textLength="86.0234" x="1286.001" y="283.2167">notifications</text><line style="stroke:#181818;stroke-width:0.5;" x1="1196.19" x2="1429.3355" y1="294.37" y2="294.37"/><text fill="#000000" font-family="sans-serif" font-size="14" lengthAdjust="spacing" textLength="11.7305" x="1201.19" y="311.3651">+</text><text fill="#000000" font-family="sans-serif" font-size="14" font-weight="bold" lengthAdjust="spacing" textLength="14.8203" x="1212.9205" y="311.3651">id</text><text fill="#000000" font-family="sans-serif" font-size="14" lengthAdjust="spacing" textLength="121.3721" x="1232.191" y="311.3651">as "SERIAL" &#171;PK&#187;</text><line style="stroke:#181818;stroke-width:1;" x1="1196.19" x2="1429.3355" y1="318.6669" y2="318.6669"/><text fill="#000000" font-family="sans-serif" font-size="14" font-style="italic" lengthAdjust="spacing" textLength="50.3125" x="1201.19" y="335.662">user_id</text><text fill="#000000" font-family="sans-serif" font-size="14" lengthAdjust="spacing" textLength="133.4375" x="1255.9527" y="335.662">as "INTEGER" &#171;FK&#187;</text><text fill="#000000" font-family="sans-serif" font-size="14" lengthAdjust="spacing" textLength="133.5127" x="1201.19" y="351.9589">title as "VARCHAR"</text><text fill="#000000" font-family="sans-serif" font-size="14" lengthAdjust="spacing" textLength="136.1104" x="1201.19" y="368.2557">message as "TEXT"</text><text fill="#000000" font-family="sans-serif" font-size="14" lengthAdjust="spacing" textLength="156.0098" x="1201.19" y="384.5526">is_read as "BOOLEAN"</text><text fill="#000000" font-family="sans-serif" font-size="14" lengthAdjust="spacing" textLength="223.1455" x="1201.19" y="400.8495">notification_type as "VARCHAR"</text><text fill="#000000" font-family="sans-serif" font-size="14" lengthAdjust="spacing" textLength="168.6768" x="1201.19" y="417.1464">related_id as "INTEGER"</text><text fill="#000000" font-family="sans-serif" font-size="14" lengthAdjust="spacing" textLength="193.498" x="1201.19" y="433.4432">created_at as "TIMESTAMP"</text></g><!--link users to instructors--><g class="link" data-entity-1="users" data-entity-2="instructors" data-source-line="129" data-uid="lnk12" id="link_users_instructors"><path codeLine="129" d="M1055.8946,192.8954 C1040.1346,223.1554 1034.7292,233.5478 1019.7192,262.3478" fill="none" id="users-instructors" style="stroke:#181818;stroke-width:1;"/><line style="stroke:#181818;stroke-width:1;" x1="1054.1946" x2="1061.29" y1="187.5" y2="191.1954"/><line style="stroke:#181818;stroke-width:1;" x1="1052.8088" x2="1059.9042" y1="190.1607" y2="193.8561"/><line style="stroke:#181818;stroke-width:1;" x1="1055.8946" x2="1059.59" y1="192.8954" y2="185.8"/><line style="stroke:#181818;stroke-width:1;" x1="1015.0974" x2="1016.7207" y1="271.2157" y2="281.0831"/><line style="stroke:#181818;stroke-width:1;" x1="1015.0974" x2="1006.0793" y1="271.2157" y2="275.5369"/><line style="stroke:#181818;stroke-width:1;" x1="1015.0974" x2="1011.4" y1="271.2157" y2="278.31"/><ellipse cx="1017.8705" cy="265.895" fill="none" rx="4" ry="4" style="stroke:#181818;stroke-width:1;"/><text fill="#000000" font-family="sans-serif" font-size="13" lengthAdjust="spacing" textLength="46.7188" x="1044.76" y="228.4369">user_id</text></g><!--link users to students--><g class="link" data-entity-1="users" data-entity-2="students" data-source-line="130" data-uid="lnk13" id="link_users_students"><path codeLine="130" d="M988.8315,159.5552 C910.6015,201.2852 829.0217,244.8081 751.8617,285.9681" fill="none" id="users-students" style="stroke:#181818;stroke-width:1;"/><line style="stroke:#181818;stroke-width:1;" x1="990.4781" x2="994.2433" y1="154.1433" y2="161.2019"/><line style="stroke:#181818;stroke-width:1;" x1="987.8312" x2="991.5964" y1="155.5553" y2="162.6138"/><line style="stroke:#181818;stroke-width:1;" x1="988.8315" x2="995.89" y1="159.5552" y2="155.79"/><line style="stroke:#181818;stroke-width:1;" x1="743.0385" x2="738.804" y1="290.6747" y2="299.7339"/><line style="stroke:#181818;stroke-width:1;" x1="743.0385" x2="733.156" y1="290.6747" y2="289.1461"/><line style="stroke:#181818;stroke-width:1;" x1="743.0385" x2="735.98" y1="290.6747" y2="294.44"/><ellipse cx="748.3324" cy="287.8508" fill="none" rx="4" ry="4" style="stroke:#181818;stroke-width:1;"/><text fill="#000000" font-family="sans-serif" font-size="13" lengthAdjust="spacing" textLength="46.7188" x="883.76" y="228.4369">user_id</text></g><!--link users to messages--><g class="link" data-entity-1="users" data-entity-2="messages" data-source-line="131" data-uid="lnk14" id="link_users_messages"><path codeLine="131" d="M1124.606,193.606 C1148.736,334.976 1180.02,610.64 1105.76,834.5 C1096.67,861.89 1091.2712,873.9965 1073.9112,896.8065" fill="none" id="users-messages" style="stroke:#181818;stroke-width:1;"/><line style="stroke:#181818;stroke-width:1;" x1="1119.99" x2="1127.876" y1="190.336" y2="188.99"/><line style="stroke:#181818;stroke-width:1;" x1="1120.4948" x2="1128.3807" y1="193.2932" y2="191.9472"/><line style="stroke:#181818;stroke-width:1;" x1="1124.606" x2="1123.26" y1="193.606" y2="185.72"/><line style="stroke:#181818;stroke-width:1;" x1="1067.855" x2="1067.7845" y1="904.764" y2="914.7637"/><line style="stroke:#181818;stroke-width:1;" x1="1067.855" x2="1058.2355" y1="904.764" y2="907.4963"/><line style="stroke:#181818;stroke-width:1;" x1="1067.855" x2="1063.01" y1="904.764" y2="911.13"/><ellipse cx="1071.4887" cy="899.9895" fill="none" rx="4" ry="4" style="stroke:#181818;stroke-width:1;"/><text fill="#000000" font-family="sans-serif" font-size="13" lengthAdjust="spacing" textLength="62.9688" x="1151.76" y="483.8169">sender_id</text></g><!--link users to notifications--><g class="link" data-entity-1="users" data-entity-2="notifications" data-source-line="132" data-uid="lnk15" id="link_users_notifications"><path codeLine="132" d="M1183.2213,191.9955 C1203.3913,216.6855 1208.8394,223.3725 1229.0094,248.0525" fill="none" id="users-notifications" style="stroke:#181818;stroke-width:1;"/><line style="stroke:#181818;stroke-width:1;" x1="1177.5929" x2="1183.7884" y1="191.4284" y2="186.3671"/><line style="stroke:#181818;stroke-width:1;" x1="1179.4909" x2="1185.6863" y1="193.7517" y2="188.6904"/><line style="stroke:#181818;stroke-width:1;" x1="1183.2213" x2="1178.16" y1="191.9955" y2="185.8"/><line style="stroke:#181818;stroke-width:1;" x1="1235.3375" x2="1245.0458" y1="255.7955" y2="258.1931"/><line style="stroke:#181818;stroke-width:1;" x1="1235.3375" x2="1235.7542" y1="255.7955" y2="265.7869"/><line style="stroke:#181818;stroke-width:1;" x1="1235.3375" x2="1240.4" y1="255.7955" y2="261.99"/><ellipse cx="1231.5407" cy="251.1497" fill="none" rx="4" ry="4" style="stroke:#181818;stroke-width:1;"/><text fill="#000000" font-family="sans-serif" font-size="13" lengthAdjust="spacing" textLength="46.7188" x="1215.76" y="228.4369">user_id</text></g><!--link instructors to instructor_student--><g class="link" data-entity-1="instructors" data-entity-2="instructor_student" data-source-line="134" data-uid="lnk16" id="link_instructors_instructor_student"><path codeLine="134" d="M971.517,432.9469 C970.147,482.0769 969.0531,521.217 967.6131,572.717" fill="none" id="instructors-instructor_student" style="stroke:#181818;stroke-width:1;"/><line style="stroke:#181818;stroke-width:1;" x1="967.6301" x2="975.6269" y1="428.8369" y2="429.0599"/><line style="stroke:#181818;stroke-width:1;" x1="967.5464" x2="975.5433" y1="431.8358" y2="432.0588"/><line style="stroke:#181818;stroke-width:1;" x1="971.517" x2="971.74" y1="432.9469" y2="424.95"/><line style="stroke:#181818;stroke-width:1;" x1="967.3336" x2="973.1077" y1="582.7131" y2="590.8777"/><line style="stroke:#181818;stroke-width:1;" x1="967.3336" x2="961.1123" y1="582.7131" y2="590.5423"/><line style="stroke:#181818;stroke-width:1;" x1="967.3336" x2="967.11" y1="582.7131" y2="590.71"/><ellipse cx="967.5013" cy="576.7155" fill="none" rx="4" ry="4" style="stroke:#181818;stroke-width:1;"/><text fill="#000000" font-family="sans-serif" font-size="13" lengthAdjust="spacing" textLength="81.2119" x="971.76" y="483.8169">instructor_id</text></g><!--link students to instructor_student--><g class="link" data-entity-1="students" data-entity-2="instructor_student" data-source-line="135" data-uid="lnk17" id="link_students_instructor_student"><path codeLine="135" d="M708.1091,430.4204 C730.4991,451.6204 750.04,468.71 774.76,487.75 C794.69,503.1 803.48,501.59 822.76,517.75 C848.7,539.5 862.3748,552.4926 884.5748,577.4426" fill="none" id="students-instructor_student" style="stroke:#181818;stroke-width:1;"/><line style="stroke:#181818;stroke-width:1;" x1="702.4544" x2="707.9547" y1="430.5747" y2="424.7656"/><line style="stroke:#181818;stroke-width:1;" x1="704.6328" x2="710.1332" y1="432.6374" y2="426.8283"/><line style="stroke:#181818;stroke-width:1;" x1="708.1091" x2="702.3" y1="430.4204" y2="424.92"/><line style="stroke:#181818;stroke-width:1;" x1="891.2221" x2="901.0225" y1="584.9134" y2="586.9016"/><line style="stroke:#181818;stroke-width:1;" x1="891.2221" x2="892.0575" y1="584.9134" y2="594.8784"/><line style="stroke:#181818;stroke-width:1;" x1="891.2221" x2="896.54" y1="584.9134" y2="590.89"/><ellipse cx="887.2337" cy="580.4309" fill="none" rx="4" ry="4" style="stroke:#181818;stroke-width:1;"/><text fill="#000000" font-family="sans-serif" font-size="13" lengthAdjust="spacing" textLength="68.0596" x="775.76" y="483.8169">student_id</text></g><!--link students to anamnesis--><g class="link" data-entity-1="students" data-entity-2="anamnesis" data-source-line="137" data-uid="lnk18" id="link_students_anamnesis"><path codeLine="137" d="M576.7196,431.3204 C566.3096,446.5204 559.93,455.85 549.76,470.75 C539.42,485.9 533.155,495.079 522.395,510.869" fill="none" id="students-anamnesis" style="stroke:#181818;stroke-width:1;"/><line style="stroke:#181818;stroke-width:1;" x1="575.6796" x2="582.28" y1="425.76" y2="430.2804"/><line style="stroke:#181818;stroke-width:1;" x1="573.9844" x2="580.5848" y1="428.2352" y2="432.7556"/><line style="stroke:#181818;stroke-width:1;" x1="576.7196" x2="581.24" y1="431.3204" y2="424.72"/><line style="stroke:#181818;stroke-width:1;" x1="523.448" x2="516.837" y1="516.427" y2="511.922"/><line style="stroke:#181818;stroke-width:1;" x1="525.1374" x2="518.5264" y1="513.9479" y2="509.4429"/><line style="stroke:#181818;stroke-width:1;" x1="522.395" x2="517.89" y1="510.869" y2="517.48"/><text fill="#000000" font-family="sans-serif" font-size="13" lengthAdjust="spacing" textLength="68.0596" x="550.76" y="483.8169">student_id</text></g><!--link students to weekly_responses--><g class="link" data-entity-1="students" data-entity-2="weekly_responses" data-source-line="138" data-uid="lnk19" id="link_students_weekly_responses"><path codeLine="138" d="M518.1161,390.9333 C444.8261,418.9133 354.79,459.99 280.76,517.75 C258.62,535.03 249.3445,542.9481 231.1445,564.6881" fill="none" id="students-weekly_responses" style="stroke:#181818;stroke-width:1;"/><line style="stroke:#181818;stroke-width:1;" x1="520.4264" x2="523.2797" y1="385.7697" y2="393.2436"/><line style="stroke:#181818;stroke-width:1;" x1="517.6237" x2="520.477" y1="386.8397" y2="394.3136"/><line style="stroke:#181818;stroke-width:1;" x1="518.1161" x2="525.59" y1="390.9333" y2="388.08"/><line style="stroke:#181818;stroke-width:1;" x1="224.7253" x2="224.1906" y1="572.3558" y2="582.3415"/><line style="stroke:#181818;stroke-width:1;" x1="224.7253" x2="214.9894" y1="572.3558" y2="574.6385"/><line style="stroke:#181818;stroke-width:1;" x1="224.7253" x2="219.59" y1="572.3558" y2="578.49"/><ellipse cx="228.5768" cy="567.7552" fill="none" rx="4" ry="4" style="stroke:#181818;stroke-width:1;"/><text fill="#000000" font-family="sans-serif" font-size="13" lengthAdjust="spacing" textLength="68.0596" x="342.76" y="483.8169">student_id</text></g><!--link students to conversations--><g class="link" data-entity-1="students" data-entity-2="conversations" data-source-line="139" data-uid="lnk20" id="link_students_conversations"><path codeLine="139" d="M628.4452,432.7476 C628.0752,447.9376 627.95,455.87 627.76,470.75 C627.66,478.3 626.7,480.27 627.76,487.75 C633.04,525.13 638.5301,548.3285 649.1801,581.9885" fill="none" id="students-conversations" style="stroke:#181818;stroke-width:1;"/><line style="stroke:#181818;stroke-width:1;" x1="624.5438" x2="632.5414" y1="428.6514" y2="428.8462"/><line style="stroke:#181818;stroke-width:1;" x1="624.4707" x2="632.4684" y1="431.6505" y2="431.8453"/><line style="stroke:#181818;stroke-width:1;" x1="628.4452" x2="628.64" y1="432.7476" y2="424.75"/><line style="stroke:#181818;stroke-width:1;" x1="652.1967" x2="660.3305" y1="591.5227" y2="597.34"/><line style="stroke:#181818;stroke-width:1;" x1="652.1967" x2="648.8895" y1="591.5227" y2="600.96"/><line style="stroke:#181818;stroke-width:1;" x1="652.1967" x2="654.61" y1="591.5227" y2="599.15"/><ellipse cx="650.3868" cy="585.8022" fill="none" rx="4" ry="4" style="stroke:#181818;stroke-width:1;"/><text fill="#000000" font-family="sans-serif" font-size="13" lengthAdjust="spacing" textLength="68.0596" x="628.76" y="483.8169">student_id</text></g><!--link instructors to conversations--><g class="link" data-entity-1="instructors" data-entity-2="conversations" data-source-line="141" data-uid="lnk21" id="link_instructors_conversations"><path codeLine="141" d="M902.6204,430.8011 C876.3904,459.6711 851.32,487.31 823.76,517.75 C799.8,544.21 785.6762,559.8541 762.3862,585.6741" fill="none" id="instructors-conversations" style="stroke:#181818;stroke-width:1;"/><line style="stroke:#181818;stroke-width:1;" x1="902.3496" x2="908.2707" y1="425.1507" y2="430.5304"/><line style="stroke:#181818;stroke-width:1;" x1="900.3323" x2="906.2534" y1="427.3711" y2="432.7508"/><line style="stroke:#181818;stroke-width:1;" x1="902.6204" x2="908" y1="430.8011" y2="424.88"/><line style="stroke:#181818;stroke-width:1;" x1="755.6883" x2="754.7853" y1="593.0996" y2="603.0587"/><line style="stroke:#181818;stroke-width:1;" x1="755.6883" x2="745.8747" y1="593.0996" y2="595.0213"/><line style="stroke:#181818;stroke-width:1;" x1="755.6883" x2="750.33" y1="593.0996" y2="599.04"/><ellipse cx="759.7071" cy="588.6443" fill="none" rx="4" ry="4" style="stroke:#181818;stroke-width:1;"/><text fill="#000000" font-family="sans-serif" font-size="13" lengthAdjust="spacing" textLength="81.2119" x="866.76" y="483.8169">instructor_id</text></g><!--link weekly_responses to progress_images--><g class="link" data-entity-1="weekly_responses" data-entity-2="progress_images" data-source-line="143" data-uid="lnk22" id="link_weekly_responses_progress_images"><path codeLine="143" d="M151.76,781.61 C151.76,832.28 151.76,866.59 151.76,909.51" fill="none" id="weekly_responses-progress_images" style="stroke:#181818;stroke-width:1;"/><line style="stroke:#181818;stroke-width:1;" x1="147.76" x2="155.76" y1="777.61" y2="777.61"/><line style="stroke:#181818;stroke-width:1;" x1="147.76" x2="155.76" y1="780.61" y2="780.61"/><line style="stroke:#181818;stroke-width:1;" x1="151.76" x2="151.76" y1="781.61" y2="773.61"/><line style="stroke:#181818;stroke-width:1;" x1="151.76" x2="157.76" y1="919.51" y2="927.51"/><line style="stroke:#181818;stroke-width:1;" x1="151.76" x2="145.76" y1="919.51" y2="927.51"/><line style="stroke:#181818;stroke-width:1;" x1="151.76" x2="151.76" y1="919.51" y2="927.51"/><ellipse cx="151.76" cy="913.51" fill="none" rx="4" ry="4" style="stroke:#181818;stroke-width:1;"/><text fill="#000000" font-family="sans-serif" font-size="13" lengthAdjust="spacing" textLength="129.6572" x="152.76" y="877.5669">weekly_response_id</text></g><!--link conversations to messages--><g class="link" data-entity-1="conversations" data-entity-2="messages" data-source-line="145" data-uid="lnk23" id="link_conversations_messages"><path codeLine="145" d="M752.4736,759.2615 C775.9736,785.6215 797.77,808.97 823.76,834.5 C850.15,860.43 866.599,875.6228 894.079,899.3628" fill="none" id="conversations-messages" style="stroke:#181818;stroke-width:1;"/><line style="stroke:#181818;stroke-width:1;" x1="746.8261" x2="752.7976" y1="758.9376" y2="753.6139"/><line style="stroke:#181818;stroke-width:1;" x1="748.8224" x2="754.7939" y1="761.1769" y2="755.8533"/><line style="stroke:#181818;stroke-width:1;" x1="752.4736" x2="747.15" y1="759.2615" y2="753.29"/><line style="stroke:#181818;stroke-width:1;" x1="901.6462" x2="911.6224" y1="905.9001" y2="906.5897"/><line style="stroke:#181818;stroke-width:1;" x1="901.6462" x2="903.7776" y1="905.9001" y2="915.6703"/><line style="stroke:#181818;stroke-width:1;" x1="901.6462" x2="907.7" y1="905.9001" y2="911.13"/><ellipse cx="897.1059" cy="901.9777" fill="none" rx="4" ry="4" style="stroke:#181818;stroke-width:1;"/><text fill="#000000" font-family="sans-serif" font-size="13" lengthAdjust="spacing" textLength="102.3813" x="875.76" y="877.5669">conversation_id</text></g><!--SRC=[lLPDSzem4BtxLoZaq3A5QS-T33DkObecdoKaqvj7jXUyZInx93dK3VtlbS20BPiaJ6bo8jfzk-_jhbSwYc2A7CY41WpUSvf0Bm8PTad8g9J4710gISSSTiZ92Na_wHqFXwx-wvB1m3agyVS8yrV1xtl71ZmSrk2dASiJNWrGXsuSRmGcL1JdK5ITJuA1-U_aOp2efRivh-GOfW9mncqebb2iGuS6wiW7v1aLD5a9SfKI6EGAHc7AR_4ta4-E0roXAaWdbo1aXpmv7weiCUgHMsyySY-wJh_lb48XeSXwvDuTdtvpn-JkQlJzpkkkhPbEDKz5j77OM9R46wUPIAV8mCymLBbeSJ3KV5LaBQPG05KG-LJro6HqwTrEtCkRBJ2Bsgn_jggHIoNoKAKlQwyqO4d8c4TN4- -hjwKZCmYHCbKqcGQOQXBUZyd1k4kLH_htGOW7A5JicumzSkPEAisCK_vVw-wNClPGKG7Nj5HSog3jJL9KvV90cZIprVZRhBOCQiAf_WOuIDodQy-9eJDe7iurCjOypxpJqQM9Lvx7EyuJY32ap8zHQlg5DQTPNCYbcM62kdQOSccvKCP0p13iyrNWDaGQ_8HGuMC3md0AKXLw7vXT9Z0pQCj7Ce3CpwXI81es9K1Ady4Zi8FtU4TJvm0FhF1ruamhXKFrreJrUPu489h6TJ9VmIzbrM0Am93Fcl8Zd4unp9bgjehd-d8mjVPvgXhMV_tUzOwVBVkYIpBRgq1MRLiBjGngvY5-TSShtFHb-AZlljMOljqQUfDra-YQxrdmQZbs2mCUxRXAofHjSubIzv5gp9VhwmlFlTgZINeeSRhU9OUuyNHOrdAnbUnVIxnAQySJHG1RQjjZ1hJkTsHiS4PjZ9bqbiypibZq- -aJgRnQoEVLqqs7xzITri-3tHxhuJ0UcuPQFhMwrq8vLHODOkjhtK1gezfnDiIU1Mq7MgUgGHOBihb5RKyxjhsPN_AlxO86ZHR53O0brcamA87MHZJGvghJ-7g2bivPtsldBm00]--></g></svg>