<svg xmlns="http://www.w3.org/2000/svg" xmlns:xlink="http://www.w3.org/1999/xlink" contentStyleType="text/css" data-diagram-type="SEQUENCE" height="1398px" preserveAspectRatio="none" style="width:1957px;height:1398px;background:#FFFFFF;" version="1.1" viewBox="0 0 1957 1398" width="1957px" zoomAndPan="magnify"><defs/><g><g><title>Backend</title><rect fill="#FFFFFF" height="990.8594" style="stroke:#181818;stroke-width:1;" width="10" x="930.189" y="266.0938"/></g><g><title>Backend</title><rect fill="#FFFFFF" height="87.3984" style="stroke:#181818;stroke-width:1;" width="10" x="1252.5786" y="295.2266"/></g><g><title>Backend</title><rect fill="#FFFFFF" height="87.3984" style="stroke:#181818;stroke-width:1;" width="10" x="1252.5786" y="435.8906"/></g><g><title>Backend</title><rect fill="#FFFFFF" height="87.3984" style="stroke:#181818;stroke-width:1;" width="10" x="1252.5786" y="576.5547"/></g><g><title>Backend</title><rect fill="#FFFFFF" height="87.3984" style="stroke:#181818;stroke-width:1;" width="10" x="1252.5786" y="693.0859"/></g><g><title>Banco de Dados</title><rect fill="#FFFFFF" height="29.1328" style="stroke:#181818;stroke-width:1;" width="10" x="1855.5093" y="324.3594"/></g><g><title>Banco de Dados</title><rect fill="#FFFFFF" height="29.1328" style="stroke:#181818;stroke-width:1;" width="10" x="1855.5093" y="465.0234"/></g><g><title>Banco de Dados</title><rect fill="#FFFFFF" height="29.1328" style="stroke:#181818;stroke-width:1;" width="10" x="1855.5093" y="605.6875"/></g><g><title>Banco de Dados</title><rect fill="#FFFFFF" height="29.1328" style="stroke:#181818;stroke-width:1;" width="10" x="1855.5093" y="722.2188"/></g><rect fill="none" height="1073.0625" style="stroke:#000000;stroke-width:1.5;" width="1940.4219" x="10" y="227.8281"/><rect fill="none" height="852.3281" style="stroke:#000000;stroke-width:1.5;" width="1920.4219" x="20" y="397.625"/><rect fill="none" height="423.6641" style="stroke:#000000;stroke-width:1.5;" width="1890.4219" x="40" y="538.2891"/><rect fill="none" height="193.9297" style="stroke:#000000;stroke-width:1.5;" width="1006.1982" x="30" y="1049.0234"/><rect fill="none" height="133.6641" style="stroke:#000000;stroke-width:1.5;" width="986.1982" x="40" y="1102.2891"/><g><title>Instrutor</title><rect fill="#000000" fill-opacity="0.00000" height="1236.5938" width="8" x="79.1123" y="81.2969"/><line style="stroke:#181818;stroke-width:0.5;stroke-dasharray:5.0,5.0;" x1="83" x2="83" y1="81.2969" y2="1317.8906"/></g><g><title>Frontend</title><rect fill="#000000" fill-opacity="0.00000" height="1236.5938" width="8" x="453.1294" y="81.2969"/><line style="stroke:#181818;stroke-width:0.5;stroke-dasharray:5.0,5.0;" x1="456.9067" x2="456.9067" y1="81.2969" y2="1317.8906"/></g><g><title>Backend</title><rect fill="#000000" fill-opacity="0.00000" height="1236.5938" width="8" x="931.189" y="81.2969"/><line style="stroke:#181818;stroke-width:0.5;stroke-dasharray:5.0,5.0;" x1="935.1797" x2="935.1797" y1="81.2969" y2="1317.8906"/></g><g><title>Backend</title><rect fill="#000000" fill-opacity="0.00000" height="1236.5938" width="8" x="1253.5786" y="81.2969"/><line style="stroke:#181818;stroke-width:0.5;stroke-dasharray:5.0,5.0;" x1="1257.1387" x2="1257.1387" y1="81.2969" y2="1317.8906"/></g><g><title>Banco de Dados</title><rect fill="#000000" fill-opacity="0.00000" height="1236.5938" width="8" x="1856.5093" y="81.2969"/><line style="stroke:#181818;stroke-width:0.5;stroke-dasharray:5.0,5.0;" x1="1859.5967" x2="1859.5967" y1="81.2969" y2="1317.8906"/></g><g class="participant participant-head" data-participant="Instructor"><text fill="#000000" font-family="sans-serif" font-size="14" lengthAdjust="spacing" textLength="60.2246" x="50" y="77.9951">Instrutor</text><ellipse cx="83.1123" cy="13.5" fill="#E2E2F0" rx="8" ry="8" style="stroke:#181818;stroke-width:0.5;"/><path d="M83.1123,21.5 L83.1123,48.5 M70.1123,29.5 L96.1123,29.5 M83.1123,48.5 L70.1123,63.5 M83.1123,48.5 L96.1123,63.5" fill="none" style="stroke:#181818;stroke-width:0.5;"/></g><g class="participant participant-tail" data-participant="Instructor"><text fill="#000000" font-family="sans-serif" font-size="14" lengthAdjust="spacing" textLength="60.2246" x="50" y="1329.8857">Instrutor</text><ellipse cx="83.1123" cy="1341.6875" fill="#E2E2F0" rx="8" ry="8" style="stroke:#181818;stroke-width:0.5;"/><path d="M83.1123,1349.6875 L83.1123,1376.6875 M70.1123,1357.6875 L96.1123,1357.6875 M83.1123,1376.6875 L70.1123,1391.6875 M83.1123,1376.6875 L96.1123,1391.6875" fill="none" style="stroke:#181818;stroke-width:0.5;"/></g><g class="participant participant-head" data-participant="Frontend"><rect fill="#E2E2F0" height="46.5938" rx="2.5" ry="2.5" style="stroke:#181818;stroke-width:0.5;" width="206.4453" x="353.9067" y="33.7031"/><text fill="#000000" font-family="sans-serif" font-size="14" lengthAdjust="spacing" textLength="63.1094" x="425.5747" y="53.6982">Frontend</text><text fill="#000000" font-family="sans-serif" font-size="14" lengthAdjust="spacing" textLength="192.4453" x="360.9067" y="69.9951">(Gerenciamento de Alunos)</text></g><g class="participant participant-tail" data-participant="Frontend"><rect fill="#E2E2F0" height="46.5938" rx="2.5" ry="2.5" style="stroke:#181818;stroke-width:0.5;" width="206.4453" x="353.9067" y="1316.8906"/><text fill="#000000" font-family="sans-serif" font-size="14" lengthAdjust="spacing" textLength="63.1094" x="425.5747" y="1336.8857">Frontend</text><text fill="#000000" font-family="sans-serif" font-size="14" lengthAdjust="spacing" textLength="192.4453" x="360.9067" y="1353.1826">(Gerenciamento de Alunos)</text></g><g class="participant participant-head" data-participant="Controller"><rect fill="#E2E2F0" height="46.5938" rx="2.5" ry="2.5" style="stroke:#181818;stroke-width:0.5;" width="162.0186" x="854.1797" y="33.7031"/><text fill="#000000" font-family="sans-serif" font-size="14" lengthAdjust="spacing" textLength="60.3613" x="905.0083" y="53.6982">Backend</text><text fill="#000000" font-family="sans-serif" font-size="14" lengthAdjust="spacing" textLength="148.0186" x="861.1797" y="69.9951">(InstructorController)</text></g><g class="participant participant-tail" data-participant="Controller"><rect fill="#E2E2F0" height="46.5938" rx="2.5" ry="2.5" style="stroke:#181818;stroke-width:0.5;" width="162.0186" x="854.1797" y="1316.8906"/><text fill="#000000" font-family="sans-serif" font-size="14" lengthAdjust="spacing" textLength="60.3613" x="905.0083" y="1336.8857">Backend</text><text fill="#000000" font-family="sans-serif" font-size="14" lengthAdjust="spacing" textLength="148.0186" x="861.1797" y="1353.1826">(InstructorController)</text></g><g class="participant participant-head" data-participant="Model"><rect fill="#E2E2F0" height="46.5938" rx="2.5" ry="2.5" style="stroke:#181818;stroke-width:0.5;" width="134.8799" x="1190.1387" y="33.7031"/><text fill="#000000" font-family="sans-serif" font-size="14" lengthAdjust="spacing" textLength="60.3613" x="1227.3979" y="53.6982">Backend</text><text fill="#000000" font-family="sans-serif" font-size="14" lengthAdjust="spacing" textLength="120.8799" x="1197.1387" y="69.9951">(InstructorModel)</text></g><g class="participant participant-tail" data-participant="Model"><rect fill="#E2E2F0" height="46.5938" rx="2.5" ry="2.5" style="stroke:#181818;stroke-width:0.5;" width="134.8799" x="1190.1387" y="1316.8906"/><text fill="#000000" font-family="sans-serif" font-size="14" lengthAdjust="spacing" textLength="60.3613" x="1227.3979" y="1336.8857">Backend</text><text fill="#000000" font-family="sans-serif" font-size="14" lengthAdjust="spacing" textLength="120.8799" x="1197.1387" y="1353.1826">(InstructorModel)</text></g><g class="participant participant-head" data-participant="DB"><text fill="#000000" font-family="sans-serif" font-size="14" lengthAdjust="spacing" textLength="113.8252" x="1800.5967" y="77.9951">Banco de Dados</text><path d="M1842.5093,29 C1842.5093,19 1860.5093,19 1860.5093,19 C1860.5093,19 1878.5093,19 1878.5093,29 L1878.5093,55 C1878.5093,65 1860.5093,65 1860.5093,65 C1860.5093,65 1842.5093,65 1842.5093,55 L1842.5093,29" fill="#E2E2F0" style="stroke:#181818;stroke-width:1.5;"/><path d="M1842.5093,29 C1842.5093,39 1860.5093,39 1860.5093,39 C1860.5093,39 1878.5093,39 1878.5093,29" fill="none" style="stroke:#181818;stroke-width:1.5;"/></g><g class="participant participant-tail" data-participant="DB"><text fill="#000000" font-family="sans-serif" font-size="14" lengthAdjust="spacing" textLength="113.8252" x="1800.5967" y="1329.8857">Banco de Dados</text><path d="M1842.5093,1343.1875 C1842.5093,1333.1875 1860.5093,1333.1875 1860.5093,1333.1875 C1860.5093,1333.1875 1878.5093,1333.1875 1878.5093,1343.1875 L1878.5093,1369.1875 C1878.5093,1379.1875 1860.5093,1379.1875 1860.5093,1379.1875 C1860.5093,1379.1875 1842.5093,1379.1875 1842.5093,1369.1875 L1842.5093,1343.1875" fill="#E2E2F0" style="stroke:#181818;stroke-width:1.5;"/><path d="M1842.5093,1343.1875 C1842.5093,1353.1875 1860.5093,1353.1875 1860.5093,1353.1875 C1860.5093,1353.1875 1878.5093,1353.1875 1878.5093,1343.1875" fill="none" style="stroke:#181818;stroke-width:1.5;"/></g><g><title>Backend</title><rect fill="#FFFFFF" height="990.8594" style="stroke:#181818;stroke-width:1;" width="10" x="930.189" y="266.0938"/></g><g><title>Backend</title><rect fill="#FFFFFF" height="87.3984" style="stroke:#181818;stroke-width:1;" width="10" x="1252.5786" y="295.2266"/></g><g><title>Backend</title><rect fill="#FFFFFF" height="87.3984" style="stroke:#181818;stroke-width:1;" width="10" x="1252.5786" y="435.8906"/></g><g><title>Backend</title><rect fill="#FFFFFF" height="87.3984" style="stroke:#181818;stroke-width:1;" width="10" x="1252.5786" y="576.5547"/></g><g><title>Backend</title><rect fill="#FFFFFF" height="87.3984" style="stroke:#181818;stroke-width:1;" width="10" x="1252.5786" y="693.0859"/></g><g><title>Banco de Dados</title><rect fill="#FFFFFF" height="29.1328" style="stroke:#181818;stroke-width:1;" width="10" x="1855.5093" y="324.3594"/></g><g><title>Banco de Dados</title><rect fill="#FFFFFF" height="29.1328" style="stroke:#181818;stroke-width:1;" width="10" x="1855.5093" y="465.0234"/></g><g><title>Banco de Dados</title><rect fill="#FFFFFF" height="29.1328" style="stroke:#181818;stroke-width:1;" width="10" x="1855.5093" y="605.6875"/></g><g><title>Banco de Dados</title><rect fill="#FFFFFF" height="29.1328" style="stroke:#181818;stroke-width:1;" width="10" x="1855.5093" y="722.2188"/></g><g class="message" data-participant-1="Instructor" data-participant-2="Frontend"><polygon fill="#181818" points="445.1294,108.4297,455.1294,112.4297,445.1294,116.4297,449.1294,112.4297" style="stroke:#181818;stroke-width:1;"/><line style="stroke:#181818;stroke-width:1;" x1="83.1123" x2="451.1294" y1="112.4297" y2="112.4297"/><text fill="#000000" font-family="sans-serif" font-size="13" font-weight="bold" lengthAdjust="spacing" textLength="9.0454" x="90.1123" y="107.3638">1</text><text fill="#000000" font-family="sans-serif" font-size="13" lengthAdjust="spacing" textLength="287.041" x="103.1577" y="107.3638">Acessa p&#225;gina de Gerenciamento de Alunos</text></g><g class="message" data-participant-1="Instructor" data-participant-2="Frontend"><polygon fill="#181818" points="445.1294,137.5625,455.1294,141.5625,445.1294,145.5625,449.1294,141.5625" style="stroke:#181818;stroke-width:1;"/><line style="stroke:#181818;stroke-width:1;" x1="83.1123" x2="451.1294" y1="141.5625" y2="141.5625"/><text fill="#000000" font-family="sans-serif" font-size="13" font-weight="bold" lengthAdjust="spacing" textLength="9.0454" x="90.1123" y="136.4966">2</text><text fill="#000000" font-family="sans-serif" font-size="13" lengthAdjust="spacing" textLength="129.1938" x="103.1577" y="136.4966">Insere CPF do aluno</text></g><g class="message" data-participant-1="Instructor" data-participant-2="Frontend"><polygon fill="#181818" points="445.1294,166.6953,455.1294,170.6953,445.1294,174.6953,449.1294,170.6953" style="stroke:#181818;stroke-width:1;"/><line style="stroke:#181818;stroke-width:1;" x1="83.1123" x2="451.1294" y1="170.6953" y2="170.6953"/><text fill="#000000" font-family="sans-serif" font-size="13" font-weight="bold" lengthAdjust="spacing" textLength="9.0454" x="90.1123" y="165.6294">3</text><text fill="#000000" font-family="sans-serif" font-size="13" lengthAdjust="spacing" textLength="177.1567" x="103.1577" y="165.6294">Clica em "Cadastrar Aluno"</text></g><g class="message" data-participant-1="Frontend" data-participant-2="Frontend"><line style="stroke:#181818;stroke-width:1;" x1="457.1294" x2="499.1294" y1="199.8281" y2="199.8281"/><line style="stroke:#181818;stroke-width:1;" x1="499.1294" x2="499.1294" y1="199.8281" y2="212.8281"/><line style="stroke:#181818;stroke-width:1;" x1="458.1294" x2="499.1294" y1="212.8281" y2="212.8281"/><polygon fill="#181818" points="468.1294,208.8281,458.1294,212.8281,468.1294,216.8281,464.1294,212.8281" style="stroke:#181818;stroke-width:1;"/><text fill="#000000" font-family="sans-serif" font-size="13" font-weight="bold" lengthAdjust="spacing" textLength="9.0454" x="464.1294" y="194.7622">4</text><text fill="#000000" font-family="sans-serif" font-size="13" lengthAdjust="spacing" textLength="144.8535" x="477.1748" y="194.7622">Valida formato do CPF</text></g><path d="M10,227.8281 L74.4429,227.8281 L74.4429,234.9609 L64.4429,244.9609 L10,244.9609 L10,227.8281" fill="#EEEEEE" style="stroke:#000000;stroke-width:1.5;"/><rect fill="none" height="1073.0625" style="stroke:#000000;stroke-width:1.5;" width="1940.4219" x="10" y="227.8281"/><text fill="#000000" font-family="sans-serif" font-size="13" font-weight="bold" lengthAdjust="spacing" textLength="19.4429" x="25" y="240.895">alt</text><text fill="#000000" font-family="sans-serif" font-size="11" font-weight="bold" lengthAdjust="spacing" textLength="151.1479" x="89.4429" y="240.0386">[CPF em formato v&#225;lido]</text><g class="message" data-participant-1="Frontend" data-participant-2="Controller"><polygon fill="#181818" points="918.189,262.0938,928.189,266.0938,918.189,270.0938,922.189,266.0938" style="stroke:#181818;stroke-width:1;"/><line style="stroke:#181818;stroke-width:1;" x1="457.1294" x2="924.189" y1="266.0938" y2="266.0938"/><text fill="#000000" font-family="sans-serif" font-size="13" font-weight="bold" lengthAdjust="spacing" textLength="9.0454" x="464.1294" y="261.0278">5</text><text fill="#000000" font-family="sans-serif" font-size="13" lengthAdjust="spacing" textLength="333.4614" x="477.1748" y="261.0278">POST /api/instructor/link-student (CPF, instructorId)</text></g><g class="message" data-participant-1="Controller" data-participant-2="Model"><polygon fill="#181818" points="1240.5786,291.2266,1250.5786,295.2266,1240.5786,299.2266,1244.5786,295.2266" style="stroke:#181818;stroke-width:1;"/><line style="stroke:#181818;stroke-width:1;" x1="940.189" x2="1246.5786" y1="295.2266" y2="295.2266"/><text fill="#000000" font-family="sans-serif" font-size="13" font-weight="bold" lengthAdjust="spacing" textLength="9.0454" x="947.189" y="290.1606">6</text><text fill="#000000" font-family="sans-serif" font-size="13" lengthAdjust="spacing" textLength="151.3979" x="960.2344" y="290.1606">findStudentByCPF(CPF)</text></g><g class="message" data-participant-1="Model" data-participant-2="DB"><polygon fill="#181818" points="1843.5093,320.3594,1853.5093,324.3594,1843.5093,328.3594,1847.5093,324.3594" style="stroke:#181818;stroke-width:1;"/><line style="stroke:#181818;stroke-width:1;" x1="1262.5786" x2="1849.5093" y1="324.3594" y2="324.3594"/><text fill="#000000" font-family="sans-serif" font-size="13" font-weight="bold" lengthAdjust="spacing" textLength="9.0454" x="1269.5786" y="319.2935">7</text><text fill="#000000" font-family="sans-serif" font-size="13" lengthAdjust="spacing" textLength="340.0884" x="1282.624" y="319.2935">SELECT * FROM users JOIN students WHERE CPF = ?</text></g><g class="message" data-participant-1="DB" data-participant-2="Model"><polygon fill="#181818" points="1273.5786,349.4922,1263.5786,353.4922,1273.5786,357.4922,1269.5786,353.4922" style="stroke:#181818;stroke-width:1;"/><line style="stroke:#181818;stroke-width:1;stroke-dasharray:2.0,2.0;" x1="1267.5786" x2="1859.5093" y1="353.4922" y2="353.4922"/><text fill="#000000" font-family="sans-serif" font-size="13" font-weight="bold" lengthAdjust="spacing" textLength="9.0454" x="1279.5786" y="348.4263">8</text><text fill="#000000" font-family="sans-serif" font-size="13" lengthAdjust="spacing" textLength="213.7446" x="1292.624" y="348.4263">Retorna dados do aluno (ou null)</text></g><g class="message" data-participant-1="Model" data-participant-2="Controller"><polygon fill="#181818" points="951.189,378.625,941.189,382.625,951.189,386.625,947.189,382.625" style="stroke:#181818;stroke-width:1;"/><line style="stroke:#181818;stroke-width:1;stroke-dasharray:2.0,2.0;" x1="945.189" x2="1256.5786" y1="382.625" y2="382.625"/><text fill="#000000" font-family="sans-serif" font-size="13" font-weight="bold" lengthAdjust="spacing" textLength="9.0454" x="957.189" y="377.5591">9</text><text fill="#000000" font-family="sans-serif" font-size="13" lengthAdjust="spacing" textLength="213.7446" x="970.2344" y="377.5591">Retorna dados do aluno (ou null)</text></g><path d="M20,397.625 L84.4429,397.625 L84.4429,404.7578 L74.4429,414.7578 L20,414.7578 L20,397.625" fill="#EEEEEE" style="stroke:#000000;stroke-width:1.5;"/><rect fill="none" height="852.3281" style="stroke:#000000;stroke-width:1.5;" width="1920.4219" x="20" y="397.625"/><text fill="#000000" font-family="sans-serif" font-size="13" font-weight="bold" lengthAdjust="spacing" textLength="19.4429" x="35" y="410.6919">alt</text><text fill="#000000" font-family="sans-serif" font-size="11" font-weight="bold" lengthAdjust="spacing" textLength="120.1245" x="99.4429" y="409.8354">[Aluno encontrado]</text><g class="message" data-participant-1="Controller" data-participant-2="Model"><polygon fill="#181818" points="1240.5786,431.8906,1250.5786,435.8906,1240.5786,439.8906,1244.5786,435.8906" style="stroke:#181818;stroke-width:1;"/><line style="stroke:#181818;stroke-width:1;" x1="940.189" x2="1246.5786" y1="435.8906" y2="435.8906"/><text fill="#000000" font-family="sans-serif" font-size="13" font-weight="bold" lengthAdjust="spacing" textLength="18.0908" x="947.189" y="430.8247">10</text><text fill="#000000" font-family="sans-serif" font-size="13" lengthAdjust="spacing" textLength="271.2988" x="969.2798" y="430.8247">checkExistingLink(instructorId, studentId)</text></g><g class="message" data-participant-1="Model" data-participant-2="DB"><polygon fill="#181818" points="1843.5093,461.0234,1853.5093,465.0234,1843.5093,469.0234,1847.5093,465.0234" style="stroke:#181818;stroke-width:1;"/><line style="stroke:#181818;stroke-width:1;" x1="1262.5786" x2="1849.5093" y1="465.0234" y2="465.0234"/><text fill="#000000" font-family="sans-serif" font-size="13" font-weight="bold" lengthAdjust="spacing" textLength="18.0908" x="1269.5786" y="459.9575">11</text><text fill="#000000" font-family="sans-serif" font-size="13" lengthAdjust="spacing" textLength="519.4731" x="1291.6694" y="459.9575">SELECT * FROM instructor_student WHERE instructor_id = ? AND student_id = ?</text></g><g class="message" data-participant-1="DB" data-participant-2="Model"><polygon fill="#181818" points="1273.5786,490.1563,1263.5786,494.1563,1273.5786,498.1563,1269.5786,494.1563" style="stroke:#181818;stroke-width:1;"/><line style="stroke:#181818;stroke-width:1;stroke-dasharray:2.0,2.0;" x1="1267.5786" x2="1859.5093" y1="494.1563" y2="494.1563"/><text fill="#000000" font-family="sans-serif" font-size="13" font-weight="bold" lengthAdjust="spacing" textLength="18.0908" x="1279.5786" y="489.0903">12</text><text fill="#000000" font-family="sans-serif" font-size="13" lengthAdjust="spacing" textLength="160.564" x="1301.6694" y="489.0903">Retorna v&#237;nculo (ou null)</text></g><g class="message" data-participant-1="Model" data-participant-2="Controller"><polygon fill="#181818" points="951.189,519.2891,941.189,523.2891,951.189,527.2891,947.189,523.2891" style="stroke:#181818;stroke-width:1;"/><line style="stroke:#181818;stroke-width:1;stroke-dasharray:2.0,2.0;" x1="945.189" x2="1256.5786" y1="523.2891" y2="523.2891"/><text fill="#000000" font-family="sans-serif" font-size="13" font-weight="bold" lengthAdjust="spacing" textLength="18.0908" x="957.189" y="518.2231">13</text><text fill="#000000" font-family="sans-serif" font-size="13" lengthAdjust="spacing" textLength="166.6768" x="979.2798" y="518.2231">Retorna status do v&#237;nculo</text></g><path d="M40,538.2891 L104.4429,538.2891 L104.4429,545.4219 L94.4429,555.4219 L40,555.4219 L40,538.2891" fill="#EEEEEE" style="stroke:#000000;stroke-width:1.5;"/><rect fill="none" height="423.6641" style="stroke:#000000;stroke-width:1.5;" width="1890.4219" x="40" y="538.2891"/><text fill="#000000" font-family="sans-serif" font-size="13" font-weight="bold" lengthAdjust="spacing" textLength="19.4429" x="55" y="551.356">alt</text><text fill="#000000" font-family="sans-serif" font-size="11" font-weight="bold" lengthAdjust="spacing" textLength="123.9111" x="119.4429" y="550.4995">[V&#237;nculo n&#227;o existe]</text><g class="message" data-participant-1="Controller" data-participant-2="Model"><polygon fill="#181818" points="1240.5786,572.5547,1250.5786,576.5547,1240.5786,580.5547,1244.5786,576.5547" style="stroke:#181818;stroke-width:1;"/><line style="stroke:#181818;stroke-width:1;" x1="940.189" x2="1246.5786" y1="576.5547" y2="576.5547"/><text fill="#000000" font-family="sans-serif" font-size="13" font-weight="bold" lengthAdjust="spacing" textLength="18.0908" x="947.189" y="571.4888">14</text><text fill="#000000" font-family="sans-serif" font-size="13" lengthAdjust="spacing" textLength="229.29" x="969.2798" y="571.4888">linkStudent(instructorId, studentId)</text></g><g class="message" data-participant-1="Model" data-participant-2="DB"><polygon fill="#181818" points="1843.5093,601.6875,1853.5093,605.6875,1843.5093,609.6875,1847.5093,605.6875" style="stroke:#181818;stroke-width:1;"/><line style="stroke:#181818;stroke-width:1;" x1="1262.5786" x2="1849.5093" y1="605.6875" y2="605.6875"/><text fill="#000000" font-family="sans-serif" font-size="13" font-weight="bold" lengthAdjust="spacing" textLength="18.0908" x="1269.5786" y="600.6216">15</text><text fill="#000000" font-family="sans-serif" font-size="13" lengthAdjust="spacing" textLength="426.061" x="1291.6694" y="600.6216">INSERT INTO instructor_student (instructor_id, student_id, status)</text></g><g class="message" data-participant-1="DB" data-participant-2="Model"><polygon fill="#181818" points="1273.5786,630.8203,1263.5786,634.8203,1273.5786,638.8203,1269.5786,634.8203" style="stroke:#181818;stroke-width:1;"/><line style="stroke:#181818;stroke-width:1;stroke-dasharray:2.0,2.0;" x1="1267.5786" x2="1859.5093" y1="634.8203" y2="634.8203"/><text fill="#000000" font-family="sans-serif" font-size="13" font-weight="bold" lengthAdjust="spacing" textLength="18.0908" x="1279.5786" y="629.7544">16</text><text fill="#000000" font-family="sans-serif" font-size="13" lengthAdjust="spacing" textLength="82.5005" x="1301.6694" y="629.7544">Confirma&#231;&#227;o</text></g><g class="message" data-participant-1="Model" data-participant-2="Controller"><polygon fill="#181818" points="951.189,659.9531,941.189,663.9531,951.189,667.9531,947.189,663.9531" style="stroke:#181818;stroke-width:1;"/><line style="stroke:#181818;stroke-width:1;stroke-dasharray:2.0,2.0;" x1="945.189" x2="1256.5786" y1="663.9531" y2="663.9531"/><text fill="#000000" font-family="sans-serif" font-size="13" font-weight="bold" lengthAdjust="spacing" textLength="18.0908" x="957.189" y="658.8872">17</text><text fill="#000000" font-family="sans-serif" font-size="13" lengthAdjust="spacing" textLength="82.5005" x="979.2798" y="658.8872">Confirma&#231;&#227;o</text></g><g class="message" data-participant-1="Controller" data-participant-2="Model"><polygon fill="#181818" points="1240.5786,689.0859,1250.5786,693.0859,1240.5786,697.0859,1244.5786,693.0859" style="stroke:#181818;stroke-width:1;"/><line style="stroke:#181818;stroke-width:1;" x1="940.189" x2="1246.5786" y1="693.0859" y2="693.0859"/><text fill="#000000" font-family="sans-serif" font-size="13" font-weight="bold" lengthAdjust="spacing" textLength="18.0908" x="947.189" y="688.02">18</text><text fill="#000000" font-family="sans-serif" font-size="13" lengthAdjust="spacing" textLength="164.3726" x="969.2798" y="688.02">getStudents(instructorId)</text></g><g class="message" data-participant-1="Model" data-participant-2="DB"><polygon fill="#181818" points="1843.5093,718.2188,1853.5093,722.2188,1843.5093,726.2188,1847.5093,722.2188" style="stroke:#181818;stroke-width:1;"/><line style="stroke:#181818;stroke-width:1;" x1="1262.5786" x2="1849.5093" y1="722.2188" y2="722.2188"/><text fill="#000000" font-family="sans-serif" font-size="13" font-weight="bold" lengthAdjust="spacing" textLength="18.0908" x="1269.5786" y="717.1528">19</text><text fill="#000000" font-family="sans-serif" font-size="13" lengthAdjust="spacing" textLength="551.8398" x="1291.6694" y="717.1528">SELECT * FROM instructor_student JOIN students JOIN users WHERE instructor_id = ?</text></g><g class="message" data-participant-1="DB" data-participant-2="Model"><polygon fill="#181818" points="1273.5786,747.3516,1263.5786,751.3516,1273.5786,755.3516,1269.5786,751.3516" style="stroke:#181818;stroke-width:1;"/><line style="stroke:#181818;stroke-width:1;stroke-dasharray:2.0,2.0;" x1="1267.5786" x2="1859.5093" y1="751.3516" y2="751.3516"/><text fill="#000000" font-family="sans-serif" font-size="13" font-weight="bold" lengthAdjust="spacing" textLength="18.0908" x="1279.5786" y="746.2856">20</text><text fill="#000000" font-family="sans-serif" font-size="13" lengthAdjust="spacing" textLength="169.6221" x="1301.6694" y="746.2856">Lista atualizada de alunos</text></g><g class="message" data-participant-1="Model" data-participant-2="Controller"><polygon fill="#181818" points="951.189,776.4844,941.189,780.4844,951.189,784.4844,947.189,780.4844" style="stroke:#181818;stroke-width:1;"/><line style="stroke:#181818;stroke-width:1;stroke-dasharray:2.0,2.0;" x1="945.189" x2="1256.5786" y1="780.4844" y2="780.4844"/><text fill="#000000" font-family="sans-serif" font-size="13" font-weight="bold" lengthAdjust="spacing" textLength="18.0908" x="957.189" y="775.4185">21</text><text fill="#000000" font-family="sans-serif" font-size="13" lengthAdjust="spacing" textLength="169.6221" x="979.2798" y="775.4185">Lista atualizada de alunos</text></g><g class="message" data-participant-1="Controller" data-participant-2="Frontend"><polygon fill="#181818" points="468.1294,805.6172,458.1294,809.6172,468.1294,813.6172,464.1294,809.6172" style="stroke:#181818;stroke-width:1;"/><line style="stroke:#181818;stroke-width:1;stroke-dasharray:2.0,2.0;" x1="462.1294" x2="929.189" y1="809.6172" y2="809.6172"/><text fill="#000000" font-family="sans-serif" font-size="13" font-weight="bold" lengthAdjust="spacing" textLength="18.0908" x="474.1294" y="804.5513">22</text><text fill="#000000" font-family="sans-serif" font-size="13" lengthAdjust="spacing" textLength="426.9688" x="496.2202" y="804.5513">Resposta 201 Created (Sucesso, dados do aluno, lista atualizada)</text></g><g class="message" data-participant-1="Frontend" data-participant-2="Frontend"><line style="stroke:#181818;stroke-width:1;" x1="457.1294" x2="499.1294" y1="838.75" y2="838.75"/><line style="stroke:#181818;stroke-width:1;" x1="499.1294" x2="499.1294" y1="838.75" y2="851.75"/><line style="stroke:#181818;stroke-width:1;" x1="458.1294" x2="499.1294" y1="851.75" y2="851.75"/><polygon fill="#181818" points="468.1294,847.75,458.1294,851.75,468.1294,855.75,464.1294,851.75" style="stroke:#181818;stroke-width:1;"/><text fill="#000000" font-family="sans-serif" font-size="13" font-weight="bold" lengthAdjust="spacing" textLength="18.0908" x="464.1294" y="833.6841">23</text><text fill="#000000" font-family="sans-serif" font-size="13" lengthAdjust="spacing" textLength="234.3237" x="486.2202" y="833.6841">Atualiza lista de alunos cadastrados</text></g><g class="message" data-participant-1="Frontend" data-participant-2="Instructor"><polygon fill="#181818" points="94.1123,876.8828,84.1123,880.8828,94.1123,884.8828,90.1123,880.8828" style="stroke:#181818;stroke-width:1;"/><line style="stroke:#181818;stroke-width:1;" x1="88.1123" x2="456.1294" y1="880.8828" y2="880.8828"/><text fill="#000000" font-family="sans-serif" font-size="13" font-weight="bold" lengthAdjust="spacing" textLength="18.0908" x="100.1123" y="875.8169">24</text><text fill="#000000" font-family="sans-serif" font-size="13" lengthAdjust="spacing" textLength="188.627" x="122.2031" y="875.8169">Exibe mensagem de sucesso</text></g><line style="stroke:#000000;stroke-width:1;stroke-dasharray:2.0,2.0;" x1="40" x2="1930.4219" y1="889.8828" y2="889.8828"/><text fill="#000000" font-family="sans-serif" font-size="11" font-weight="bold" lengthAdjust="spacing" textLength="112.2935" x="45" y="900.0933">[V&#237;nculo j&#225; existe]</text><g class="message" data-participant-1="Controller" data-participant-2="Frontend"><polygon fill="#181818" points="468.1294,920.8203,458.1294,924.8203,468.1294,928.8203,464.1294,924.8203" style="stroke:#181818;stroke-width:1;"/><line style="stroke:#181818;stroke-width:1;stroke-dasharray:2.0,2.0;" x1="462.1294" x2="929.189" y1="924.8203" y2="924.8203"/><text fill="#000000" font-family="sans-serif" font-size="13" font-weight="bold" lengthAdjust="spacing" textLength="18.0908" x="474.1294" y="919.7544">25</text><text fill="#000000" font-family="sans-serif" font-size="13" lengthAdjust="spacing" textLength="276.0088" x="496.2202" y="919.7544">Resposta 409 Conflict (Aluno j&#225; vinculado)</text></g><g class="message" data-participant-1="Frontend" data-participant-2="Instructor"><polygon fill="#181818" points="94.1123,949.9531,84.1123,953.9531,94.1123,957.9531,90.1123,953.9531" style="stroke:#181818;stroke-width:1;"/><line style="stroke:#181818;stroke-width:1;" x1="88.1123" x2="456.1294" y1="953.9531" y2="953.9531"/><text fill="#000000" font-family="sans-serif" font-size="13" font-weight="bold" lengthAdjust="spacing" textLength="18.0908" x="100.1123" y="948.8872">26</text><text fill="#000000" font-family="sans-serif" font-size="13" lengthAdjust="spacing" textLength="327.9263" x="122.2031" y="948.8872">Exibe mensagem "Aluno j&#225; vinculado ao instrutor"</text></g><line style="stroke:#000000;stroke-width:1;stroke-dasharray:2.0,2.0;" x1="20" x2="1940.4219" y1="969.9531" y2="969.9531"/><text fill="#000000" font-family="sans-serif" font-size="11" font-weight="bold" lengthAdjust="spacing" textLength="146.7651" x="25" y="980.1636">[Aluno n&#227;o encontrado]</text><g class="message" data-participant-1="Controller" data-participant-2="Frontend"><polygon fill="#181818" points="468.1294,1000.8906,458.1294,1004.8906,468.1294,1008.8906,464.1294,1004.8906" style="stroke:#181818;stroke-width:1;"/><line style="stroke:#181818;stroke-width:1;stroke-dasharray:2.0,2.0;" x1="462.1294" x2="929.189" y1="1004.8906" y2="1004.8906"/><text fill="#000000" font-family="sans-serif" font-size="13" font-weight="bold" lengthAdjust="spacing" textLength="18.0908" x="474.1294" y="999.8247">27</text><text fill="#000000" font-family="sans-serif" font-size="13" lengthAdjust="spacing" textLength="330.2876" x="496.2202" y="999.8247">Resposta 404 Not Found (Usu&#225;rio n&#227;o encontrado)</text></g><g class="message" data-participant-1="Frontend" data-participant-2="Instructor"><polygon fill="#181818" points="94.1123,1030.0234,84.1123,1034.0234,94.1123,1038.0234,90.1123,1034.0234" style="stroke:#181818;stroke-width:1;"/><line style="stroke:#181818;stroke-width:1;" x1="88.1123" x2="456.1294" y1="1034.0234" y2="1034.0234"/><text fill="#000000" font-family="sans-serif" font-size="13" font-weight="bold" lengthAdjust="spacing" textLength="18.0908" x="100.1123" y="1028.9575">28</text><text fill="#000000" font-family="sans-serif" font-size="13" lengthAdjust="spacing" textLength="284.5654" x="122.2031" y="1028.9575">Exibe mensagem "Usu&#225;rio n&#227;o encontrado"</text></g><path d="M30,1049.0234 L99.4512,1049.0234 L99.4512,1056.1563 L89.4512,1066.1563 L30,1066.1563 L30,1049.0234" fill="#EEEEEE" style="stroke:#000000;stroke-width:1.5;"/><rect fill="none" height="193.9297" style="stroke:#000000;stroke-width:1.5;" width="1006.1982" x="30" y="1049.0234"/><text fill="#000000" font-family="sans-serif" font-size="13" font-weight="bold" lengthAdjust="spacing" textLength="24.4512" x="45" y="1062.0903">opt</text><text fill="#000000" font-family="sans-serif" font-size="11" font-weight="bold" lengthAdjust="spacing" textLength="113.3408" x="114.4512" y="1061.2339">[Oferecer convite]</text><g class="message" data-participant-1="Frontend" data-participant-2="Instructor"><polygon fill="#181818" points="94.1123,1083.2891,84.1123,1087.2891,94.1123,1091.2891,90.1123,1087.2891" style="stroke:#181818;stroke-width:1;"/><line style="stroke:#181818;stroke-width:1;" x1="88.1123" x2="456.1294" y1="1087.2891" y2="1087.2891"/><text fill="#000000" font-family="sans-serif" font-size="13" font-weight="bold" lengthAdjust="spacing" textLength="18.0908" x="100.1123" y="1082.2231">29</text><text fill="#000000" font-family="sans-serif" font-size="13" lengthAdjust="spacing" textLength="238.8433" x="122.2031" y="1082.2231">Exibe op&#231;&#227;o para convidar por email</text></g><path d="M40,1102.2891 L104.4429,1102.2891 L104.4429,1109.4219 L94.4429,1119.4219 L40,1119.4219 L40,1102.2891" fill="#EEEEEE" style="stroke:#000000;stroke-width:1.5;"/><rect fill="none" height="133.6641" style="stroke:#000000;stroke-width:1.5;" width="986.1982" x="40" y="1102.2891"/><text fill="#000000" font-family="sans-serif" font-size="13" font-weight="bold" lengthAdjust="spacing" textLength="19.4429" x="55" y="1115.356">alt</text><text fill="#000000" font-family="sans-serif" font-size="11" font-weight="bold" lengthAdjust="spacing" textLength="167.4707" x="119.4429" y="1114.4995">[Instrutor decide convidar]</text><g class="message" data-participant-1="Instructor" data-participant-2="Frontend"><polygon fill="#181818" points="445.1294,1136.5547,455.1294,1140.5547,445.1294,1144.5547,449.1294,1140.5547" style="stroke:#181818;stroke-width:1;"/><line style="stroke:#181818;stroke-width:1;" x1="83.1123" x2="451.1294" y1="1140.5547" y2="1140.5547"/><text fill="#000000" font-family="sans-serif" font-size="13" font-weight="bold" lengthAdjust="spacing" textLength="18.0908" x="90.1123" y="1135.4888">30</text><text fill="#000000" font-family="sans-serif" font-size="13" lengthAdjust="spacing" textLength="153.937" x="112.2031" y="1135.4888">Insere email e confirma</text></g><g class="message" data-participant-1="Frontend" data-participant-2="Controller"><polygon fill="#181818" points="918.189,1165.6875,928.189,1169.6875,918.189,1173.6875,922.189,1169.6875" style="stroke:#181818;stroke-width:1;"/><line style="stroke:#181818;stroke-width:1;" x1="457.1294" x2="924.189" y1="1169.6875" y2="1169.6875"/><text fill="#000000" font-family="sans-serif" font-size="13" font-weight="bold" lengthAdjust="spacing" textLength="18.0908" x="464.1294" y="1164.6216">31</text><text fill="#000000" font-family="sans-serif" font-size="13" lengthAdjust="spacing" textLength="274.9805" x="486.2202" y="1164.6216">POST /api/instructor/invite-student (email)</text></g><g class="message" data-participant-1="Controller" data-participant-2="Frontend"><polygon fill="#181818" points="468.1294,1194.8203,458.1294,1198.8203,468.1294,1202.8203,464.1294,1198.8203" style="stroke:#181818;stroke-width:1;"/><line style="stroke:#181818;stroke-width:1;stroke-dasharray:2.0,2.0;" x1="462.1294" x2="929.189" y1="1198.8203" y2="1198.8203"/><text fill="#000000" font-family="sans-serif" font-size="13" font-weight="bold" lengthAdjust="spacing" textLength="18.0908" x="474.1294" y="1193.7544">32</text><text fill="#000000" font-family="sans-serif" font-size="13" lengthAdjust="spacing" textLength="179.6387" x="496.2202" y="1193.7544">Resposta (Convite enviado)</text></g><g class="message" data-participant-1="Frontend" data-participant-2="Instructor"><polygon fill="#181818" points="94.1123,1223.9531,84.1123,1227.9531,94.1123,1231.9531,90.1123,1227.9531" style="stroke:#181818;stroke-width:1;"/><line style="stroke:#181818;stroke-width:1;" x1="88.1123" x2="456.1294" y1="1227.9531" y2="1227.9531"/><text fill="#000000" font-family="sans-serif" font-size="13" font-weight="bold" lengthAdjust="spacing" textLength="18.0908" x="100.1123" y="1222.8872">33</text><text fill="#000000" font-family="sans-serif" font-size="13" lengthAdjust="spacing" textLength="248.5742" x="122.2031" y="1222.8872">Exibe confirma&#231;&#227;o de convite enviado</text></g><line style="stroke:#000000;stroke-width:1;stroke-dasharray:2.0,2.0;" x1="10" x2="1950.4219" y1="1257.9531" y2="1257.9531"/><text fill="#000000" font-family="sans-serif" font-size="11" font-weight="bold" lengthAdjust="spacing" textLength="162.7495" x="15" y="1268.1636">[CPF em formato inv&#225;lido]</text><g class="message" data-participant-1="Frontend" data-participant-2="Instructor"><polygon fill="#181818" points="94.1123,1288.8906,84.1123,1292.8906,94.1123,1296.8906,90.1123,1292.8906" style="stroke:#181818;stroke-width:1;"/><line style="stroke:#181818;stroke-width:1;" x1="88.1123" x2="456.1294" y1="1292.8906" y2="1292.8906"/><text fill="#000000" font-family="sans-serif" font-size="13" font-weight="bold" lengthAdjust="spacing" textLength="18.0908" x="100.1123" y="1287.8247">34</text><text fill="#000000" font-family="sans-serif" font-size="13" lengthAdjust="spacing" textLength="191.5215" x="122.2031" y="1287.8247">Exibe erro de formato de CPF</text></g><!--SRC=[dLRDRXCn4BxlKunosg1KBQWNAW7ABmIrJPM4Sa52xje9fXjxPNiZu6qY3fnuYhmOOtj_oswJzb2bkplVDpFVZ6TCKYD5khbZAWX8PAI2pbHee_2rwW3Hu9_ibo0Xol289qGOw4oK58O9-aM4xvbY8k9amuIHG1dqurH8tNNutAwE7f3eteDB_Y4QAXd7J7ba-NmOUoKfYptC_HjGOiWTqSoQYyX5DI9KQcSo6WH1YOMJjqMKS07zY6bD8DdlrbmG2sp9hvq2Fo04XZSJe1A8jMut7iOy8i0sq1aIIj28AE-W4mI5MHroIs9E2QoasX0RaRIki7wnSJwHA_-qtU_GLDQ8IbsHwcQsMC8fIVWfBm8yZRcuFz4cfPWmX4ZPW_Bhb7Pjf_0jCQnQew32YrvS6T31YWkwy5I3dqXbwIe4lbhU656Z0K8MuylnS0alO3AVNK6AMchuE9jUGnQIXiyVnlEno_KDl2l9iAv8S5BnFcSOiQsYhNrH30Xb2YADusv0MHMTnV5GfAUm-8HSBLmL0Ll7SY6qHQ7e6ulknp-uDboiBr7wi2fsBy-wfljXsKgEhtablMgL3vnQ_Q1_FSgTPA-EaNIx_okYD7wscDeGaperSwOM6MzpHsB_6-MqGh4MAMtZPitsJ16drulnV8a_orcJX65DlLv5jbwMKFSnxJ3g5SUJkV-3gHmdLoiaKwXPY3KpcGuwR3cwpsgX-Z5qJ_vyjlJMOs9SOY49e6OupNxXwBEJbVZ9UfGon-4RPAeFqpdJYRHChyvUmb0n15485wbT0xBtuCptiCNgNhjjGxgVcMI88ZY8iZ6Fl3LiPKDS0Cw3EmQuSJHPupn7jFOH1Ip6hLQSYU_xNTEHQ4dn_EorQoXSETZBVZvPXYstR1XHz-Y8EWre839h0Njx2EpMTz5wKtzycwTXQxpdS2qDJ6IA7y9FEjtl5F-FwWbHjr7WifM9WTaA5tU44U7xBKTH3n3Bn9rBm0iAyHYAwpj12xOXF1jWnOKAonXnB6LkUF06uKZ00TmGUE8Uvow7SfCxkkunmeT3dpygjEN7A1nLnnJaEPO4lXcol-hvhDmWNAyykC1W2WrNc8O0c5BERt4fSbJMtJy0]--></g></svg>