<svg xmlns="http://www.w3.org/2000/svg" xmlns:xlink="http://www.w3.org/1999/xlink" contentStyleType="text/css" data-diagram-type="SEQUENCE" height="795px" preserveAspectRatio="none" style="width:1227px;height:795px;background:#FFFFFF;" version="1.1" viewBox="0 0 1227 795" width="1227px" zoomAndPan="magnify"><defs/><g><g><title>Backend (AuthController)</title><rect fill="#FFFFFF" height="294.3281" style="stroke:#181818;stroke-width:1;" width="10" x="567.9233" y="170.6953"/></g><g><title>Backend (UserModel)</title><rect fill="#FFFFFF" height="87.3984" style="stroke:#181818;stroke-width:1;" width="10" x="860.479" y="199.8281"/></g><g><title>Backend (UserModel)</title><rect fill="#FFFFFF" height="29.1328" style="stroke:#181818;stroke-width:1;" width="10" x="860.479" y="340.4922"/></g><g><title>Banco de Dados</title><rect fill="#FFFFFF" height="29.1328" style="stroke:#181818;stroke-width:1;" width="10" x="1161.7119" y="228.9609"/></g><rect fill="none" height="395.2031" style="stroke:#000000;stroke-width:1.5;" width="947.3188" x="10" y="302.2266"/><rect fill="none" height="232.7344" style="stroke:#000000;stroke-width:1.5;" width="710.1069" x="20" y="384.625"/><g><title>Usu&#225;rio</title><rect fill="#000000" fill-opacity="0.00000" height="633.1328" width="8" x="55.6021" y="81.2969"/><line style="stroke:#181818;stroke-width:0.5;stroke-dasharray:5.0,5.0;" x1="59" x2="59" y1="81.2969" y2="714.4297"/></g><g><title>Frontend (Login Page)</title><rect fill="#000000" fill-opacity="0.00000" height="633.1328" width="8" x="287.3999" y="81.2969"/><line style="stroke:#181818;stroke-width:0.5;stroke-dasharray:5.0,5.0;" x1="290.665" x2="290.665" y1="81.2969" y2="714.4297"/></g><g><title>Backend (AuthController)</title><rect fill="#000000" fill-opacity="0.00000" height="633.1328" width="8" x="568.9233" y="81.2969"/><line style="stroke:#181818;stroke-width:0.5;stroke-dasharray:5.0,5.0;" x1="572.063" x2="572.063" y1="81.2969" y2="714.4297"/></g><g><title>Backend (UserModel)</title><rect fill="#000000" fill-opacity="0.00000" height="633.1328" width="8" x="861.479" y="81.2969"/><line style="stroke:#181818;stroke-width:0.5;stroke-dasharray:5.0,5.0;" x1="864.6392" x2="864.6392" y1="81.2969" y2="714.4297"/></g><g><title>Banco de Dados</title><rect fill="#000000" fill-opacity="0.00000" height="633.1328" width="8" x="1162.7119" y="81.2969"/><line style="stroke:#181818;stroke-width:0.5;stroke-dasharray:5.0,5.0;" x1="1165.7993" x2="1165.7993" y1="81.2969" y2="714.4297"/></g><g class="participant participant-head" data-participant="Usu&#225;rio"><text fill="#000000" font-family="sans-serif" font-size="14" lengthAdjust="spacing" textLength="53.2041" x="30" y="77.9951">Usu&#225;rio</text><ellipse cx="59.6021" cy="13.5" fill="#E2E2F0" rx="8" ry="8" style="stroke:#181818;stroke-width:0.5;"/><path d="M59.6021,21.5 L59.6021,48.5 M46.6021,29.5 L72.6021,29.5 M59.6021,48.5 L46.6021,63.5 M59.6021,48.5 L72.6021,63.5" fill="none" style="stroke:#181818;stroke-width:0.5;"/></g><g class="participant participant-tail" data-participant="Usu&#225;rio"><text fill="#000000" font-family="sans-serif" font-size="14" lengthAdjust="spacing" textLength="53.2041" x="30" y="726.4248">Usu&#225;rio</text><ellipse cx="59.6021" cy="738.2266" fill="#E2E2F0" rx="8" ry="8" style="stroke:#181818;stroke-width:0.5;"/><path d="M59.6021,746.2266 L59.6021,773.2266 M46.6021,754.2266 L72.6021,754.2266 M59.6021,773.2266 L46.6021,788.2266 M59.6021,773.2266 L72.6021,788.2266" fill="none" style="stroke:#181818;stroke-width:0.5;"/></g><g class="participant participant-head" data-participant="Frontend"><rect fill="#E2E2F0" height="30.2969" rx="2.5" ry="2.5" style="stroke:#181818;stroke-width:0.5;" width="169.4697" x="206.665" y="50"/><text fill="#000000" font-family="sans-serif" font-size="14" lengthAdjust="spacing" textLength="155.4697" x="213.665" y="69.9951">Frontend (Login Page)</text></g><g class="participant participant-tail" data-participant="Frontend"><rect fill="#E2E2F0" height="30.2969" rx="2.5" ry="2.5" style="stroke:#181818;stroke-width:0.5;" width="169.4697" x="206.665" y="713.4297"/><text fill="#000000" font-family="sans-serif" font-size="14" lengthAdjust="spacing" textLength="155.4697" x="213.665" y="733.4248">Frontend (Login Page)</text></g><g class="participant participant-head" data-participant="AuthController"><rect fill="#E2E2F0" height="30.2969" rx="2.5" ry="2.5" style="stroke:#181818;stroke-width:0.5;" width="191.7207" x="477.063" y="50"/><text fill="#000000" font-family="sans-serif" font-size="14" lengthAdjust="spacing" textLength="177.7207" x="484.063" y="69.9951">Backend (AuthController)</text></g><g class="participant participant-tail" data-participant="AuthController"><rect fill="#E2E2F0" height="30.2969" rx="2.5" ry="2.5" style="stroke:#181818;stroke-width:0.5;" width="191.7207" x="477.063" y="713.4297"/><text fill="#000000" font-family="sans-serif" font-size="14" lengthAdjust="spacing" textLength="177.7207" x="484.063" y="733.4248">Backend (AuthController)</text></g><g class="participant participant-head" data-participant="UserModel"><rect fill="#E2E2F0" height="30.2969" rx="2.5" ry="2.5" style="stroke:#181818;stroke-width:0.5;" width="163.6797" x="783.6392" y="50"/><text fill="#000000" font-family="sans-serif" font-size="14" lengthAdjust="spacing" textLength="149.6797" x="790.6392" y="69.9951">Backend (UserModel)</text></g><g class="participant participant-tail" data-participant="UserModel"><rect fill="#E2E2F0" height="30.2969" rx="2.5" ry="2.5" style="stroke:#181818;stroke-width:0.5;" width="163.6797" x="783.6392" y="713.4297"/><text fill="#000000" font-family="sans-serif" font-size="14" lengthAdjust="spacing" textLength="149.6797" x="790.6392" y="733.4248">Backend (UserModel)</text></g><g class="participant participant-head" data-participant="DB"><text fill="#000000" font-family="sans-serif" font-size="14" lengthAdjust="spacing" textLength="113.8252" x="1106.7993" y="77.9951">Banco de Dados</text><path d="M1148.7119,29 C1148.7119,19 1166.7119,19 1166.7119,19 C1166.7119,19 1184.7119,19 1184.7119,29 L1184.7119,55 C1184.7119,65 1166.7119,65 1166.7119,65 C1166.7119,65 1148.7119,65 1148.7119,55 L1148.7119,29" fill="#E2E2F0" style="stroke:#181818;stroke-width:1.5;"/><path d="M1148.7119,29 C1148.7119,39 1166.7119,39 1166.7119,39 C1166.7119,39 1184.7119,39 1184.7119,29" fill="none" style="stroke:#181818;stroke-width:1.5;"/></g><g class="participant participant-tail" data-participant="DB"><text fill="#000000" font-family="sans-serif" font-size="14" lengthAdjust="spacing" textLength="113.8252" x="1106.7993" y="726.4248">Banco de Dados</text><path d="M1148.7119,739.7266 C1148.7119,729.7266 1166.7119,729.7266 1166.7119,729.7266 C1166.7119,729.7266 1184.7119,729.7266 1184.7119,739.7266 L1184.7119,765.7266 C1184.7119,775.7266 1166.7119,775.7266 1166.7119,775.7266 C1166.7119,775.7266 1148.7119,775.7266 1148.7119,765.7266 L1148.7119,739.7266" fill="#E2E2F0" style="stroke:#181818;stroke-width:1.5;"/><path d="M1148.7119,739.7266 C1148.7119,749.7266 1166.7119,749.7266 1166.7119,749.7266 C1166.7119,749.7266 1184.7119,749.7266 1184.7119,739.7266" fill="none" style="stroke:#181818;stroke-width:1.5;"/></g><g><title>Backend (AuthController)</title><rect fill="#FFFFFF" height="294.3281" style="stroke:#181818;stroke-width:1;" width="10" x="567.9233" y="170.6953"/></g><g><title>Backend (UserModel)</title><rect fill="#FFFFFF" height="87.3984" style="stroke:#181818;stroke-width:1;" width="10" x="860.479" y="199.8281"/></g><g><title>Backend (UserModel)</title><rect fill="#FFFFFF" height="29.1328" style="stroke:#181818;stroke-width:1;" width="10" x="860.479" y="340.4922"/></g><g><title>Banco de Dados</title><rect fill="#FFFFFF" height="29.1328" style="stroke:#181818;stroke-width:1;" width="10" x="1161.7119" y="228.9609"/></g><g class="message" data-participant-1="Usu&#225;rio" data-participant-2="Frontend"><polygon fill="#181818" points="279.3999,108.4297,289.3999,112.4297,279.3999,116.4297,283.3999,112.4297" style="stroke:#181818;stroke-width:1;"/><line style="stroke:#181818;stroke-width:1;" x1="59.6021" x2="285.3999" y1="112.4297" y2="112.4297"/><text fill="#000000" font-family="sans-serif" font-size="13" font-weight="bold" lengthAdjust="spacing" textLength="9.0454" x="66.6021" y="107.3638">1</text><text fill="#000000" font-family="sans-serif" font-size="13" lengthAdjust="spacing" textLength="153.7847" x="79.6475" y="107.3638">Acessa p&#225;gina de Login</text></g><g class="message" data-participant-1="Usu&#225;rio" data-participant-2="Frontend"><polygon fill="#181818" points="279.3999,137.5625,289.3999,141.5625,279.3999,145.5625,283.3999,141.5625" style="stroke:#181818;stroke-width:1;"/><line style="stroke:#181818;stroke-width:1;" x1="59.6021" x2="285.3999" y1="141.5625" y2="141.5625"/><text fill="#000000" font-family="sans-serif" font-size="13" font-weight="bold" lengthAdjust="spacing" textLength="9.0454" x="66.6021" y="136.4966">2</text><text fill="#000000" font-family="sans-serif" font-size="13" lengthAdjust="spacing" textLength="135.6494" x="79.6475" y="136.4966">Insere email e senha</text></g><g class="message" data-participant-1="Frontend" data-participant-2="AuthController"><polygon fill="#181818" points="555.9233,166.6953,565.9233,170.6953,555.9233,174.6953,559.9233,170.6953" style="stroke:#181818;stroke-width:1;"/><line style="stroke:#181818;stroke-width:1;" x1="291.3999" x2="561.9233" y1="170.6953" y2="170.6953"/><text fill="#000000" font-family="sans-serif" font-size="13" font-weight="bold" lengthAdjust="spacing" textLength="9.0454" x="298.3999" y="165.6294">3</text><text fill="#000000" font-family="sans-serif" font-size="13" lengthAdjust="spacing" textLength="230.1851" x="311.4453" y="165.6294">POST /api/auth/login (email, senha)</text></g><g class="message" data-participant-1="AuthController" data-participant-2="UserModel"><polygon fill="#181818" points="848.479,195.8281,858.479,199.8281,848.479,203.8281,852.479,199.8281" style="stroke:#181818;stroke-width:1;"/><line style="stroke:#181818;stroke-width:1;" x1="577.9233" x2="854.479" y1="199.8281" y2="199.8281"/><text fill="#000000" font-family="sans-serif" font-size="13" font-weight="bold" lengthAdjust="spacing" textLength="9.0454" x="584.9233" y="194.7622">4</text><text fill="#000000" font-family="sans-serif" font-size="13" lengthAdjust="spacing" textLength="123.354" x="597.9688" y="194.7622">findByEmail(email)</text></g><g class="message" data-participant-1="UserModel" data-participant-2="DB"><polygon fill="#181818" points="1149.7119,224.9609,1159.7119,228.9609,1149.7119,232.9609,1153.7119,228.9609" style="stroke:#181818;stroke-width:1;"/><line style="stroke:#181818;stroke-width:1;" x1="870.479" x2="1155.7119" y1="228.9609" y2="228.9609"/><text fill="#000000" font-family="sans-serif" font-size="13" font-weight="bold" lengthAdjust="spacing" textLength="9.0454" x="877.479" y="223.895">5</text><text fill="#000000" font-family="sans-serif" font-size="13" lengthAdjust="spacing" textLength="259.1875" x="890.5244" y="223.895">SELECT * FROM users WHERE email = ?</text></g><g class="message" data-participant-1="DB" data-participant-2="UserModel"><polygon fill="#181818" points="881.479,254.0938,871.479,258.0938,881.479,262.0938,877.479,258.0938" style="stroke:#181818;stroke-width:1;"/><line style="stroke:#181818;stroke-width:1;stroke-dasharray:2.0,2.0;" x1="875.479" x2="1165.7119" y1="258.0938" y2="258.0938"/><text fill="#000000" font-family="sans-serif" font-size="13" font-weight="bold" lengthAdjust="spacing" textLength="9.0454" x="887.479" y="253.0278">6</text><text fill="#000000" font-family="sans-serif" font-size="13" lengthAdjust="spacing" textLength="225.8623" x="900.5244" y="253.0278">Retorna dados do usu&#225;rio (ou null)</text></g><g class="message" data-participant-1="UserModel" data-participant-2="AuthController"><polygon fill="#181818" points="588.9233,283.2266,578.9233,287.2266,588.9233,291.2266,584.9233,287.2266" style="stroke:#181818;stroke-width:1;"/><line style="stroke:#181818;stroke-width:1;stroke-dasharray:2.0,2.0;" x1="582.9233" x2="864.479" y1="287.2266" y2="287.2266"/><text fill="#000000" font-family="sans-serif" font-size="13" font-weight="bold" lengthAdjust="spacing" textLength="9.0454" x="594.9233" y="282.1606">7</text><text fill="#000000" font-family="sans-serif" font-size="13" lengthAdjust="spacing" textLength="162.1953" x="607.9688" y="282.1606">Retorna usu&#225;rio (ou null)</text></g><path d="M10,302.2266 L74.4429,302.2266 L74.4429,309.3594 L64.4429,319.3594 L10,319.3594 L10,302.2266" fill="#EEEEEE" style="stroke:#000000;stroke-width:1.5;"/><rect fill="none" height="395.2031" style="stroke:#000000;stroke-width:1.5;" width="947.3188" x="10" y="302.2266"/><text fill="#000000" font-family="sans-serif" font-size="13" font-weight="bold" lengthAdjust="spacing" textLength="19.4429" x="25" y="315.2935">alt</text><text fill="#000000" font-family="sans-serif" font-size="11" font-weight="bold" lengthAdjust="spacing" textLength="132.1074" x="89.4429" y="314.437">[Usu&#225;rio encontrado]</text><g class="message" data-participant-1="AuthController" data-participant-2="UserModel"><polygon fill="#181818" points="848.479,336.4922,858.479,340.4922,848.479,344.4922,852.479,340.4922" style="stroke:#181818;stroke-width:1;"/><line style="stroke:#181818;stroke-width:1;" x1="577.9233" x2="854.479" y1="340.4922" y2="340.4922"/><text fill="#000000" font-family="sans-serif" font-size="13" font-weight="bold" lengthAdjust="spacing" textLength="9.0454" x="584.9233" y="335.4263">8</text><text fill="#000000" font-family="sans-serif" font-size="13" lengthAdjust="spacing" textLength="250.5103" x="597.9688" y="335.4263">verifyPassword(senha, user.password)</text></g><g class="message" data-participant-1="UserModel" data-participant-2="AuthController"><polygon fill="#181818" points="588.9233,365.625,578.9233,369.625,588.9233,373.625,584.9233,369.625" style="stroke:#181818;stroke-width:1;"/><line style="stroke:#181818;stroke-width:1;stroke-dasharray:2.0,2.0;" x1="582.9233" x2="864.479" y1="369.625" y2="369.625"/><text fill="#000000" font-family="sans-serif" font-size="13" font-weight="bold" lengthAdjust="spacing" textLength="9.0454" x="594.9233" y="364.5591">9</text><text fill="#000000" font-family="sans-serif" font-size="13" lengthAdjust="spacing" textLength="193.2607" x="607.9688" y="364.5591">Retorna resultado (true/false)</text></g><path d="M20,384.625 L84.4429,384.625 L84.4429,391.7578 L74.4429,401.7578 L20,401.7578 L20,384.625" fill="#EEEEEE" style="stroke:#000000;stroke-width:1.5;"/><rect fill="none" height="232.7344" style="stroke:#000000;stroke-width:1.5;" width="710.1069" x="20" y="384.625"/><text fill="#000000" font-family="sans-serif" font-size="13" font-weight="bold" lengthAdjust="spacing" textLength="19.4429" x="35" y="397.6919">alt</text><text fill="#000000" font-family="sans-serif" font-size="11" font-weight="bold" lengthAdjust="spacing" textLength="97.4209" x="99.4429" y="396.8354">[Senha correta]</text><g class="message" data-participant-1="AuthController" data-participant-2="AuthController"><line style="stroke:#181818;stroke-width:1;" x1="577.9233" x2="619.9233" y1="422.8906" y2="422.8906"/><line style="stroke:#181818;stroke-width:1;" x1="619.9233" x2="619.9233" y1="422.8906" y2="435.8906"/><line style="stroke:#181818;stroke-width:1;" x1="578.9233" x2="619.9233" y1="435.8906" y2="435.8906"/><polygon fill="#181818" points="588.9233,431.8906,578.9233,435.8906,588.9233,439.8906,584.9233,435.8906" style="stroke:#181818;stroke-width:1;"/><text fill="#000000" font-family="sans-serif" font-size="13" font-weight="bold" lengthAdjust="spacing" textLength="18.0908" x="584.9233" y="417.8247">10</text><text fill="#000000" font-family="sans-serif" font-size="13" lengthAdjust="spacing" textLength="101.0928" x="607.0142" y="417.8247">Gera token JWT</text></g><g class="message" data-participant-1="AuthController" data-participant-2="Frontend"><polygon fill="#181818" points="302.3999,461.0234,292.3999,465.0234,302.3999,469.0234,298.3999,465.0234" style="stroke:#181818;stroke-width:1;"/><line style="stroke:#181818;stroke-width:1;stroke-dasharray:2.0,2.0;" x1="296.3999" x2="571.9233" y1="465.0234" y2="465.0234"/><text fill="#000000" font-family="sans-serif" font-size="13" font-weight="bold" lengthAdjust="spacing" textLength="18.0908" x="308.3999" y="459.9575">11</text><text fill="#000000" font-family="sans-serif" font-size="13" lengthAdjust="spacing" textLength="230.4326" x="330.4907" y="459.9575">Resposta 200 OK (token, userData)</text></g><g class="message" data-participant-1="Frontend" data-participant-2="Frontend"><line style="stroke:#181818;stroke-width:1;" x1="291.3999" x2="333.3999" y1="494.1563" y2="494.1563"/><line style="stroke:#181818;stroke-width:1;" x1="333.3999" x2="333.3999" y1="494.1563" y2="507.1563"/><line style="stroke:#181818;stroke-width:1;" x1="292.3999" x2="333.3999" y1="507.1563" y2="507.1563"/><polygon fill="#181818" points="302.3999,503.1563,292.3999,507.1563,302.3999,511.1563,298.3999,507.1563" style="stroke:#181818;stroke-width:1;"/><text fill="#000000" font-family="sans-serif" font-size="13" font-weight="bold" lengthAdjust="spacing" textLength="18.0908" x="298.3999" y="489.0903">12</text><text fill="#000000" font-family="sans-serif" font-size="13" lengthAdjust="spacing" textLength="106.8438" x="320.4907" y="489.0903">Armazena token</text></g><g class="message" data-participant-1="Frontend" data-participant-2="Usu&#225;rio"><polygon fill="#181818" points="70.6021,532.2891,60.6021,536.2891,70.6021,540.2891,66.6021,536.2891" style="stroke:#181818;stroke-width:1;"/><line style="stroke:#181818;stroke-width:1;" x1="64.6021" x2="290.3999" y1="536.2891" y2="536.2891"/><text fill="#000000" font-family="sans-serif" font-size="13" font-weight="bold" lengthAdjust="spacing" textLength="18.0908" x="76.6021" y="531.2231">13</text><text fill="#000000" font-family="sans-serif" font-size="13" lengthAdjust="spacing" textLength="185.707" x="98.6929" y="531.2231">Redireciona para Dashboard</text></g><line style="stroke:#000000;stroke-width:1;stroke-dasharray:2.0,2.0;" x1="20" x2="730.1069" y1="545.2891" y2="545.2891"/><text fill="#000000" font-family="sans-serif" font-size="11" font-weight="bold" lengthAdjust="spacing" textLength="109.0225" x="25" y="555.4995">[Senha incorreta]</text><g class="message" data-participant-1="AuthController" data-participant-2="Frontend"><polygon fill="#181818" points="302.3999,576.2266,292.3999,580.2266,302.3999,584.2266,298.3999,580.2266" style="stroke:#181818;stroke-width:1;"/><line style="stroke:#181818;stroke-width:1;stroke-dasharray:2.0,2.0;" x1="296.3999" x2="571.9233" y1="580.2266" y2="580.2266"/><text fill="#000000" font-family="sans-serif" font-size="13" font-weight="bold" lengthAdjust="spacing" textLength="18.0908" x="308.3999" y="575.1606">14</text><text fill="#000000" font-family="sans-serif" font-size="13" lengthAdjust="spacing" textLength="221.3364" x="330.4907" y="575.1606">Resposta 401 Unauthorized (Erro)</text></g><g class="message" data-participant-1="Frontend" data-participant-2="Usu&#225;rio"><polygon fill="#181818" points="70.6021,605.3594,60.6021,609.3594,70.6021,613.3594,66.6021,609.3594" style="stroke:#181818;stroke-width:1;"/><line style="stroke:#181818;stroke-width:1;" x1="64.6021" x2="290.3999" y1="609.3594" y2="609.3594"/><text fill="#000000" font-family="sans-serif" font-size="13" font-weight="bold" lengthAdjust="spacing" textLength="18.0908" x="76.6021" y="604.2935">15</text><text fill="#000000" font-family="sans-serif" font-size="13" lengthAdjust="spacing" textLength="163.6108" x="98.6929" y="604.2935">Exibe mensagem de erro</text></g><line style="stroke:#000000;stroke-width:1;stroke-dasharray:2.0,2.0;" x1="10" x2="957.3188" y1="625.3594" y2="625.3594"/><text fill="#000000" font-family="sans-serif" font-size="11" font-weight="bold" lengthAdjust="spacing" textLength="158.748" x="15" y="635.5698">[Usu&#225;rio n&#227;o encontrado]</text><g class="message" data-participant-1="AuthController" data-participant-2="Frontend"><polygon fill="#181818" points="302.3999,656.2969,292.3999,660.2969,302.3999,664.2969,298.3999,660.2969" style="stroke:#181818;stroke-width:1;"/><line style="stroke:#181818;stroke-width:1;stroke-dasharray:2.0,2.0;" x1="296.3999" x2="571.9233" y1="660.2969" y2="660.2969"/><text fill="#000000" font-family="sans-serif" font-size="13" font-weight="bold" lengthAdjust="spacing" textLength="18.0908" x="308.3999" y="655.231">16</text><text fill="#000000" font-family="sans-serif" font-size="13" lengthAdjust="spacing" textLength="201.1255" x="330.4907" y="655.231">Resposta 404 Not Found (Erro)</text></g><g class="message" data-participant-1="Frontend" data-participant-2="Usu&#225;rio"><polygon fill="#181818" points="70.6021,685.4297,60.6021,689.4297,70.6021,693.4297,66.6021,689.4297" style="stroke:#181818;stroke-width:1;"/><line style="stroke:#181818;stroke-width:1;" x1="64.6021" x2="290.3999" y1="689.4297" y2="689.4297"/><text fill="#000000" font-family="sans-serif" font-size="13" font-weight="bold" lengthAdjust="spacing" textLength="18.0908" x="76.6021" y="684.3638">17</text><text fill="#000000" font-family="sans-serif" font-size="13" lengthAdjust="spacing" textLength="163.6108" x="98.6929" y="684.3638">Exibe mensagem de erro</text></g><!--SRC=[jLJBRjim4BppAnOvEKLIkqLE1TeYZkM-ajhm0pclnNLCLEOA99Ks-PiWd-8Vwr9sPCc9dLvwb3Wpd1dj2el0jbZEo2c5QM07Kr-i7fnXbQCB9ZKvsW17VSSsaDNGkkGROs68DtHy1EZXwQI9xsBwguIV5s5n8GZ7MKPkJMc-sqESUd9Nh2bRSwf7fJ7W33r5h4qPD44FDViIrkigzPG0JZzLxk03dAVaFKA-Uf0066bbb7tmRrPk9A0bcWm8FDa5gkfSiCqKmXWEnXDeOsxQA4Vjh2ogLGgShFd7iMDpYu5sEr0xQg9V9HRfkR6wUvT4gRLWJMdRp9OXz5vNUEFaChcOm1leZmPNKCYvX-kloIZPvFe8dxT2qfsGJdUk7f5CHUmhTWoQHMNJLuiBi4KcNZJLHMesNghfIV2mpZQLmYnKKmaadrp4nCmhbTsIC_Ex8Nh_cvrkbVsVb1MypJSlNolna7j7liY2s81MS0MrvvXvEfHW70r0oivHm1UyFxlf2pc4mB8DyFrwyepHdDOH-PnzG7ZVwS3WXvYAn7NUdYnCmzdExDM7khulRedtP3SU6gZgQyIBjN6K6XQWB3BABlh5ZD5fHTB89hQn-uBlYN7MUGTJ6_U8dRad-Hyapl6_fgZvI_wO6S6Ih9S_rZ9kFOcGYZ-iqby5jQl7WzErr-WP_EG0VIxi_t3v5m00]--></g></svg>