<svg xmlns="http://www.w3.org/2000/svg" xmlns:xlink="http://www.w3.org/1999/xlink" contentStyleType="text/css" data-diagram-type="SEQUENCE" height="723px" preserveAspectRatio="none" style="width:1675px;height:723px;background:#FFFFFF;" version="1.1" viewBox="0 0 1675 723" width="1675px" zoomAndPan="magnify"><defs/><g><g><title>Backend (StudentController)</title><rect fill="#FFFFFF" height="424.8594" style="stroke:#181818;stroke-width:1;" width="10" x="801.1128" y="170.6953"/></g><g><title>Backend (StudentModel)</title><rect fill="#FFFFFF" height="87.3984" style="stroke:#181818;stroke-width:1;" width="10" x="1165.9746" y="199.8281"/></g><g><title>Backend (StudentModel)</title><rect fill="#FFFFFF" height="87.3984" style="stroke:#181818;stroke-width:1;" width="10" x="1165.9746" y="465.0234"/></g><g><title>Backend (Upload Service)</title><rect fill="#FFFFFF" height="71.2656" style="stroke:#181818;stroke-width:1;" width="10" x="1366.9058" y="364.625"/></g><g><title>Banco de Dados</title><rect fill="#FFFFFF" height="29.1328" style="stroke:#181818;stroke-width:1;" width="10" x="1584.1572" y="228.9609"/></g><g><title>Banco de Dados</title><rect fill="#FFFFFF" height="29.1328" style="stroke:#181818;stroke-width:1;" width="10" x="1584.1572" y="494.1563"/></g><rect fill="none" height="265.1953" style="stroke:#000000;stroke-width:1.5;" width="989.9668" x="679.103" y="302.2266"/><rect fill="none" height="234.0625" style="stroke:#000000;stroke-width:1.5;" width="969.9668" x="689.103" y="326.3594"/><g><title>Aluno</title><rect fill="#000000" fill-opacity="0.00000" height="561.3906" width="8" x="23.8892" y="81.2969"/><line style="stroke:#181818;stroke-width:0.5;stroke-dasharray:5.0,5.0;" x1="27" x2="27" y1="81.2969" y2="642.6875"/></g><g><title>Frontend (WeeklyResponse Page)</title><rect fill="#000000" fill-opacity="0.00000" height="561.3906" width="8" x="458.666" y="81.2969"/><line style="stroke:#181818;stroke-width:0.5;stroke-dasharray:5.0,5.0;" x1="462.3291" x2="462.3291" y1="81.2969" y2="642.6875"/></g><g><title>Backend (StudentController)</title><rect fill="#000000" fill-opacity="0.00000" height="561.3906" width="8" x="802.1128" y="81.2969"/><line style="stroke:#181818;stroke-width:0.5;stroke-dasharray:5.0,5.0;" x1="806.103" x2="806.103" y1="81.2969" y2="642.6875"/></g><g><title>Backend (StudentModel)</title><rect fill="#000000" fill-opacity="0.00000" height="561.3906" width="8" x="1166.9746" y="81.2969"/><line style="stroke:#181818;stroke-width:0.5;stroke-dasharray:5.0,5.0;" x1="1170.5342" x2="1170.5342" y1="81.2969" y2="642.6875"/></g><g><title>Backend (Upload Service)</title><rect fill="#000000" fill-opacity="0.00000" height="561.3906" width="8" x="1367.9058" y="81.2969"/><line style="stroke:#181818;stroke-width:0.5;stroke-dasharray:5.0,5.0;" x1="1371.415" x2="1371.415" y1="81.2969" y2="642.6875"/></g><g><title>Banco de Dados</title><rect fill="#000000" fill-opacity="0.00000" height="561.3906" width="8" x="1585.1572" y="81.2969"/><line style="stroke:#181818;stroke-width:0.5;stroke-dasharray:5.0,5.0;" x1="1588.2446" x2="1588.2446" y1="81.2969" y2="642.6875"/></g><g class="participant participant-head" data-participant="Aluno"><text fill="#000000" font-family="sans-serif" font-size="14" lengthAdjust="spacing" textLength="39.7783" x="5" y="77.9951">Aluno</text><ellipse cx="27.8892" cy="13.5" fill="#E2E2F0" rx="8" ry="8" style="stroke:#181818;stroke-width:0.5;"/><path d="M27.8892,21.5 L27.8892,48.5 M14.8892,29.5 L40.8892,29.5 M27.8892,48.5 L14.8892,63.5 M27.8892,48.5 L40.8892,63.5" fill="none" style="stroke:#181818;stroke-width:0.5;"/></g><g class="participant participant-tail" data-participant="Aluno"><text fill="#000000" font-family="sans-serif" font-size="14" lengthAdjust="spacing" textLength="39.7783" x="5" y="654.6826">Aluno</text><ellipse cx="27.8892" cy="666.4844" fill="#E2E2F0" rx="8" ry="8" style="stroke:#181818;stroke-width:0.5;"/><path d="M27.8892,674.4844 L27.8892,701.4844 M14.8892,682.4844 L40.8892,682.4844 M27.8892,701.4844 L14.8892,716.4844 M27.8892,701.4844 L40.8892,716.4844" fill="none" style="stroke:#181818;stroke-width:0.5;"/></g><g class="participant participant-head" data-participant="Frontend"><rect fill="#E2E2F0" height="30.2969" rx="2.5" ry="2.5" style="stroke:#181818;stroke-width:0.5;" width="250.6738" x="337.3291" y="50"/><text fill="#000000" font-family="sans-serif" font-size="14" lengthAdjust="spacing" textLength="236.6738" x="344.3291" y="69.9951">Frontend (WeeklyResponse Page)</text></g><g class="participant participant-tail" data-participant="Frontend"><rect fill="#E2E2F0" height="30.2969" rx="2.5" ry="2.5" style="stroke:#181818;stroke-width:0.5;" width="250.6738" x="337.3291" y="641.6875"/><text fill="#000000" font-family="sans-serif" font-size="14" lengthAdjust="spacing" textLength="236.6738" x="344.3291" y="661.6826">Frontend (WeeklyResponse Page)</text></g><g class="participant participant-head" data-participant="StudentController"><rect fill="#E2E2F0" height="30.2969" rx="2.5" ry="2.5" style="stroke:#181818;stroke-width:0.5;" width="214.0195" x="699.103" y="50"/><text fill="#000000" font-family="sans-serif" font-size="14" lengthAdjust="spacing" textLength="200.0195" x="706.103" y="69.9951">Backend (StudentController)</text></g><g class="participant participant-tail" data-participant="StudentController"><rect fill="#E2E2F0" height="30.2969" rx="2.5" ry="2.5" style="stroke:#181818;stroke-width:0.5;" width="214.0195" x="699.103" y="641.6875"/><text fill="#000000" font-family="sans-serif" font-size="14" lengthAdjust="spacing" textLength="200.0195" x="706.103" y="661.6826">Backend (StudentController)</text></g><g class="participant participant-head" data-participant="StudentModel"><rect fill="#E2E2F0" height="30.2969" rx="2.5" ry="2.5" style="stroke:#181818;stroke-width:0.5;" width="186.8809" x="1077.5342" y="50"/><text fill="#000000" font-family="sans-serif" font-size="14" lengthAdjust="spacing" textLength="172.8809" x="1084.5342" y="69.9951">Backend (StudentModel)</text></g><g class="participant participant-tail" data-participant="StudentModel"><rect fill="#E2E2F0" height="30.2969" rx="2.5" ry="2.5" style="stroke:#181818;stroke-width:0.5;" width="186.8809" x="1077.5342" y="641.6875"/><text fill="#000000" font-family="sans-serif" font-size="14" lengthAdjust="spacing" textLength="172.8809" x="1084.5342" y="661.6826">Backend (StudentModel)</text></g><g class="participant participant-head" data-participant="UploadService"><rect fill="#E2E2F0" height="30.2969" rx="2.5" ry="2.5" style="stroke:#181818;stroke-width:0.5;" width="194.9814" x="1274.415" y="50"/><text fill="#000000" font-family="sans-serif" font-size="14" lengthAdjust="spacing" textLength="180.9814" x="1281.415" y="69.9951">Backend (Upload Service)</text></g><g class="participant participant-tail" data-participant="UploadService"><rect fill="#E2E2F0" height="30.2969" rx="2.5" ry="2.5" style="stroke:#181818;stroke-width:0.5;" width="194.9814" x="1274.415" y="641.6875"/><text fill="#000000" font-family="sans-serif" font-size="14" lengthAdjust="spacing" textLength="180.9814" x="1281.415" y="661.6826">Backend (Upload Service)</text></g><g class="participant participant-head" data-participant="DB"><text fill="#000000" font-family="sans-serif" font-size="14" lengthAdjust="spacing" textLength="113.8252" x="1529.2446" y="77.9951">Banco de Dados</text><path d="M1571.1572,29 C1571.1572,19 1589.1572,19 1589.1572,19 C1589.1572,19 1607.1572,19 1607.1572,29 L1607.1572,55 C1607.1572,65 1589.1572,65 1589.1572,65 C1589.1572,65 1571.1572,65 1571.1572,55 L1571.1572,29" fill="#E2E2F0" style="stroke:#181818;stroke-width:1.5;"/><path d="M1571.1572,29 C1571.1572,39 1589.1572,39 1589.1572,39 C1589.1572,39 1607.1572,39 1607.1572,29" fill="none" style="stroke:#181818;stroke-width:1.5;"/></g><g class="participant participant-tail" data-participant="DB"><text fill="#000000" font-family="sans-serif" font-size="14" lengthAdjust="spacing" textLength="113.8252" x="1529.2446" y="654.6826">Banco de Dados</text><path d="M1571.1572,667.9844 C1571.1572,657.9844 1589.1572,657.9844 1589.1572,657.9844 C1589.1572,657.9844 1607.1572,657.9844 1607.1572,667.9844 L1607.1572,693.9844 C1607.1572,703.9844 1589.1572,703.9844 1589.1572,703.9844 C1589.1572,703.9844 1571.1572,703.9844 1571.1572,693.9844 L1571.1572,667.9844" fill="#E2E2F0" style="stroke:#181818;stroke-width:1.5;"/><path d="M1571.1572,667.9844 C1571.1572,677.9844 1589.1572,677.9844 1589.1572,677.9844 C1589.1572,677.9844 1607.1572,677.9844 1607.1572,667.9844" fill="none" style="stroke:#181818;stroke-width:1.5;"/></g><g><title>Backend (StudentController)</title><rect fill="#FFFFFF" height="424.8594" style="stroke:#181818;stroke-width:1;" width="10" x="801.1128" y="170.6953"/></g><g><title>Backend (StudentModel)</title><rect fill="#FFFFFF" height="87.3984" style="stroke:#181818;stroke-width:1;" width="10" x="1165.9746" y="199.8281"/></g><g><title>Backend (StudentModel)</title><rect fill="#FFFFFF" height="87.3984" style="stroke:#181818;stroke-width:1;" width="10" x="1165.9746" y="465.0234"/></g><g><title>Backend (Upload Service)</title><rect fill="#FFFFFF" height="71.2656" style="stroke:#181818;stroke-width:1;" width="10" x="1366.9058" y="364.625"/></g><g><title>Banco de Dados</title><rect fill="#FFFFFF" height="29.1328" style="stroke:#181818;stroke-width:1;" width="10" x="1584.1572" y="228.9609"/></g><g><title>Banco de Dados</title><rect fill="#FFFFFF" height="29.1328" style="stroke:#181818;stroke-width:1;" width="10" x="1584.1572" y="494.1563"/></g><g class="message" data-participant-1="Aluno" data-participant-2="Frontend"><polygon fill="#181818" points="450.666,108.4297,460.666,112.4297,450.666,116.4297,454.666,112.4297" style="stroke:#181818;stroke-width:1;"/><line style="stroke:#181818;stroke-width:1;" x1="27.8892" x2="456.666" y1="112.4297" y2="112.4297"/><text fill="#000000" font-family="sans-serif" font-size="13" font-weight="bold" lengthAdjust="spacing" textLength="9.0454" x="34.8892" y="107.3638">1</text><text fill="#000000" font-family="sans-serif" font-size="13" lengthAdjust="spacing" textLength="239.1606" x="47.9346" y="107.3638">Acessa p&#225;gina de Resposta Semanal</text></g><g class="message" data-participant-1="Aluno" data-participant-2="Frontend"><polygon fill="#181818" points="450.666,137.5625,460.666,141.5625,450.666,145.5625,454.666,141.5625" style="stroke:#181818;stroke-width:1;"/><line style="stroke:#181818;stroke-width:1;" x1="27.8892" x2="456.666" y1="141.5625" y2="141.5625"/><text fill="#000000" font-family="sans-serif" font-size="13" font-weight="bold" lengthAdjust="spacing" textLength="9.0454" x="34.8892" y="136.4966">2</text><text fill="#000000" font-family="sans-serif" font-size="13" lengthAdjust="spacing" textLength="397.7314" x="47.9346" y="136.4966">Preenche formul&#225;rio (texto, etc.) e anexa imagens (opcional)</text></g><g class="message" data-participant-1="Frontend" data-participant-2="StudentController"><polygon fill="#181818" points="789.1128,166.6953,799.1128,170.6953,789.1128,174.6953,793.1128,170.6953" style="stroke:#181818;stroke-width:1;"/><line style="stroke:#181818;stroke-width:1;" x1="462.666" x2="795.1128" y1="170.6953" y2="170.6953"/><text fill="#000000" font-family="sans-serif" font-size="13" font-weight="bold" lengthAdjust="spacing" textLength="9.0454" x="469.666" y="165.6294">3</text><text fill="#000000" font-family="sans-serif" font-size="13" lengthAdjust="spacing" textLength="306.4014" x="482.7114" y="165.6294">POST /api/student/weekly-response (formData)</text></g><g class="message" data-participant-1="StudentController" data-participant-2="StudentModel"><polygon fill="#181818" points="1153.9746,195.8281,1163.9746,199.8281,1153.9746,203.8281,1157.9746,199.8281" style="stroke:#181818;stroke-width:1;"/><line style="stroke:#181818;stroke-width:1;" x1="811.1128" x2="1159.9746" y1="199.8281" y2="199.8281"/><text fill="#000000" font-family="sans-serif" font-size="13" font-weight="bold" lengthAdjust="spacing" textLength="9.0454" x="818.1128" y="194.7622">4</text><text fill="#000000" font-family="sans-serif" font-size="13" lengthAdjust="spacing" textLength="322.8164" x="831.1582" y="194.7622">createWeeklyResponse(studentId, responseData)</text></g><g class="message" data-participant-1="StudentModel" data-participant-2="DB"><polygon fill="#181818" points="1572.1572,224.9609,1582.1572,228.9609,1572.1572,232.9609,1576.1572,228.9609" style="stroke:#181818;stroke-width:1;"/><line style="stroke:#181818;stroke-width:1;" x1="1175.9746" x2="1578.1572" y1="228.9609" y2="228.9609"/><text fill="#000000" font-family="sans-serif" font-size="13" font-weight="bold" lengthAdjust="spacing" textLength="9.0454" x="1182.9746" y="223.895">5</text><text fill="#000000" font-family="sans-serif" font-size="13" lengthAdjust="spacing" textLength="231.7339" x="1196.02" y="223.895">INSERT INTO weekly_responses (...)</text></g><g class="message" data-participant-1="DB" data-participant-2="StudentModel"><polygon fill="#181818" points="1186.9746,254.0938,1176.9746,258.0938,1186.9746,262.0938,1182.9746,258.0938" style="stroke:#181818;stroke-width:1;"/><line style="stroke:#181818;stroke-width:1;stroke-dasharray:2.0,2.0;" x1="1180.9746" x2="1588.1572" y1="258.0938" y2="258.0938"/><text fill="#000000" font-family="sans-serif" font-size="13" font-weight="bold" lengthAdjust="spacing" textLength="9.0454" x="1192.9746" y="253.0278">6</text><text fill="#000000" font-family="sans-serif" font-size="13" lengthAdjust="spacing" textLength="280.0396" x="1206.02" y="253.0278">Retorna dados da resposta criada (com ID)</text></g><g class="message" data-participant-1="StudentModel" data-participant-2="StudentController"><polygon fill="#181818" points="822.1128,283.2266,812.1128,287.2266,822.1128,291.2266,818.1128,287.2266" style="stroke:#181818;stroke-width:1;"/><line style="stroke:#181818;stroke-width:1;stroke-dasharray:2.0,2.0;" x1="816.1128" x2="1169.9746" y1="287.2266" y2="287.2266"/><text fill="#000000" font-family="sans-serif" font-size="13" font-weight="bold" lengthAdjust="spacing" textLength="9.0454" x="828.1128" y="282.1606">7</text><text fill="#000000" font-family="sans-serif" font-size="13" lengthAdjust="spacing" textLength="156.3428" x="841.1582" y="282.1606">Retorna resposta criada</text></g><path d="M679.103,302.2266 L748.5542,302.2266 L748.5542,309.3594 L738.5542,319.3594 L679.103,319.3594 L679.103,302.2266" fill="#EEEEEE" style="stroke:#000000;stroke-width:1.5;"/><rect fill="none" height="265.1953" style="stroke:#000000;stroke-width:1.5;" width="989.9668" x="679.103" y="302.2266"/><text fill="#000000" font-family="sans-serif" font-size="13" font-weight="bold" lengthAdjust="spacing" textLength="24.4512" x="694.103" y="315.2935">opt</text><text fill="#000000" font-family="sans-serif" font-size="11" font-weight="bold" lengthAdjust="spacing" textLength="125.6514" x="763.5542" y="314.437">[Imagens anexadas]</text><path d="M689.103,326.3594 L765.7271,326.3594 L765.7271,333.4922 L755.7271,343.4922 L689.103,343.4922 L689.103,326.3594" fill="#EEEEEE" style="stroke:#000000;stroke-width:1.5;"/><rect fill="none" height="234.0625" style="stroke:#000000;stroke-width:1.5;" width="969.9668" x="689.103" y="326.3594"/><text fill="#000000" font-family="sans-serif" font-size="13" font-weight="bold" lengthAdjust="spacing" textLength="31.624" x="704.103" y="339.4263">loop</text><text fill="#000000" font-family="sans-serif" font-size="11" font-weight="bold" lengthAdjust="spacing" textLength="124.5503" x="780.7271" y="338.5698">[para cada imagem]</text><g class="message" data-participant-1="StudentController" data-participant-2="UploadService"><polygon fill="#181818" points="1354.9058,360.625,1364.9058,364.625,1354.9058,368.625,1358.9058,364.625" style="stroke:#181818;stroke-width:1;"/><line style="stroke:#181818;stroke-width:1;" x1="811.1128" x2="1360.9058" y1="364.625" y2="364.625"/><text fill="#000000" font-family="sans-serif" font-size="13" font-weight="bold" lengthAdjust="spacing" textLength="9.0454" x="818.1128" y="359.5591">8</text><text fill="#000000" font-family="sans-serif" font-size="13" lengthAdjust="spacing" textLength="166.6641" x="831.1582" y="359.5591">uploadImage(imageData)</text></g><g class="message" data-participant-1="UploadService" data-participant-2="UploadService"><line style="stroke:#181818;stroke-width:1;" x1="1376.9058" x2="1418.9058" y1="393.7578" y2="393.7578"/><line style="stroke:#181818;stroke-width:1;" x1="1418.9058" x2="1418.9058" y1="393.7578" y2="406.7578"/><line style="stroke:#181818;stroke-width:1;" x1="1377.9058" x2="1418.9058" y1="406.7578" y2="406.7578"/><polygon fill="#181818" points="1387.9058,402.7578,1377.9058,406.7578,1387.9058,410.7578,1383.9058,406.7578" style="stroke:#181818;stroke-width:1;"/><text fill="#000000" font-family="sans-serif" font-size="13" font-weight="bold" lengthAdjust="spacing" textLength="9.0454" x="1383.9058" y="388.6919">9</text><text fill="#000000" font-family="sans-serif" font-size="13" lengthAdjust="spacing" textLength="170.2061" x="1396.9512" y="388.6919">Salva imagem no servidor</text></g><g class="message" data-participant-1="UploadService" data-participant-2="StudentController"><polygon fill="#181818" points="822.1128,431.8906,812.1128,435.8906,822.1128,439.8906,818.1128,435.8906" style="stroke:#181818;stroke-width:1;"/><line style="stroke:#181818;stroke-width:1;stroke-dasharray:2.0,2.0;" x1="816.1128" x2="1370.9058" y1="435.8906" y2="435.8906"/><text fill="#000000" font-family="sans-serif" font-size="13" font-weight="bold" lengthAdjust="spacing" textLength="18.0908" x="828.1128" y="430.8247">10</text><text fill="#000000" font-family="sans-serif" font-size="13" lengthAdjust="spacing" textLength="227.3667" x="850.2036" y="430.8247">Retorna caminho da imagem salva</text></g><g class="message" data-participant-1="StudentController" data-participant-2="StudentModel"><polygon fill="#181818" points="1153.9746,461.0234,1163.9746,465.0234,1153.9746,469.0234,1157.9746,465.0234" style="stroke:#181818;stroke-width:1;"/><line style="stroke:#181818;stroke-width:1;" x1="811.1128" x2="1159.9746" y1="465.0234" y2="465.0234"/><text fill="#000000" font-family="sans-serif" font-size="13" font-weight="bold" lengthAdjust="spacing" textLength="18.0908" x="818.1128" y="459.9575">11</text><text fill="#000000" font-family="sans-serif" font-size="13" lengthAdjust="spacing" textLength="280.9219" x="840.2036" y="459.9575">addProgressImage(responseId, imagePath)</text></g><g class="message" data-participant-1="StudentModel" data-participant-2="DB"><polygon fill="#181818" points="1572.1572,490.1563,1582.1572,494.1563,1572.1572,498.1563,1576.1572,494.1563" style="stroke:#181818;stroke-width:1;"/><line style="stroke:#181818;stroke-width:1;" x1="1175.9746" x2="1578.1572" y1="494.1563" y2="494.1563"/><text fill="#000000" font-family="sans-serif" font-size="13" font-weight="bold" lengthAdjust="spacing" textLength="18.0908" x="1182.9746" y="489.0903">12</text><text fill="#000000" font-family="sans-serif" font-size="13" lengthAdjust="spacing" textLength="224.123" x="1205.0654" y="489.0903">INSERT INTO progress_images (...)</text></g><g class="message" data-participant-1="DB" data-participant-2="StudentModel"><polygon fill="#181818" points="1186.9746,519.2891,1176.9746,523.2891,1186.9746,527.2891,1182.9746,523.2891" style="stroke:#181818;stroke-width:1;"/><line style="stroke:#181818;stroke-width:1;stroke-dasharray:2.0,2.0;" x1="1180.9746" x2="1588.1572" y1="523.2891" y2="523.2891"/><text fill="#000000" font-family="sans-serif" font-size="13" font-weight="bold" lengthAdjust="spacing" textLength="18.0908" x="1192.9746" y="518.2231">13</text><text fill="#000000" font-family="sans-serif" font-size="13" lengthAdjust="spacing" textLength="82.5005" x="1215.0654" y="518.2231">Confirma&#231;&#227;o</text></g><g class="message" data-participant-1="StudentModel" data-participant-2="StudentController"><polygon fill="#181818" points="822.1128,548.4219,812.1128,552.4219,822.1128,556.4219,818.1128,552.4219" style="stroke:#181818;stroke-width:1;"/><line style="stroke:#181818;stroke-width:1;stroke-dasharray:2.0,2.0;" x1="816.1128" x2="1169.9746" y1="552.4219" y2="552.4219"/><text fill="#000000" font-family="sans-serif" font-size="13" font-weight="bold" lengthAdjust="spacing" textLength="18.0908" x="828.1128" y="547.356">14</text><text fill="#000000" font-family="sans-serif" font-size="13" lengthAdjust="spacing" textLength="82.5005" x="850.2036" y="547.356">Confirma&#231;&#227;o</text></g><g class="message" data-participant-1="StudentController" data-participant-2="Frontend"><polygon fill="#181818" points="473.666,591.5547,463.666,595.5547,473.666,599.5547,469.666,595.5547" style="stroke:#181818;stroke-width:1;"/><line style="stroke:#181818;stroke-width:1;stroke-dasharray:2.0,2.0;" x1="467.666" x2="805.1128" y1="595.5547" y2="595.5547"/><text fill="#000000" font-family="sans-serif" font-size="13" font-weight="bold" lengthAdjust="spacing" textLength="18.0908" x="479.666" y="590.4888">15</text><text fill="#000000" font-family="sans-serif" font-size="13" lengthAdjust="spacing" textLength="212.0688" x="501.7568" y="590.4888">Resposta 201 Created (Sucesso)</text></g><g class="message" data-participant-1="Frontend" data-participant-2="Aluno"><polygon fill="#181818" points="38.8892,620.6875,28.8892,624.6875,38.8892,628.6875,34.8892,624.6875" style="stroke:#181818;stroke-width:1;"/><line style="stroke:#181818;stroke-width:1;" x1="32.8892" x2="461.666" y1="624.6875" y2="624.6875"/><text fill="#000000" font-family="sans-serif" font-size="13" font-weight="bold" lengthAdjust="spacing" textLength="18.0908" x="44.8892" y="619.6216">16</text><text fill="#000000" font-family="sans-serif" font-size="13" lengthAdjust="spacing" textLength="188.627" x="66.98" y="619.6216">Exibe mensagem de sucesso</text></g><!--SRC=[dLJ1Rjf04BtxAqOvsLA0jiSSAeMGIXpQ8A3gCHfs9x2AlMljhYdzdAY7VWW_rjar9ZQODie18w_ztioyzpnOUQEhOaKsIL1uO-4shxH9IhHU2LMYzd3rnHhjIKj8Vn0zvx_cv4gZ7S4CrvHT0JfeNka2noYU8sxXAqdQt_5BrkGvsHfrTlnl-5SZAUyWuya5qFSoDoXXGNQhnA7D-knmb4Zqk4AUWq5Q69044vJ6nLSduoI9Mi3Wyt4yk85RGSuXbFkNjT8OC54Evv5B5QWnxuNDB94M6u8dOuigtxzOPI3rjFFc6iYBOGO4g6c7e0gMLJj8JIcKOS8iEH8nwPbeWVrXiOGHbchawgUZdz6fWMsiIaFT2G-S1P_L5Ztro9-SaxzMZ69pCM69qTqef8UwKtaDJSt-QhLb7KekCHapyVJRudw-vB_b0zJzFpPShCPmE6oniJsC6PntDoTESJ0cECdNkfrWZx0A-JuLfe3f94iajTcw7LtGkI4_uMnJTSPCJEbXUl0pkYlH9Ran9N1e6HuQYduN_T9t0iiDLF4-CgOHTo9oD-1TT0_T0lDjqm1mPbru8eqzHVv73e65qXi3ns701UAsBDt6tfGpb79cpPgrTlN0JHX2o6AT6VhDknDM7hWV8zNR0yOzFobRuFxF_hTvJuWk4dJw3yiq_FgawgwMu_xvzE4ZtCMFC-pCAYmga_KKQ7tmxSLIhwqRkD-f5K71aOrMyePpDTTV]--></g></svg>