<svg xmlns="http://www.w3.org/2000/svg" xmlns:xlink="http://www.w3.org/1999/xlink" contentStyleType="text/css" data-diagram-type="DESCRIPTION" height="552px" preserveAspectRatio="none" style="width:689px;height:552px;background:#FFFFFF;" version="1.1" viewBox="0 0 689 552" width="689px" zoomAndPan="magnify"><defs/><g><!--cluster LiftHub--><g class="cluster" data-entity="LiftHub" data-source-line="6" data-uid="ent0004" id="cluster_LiftHub"><rect fill="none" height="429" rx="2.5" ry="2.5" style="stroke:#181818;stroke-width:1;" width="570.56" x="113.22" y="117.03"/><text fill="#000000" font-family="sans-serif" font-size="14" font-weight="bold" lengthAdjust="spacing" textLength="58.208" x="369.396" y="132.0251">LiftHub</text></g><!--entity UC01--><g class="entity" data-entity="UC01" data-source-line="7" data-uid="ent0005" id="entity_UC01"><ellipse cx="216.8135" cy="373.0336" fill="#F1F1F1" rx="54.5035" ry="14.5236" style="stroke:#181818;stroke-width:0.5;"/><text fill="#000000" font-family="sans-serif" font-size="14" lengthAdjust="spacing" textLength="72.8369" x="180.395" y="377.6821">Autenticar</text></g><!--entity UC02--><g class="entity" data-entity="UC02" data-source-line="8" data-uid="ent0006" id="entity_UC02"><ellipse cx="216.8136" cy="243.0267" fill="#F1F1F1" rx="70.8836" ry="16.5767" style="stroke:#181818;stroke-width:0.5;"/><text fill="#000000" font-family="sans-serif" font-size="14" lengthAdjust="spacing" textLength="108.5957" x="162.5157" y="247.6752">Gerenciar Perfil</text></g><!--entity UC03--><g class="entity" data-entity="UC03" data-source-line="9" data-uid="ent0007" id="entity_UC03"><ellipse cx="216.8108" cy="309.0336" fill="#F1F1F1" rx="51.8208" ry="14.5236" style="stroke:#181818;stroke-width:0.5;"/><text fill="#000000" font-family="sans-serif" font-size="14" lengthAdjust="spacing" textLength="69.043" x="182.2893" y="313.6821">Usar Chat</text></g><!--entity UC04--><g class="entity" data-entity="UC04" data-source-line="10" data-uid="ent0008" id="entity_UC04"><ellipse cx="548.5865" cy="293.0293" fill="#F1F1F1" rx="87.0965" ry="19.8193" style="stroke:#181818;stroke-width:0.5;"/><text fill="#000000" font-family="sans-serif" font-size="14" lengthAdjust="spacing" textLength="147.1367" x="475.0182" y="297.6777">Gerenciar Anamnese</text></g><!--entity UC05--><g class="entity" data-entity="UC05" data-source-line="11" data-uid="ent0009" id="entity_UC05"><ellipse cx="548.5885" cy="434.0277" fill="#F1F1F1" rx="119.1885" ry="26.2377" style="stroke:#181818;stroke-width:0.5;"/><text fill="#000000" font-family="sans-serif" font-size="14" lengthAdjust="spacing" textLength="217.6221" x="439.7775" y="438.6761">Gerenciar Respostas Semanais</text></g><!--entity UC06--><g class="entity" data-entity="UC06" data-source-line="12" data-uid="ent0010" id="entity_UC06"><ellipse cx="216.8074" cy="172.0275" fill="#F1F1F1" rx="87.5874" ry="19.9175" style="stroke:#181818;stroke-width:0.5;"/><text fill="#000000" font-family="sans-serif" font-size="14" lengthAdjust="spacing" textLength="148.2578" x="142.6784" y="176.6759">Visualizar Instrutores</text></g><!--entity UC07--><g class="entity" data-entity="UC07" data-source-line="13" data-uid="ent0011" id="entity_UC07"><ellipse cx="216.8068" cy="440.0274" fill="#F1F1F1" rx="75.5868" ry="17.5174" style="stroke:#181818;stroke-width:0.5;"/><text fill="#000000" font-family="sans-serif" font-size="14" lengthAdjust="spacing" textLength="120.1484" x="156.7325" y="444.6758">Gerenciar Alunos</text></g><!--entity UC08--><g class="entity" data-entity="UC08" data-source-line="14" data-uid="ent0012" id="entity_UC08"><ellipse cx="216.8062" cy="511.0292" fill="#F1F1F1" rx="81.0962" ry="18.6192" style="stroke:#181818;stroke-width:0.5;"/><text fill="#000000" font-family="sans-serif" font-size="14" lengthAdjust="spacing" textLength="133.2529" x="150.1797" y="515.6777">Acompanhar Aluno</text></g><!--entity Aluno--><g class="entity" data-entity="Aluno" data-source-line="3" data-uid="ent0002" id="entity_Aluno"><ellipse cx="36.1092" cy="144.38" fill="#F1F1F1" rx="8" ry="8" style="stroke:#181818;stroke-width:0.5;"/><path d="M36.1092,152.38 L36.1092,179.38 M23.1092,160.38 L49.1092,160.38 M36.1092,179.38 L23.1092,194.38 M36.1092,179.38 L49.1092,194.38" fill="none" style="stroke:#181818;stroke-width:0.5;"/><text fill="#000000" font-family="sans-serif" font-size="14" lengthAdjust="spacing" textLength="39.7783" x="16.22" y="208.8751">Aluno</text></g><!--entity Instrutor--><g class="entity" data-entity="Instrutor" data-source-line="4" data-uid="ent0003" id="entity_Instrutor"><ellipse cx="36.1123" cy="369.38" fill="#F1F1F1" rx="8" ry="8" style="stroke:#181818;stroke-width:0.5;"/><path d="M36.1123,377.38 L36.1123,404.38 M23.1123,385.38 L49.1123,385.38 M36.1123,404.38 L23.1123,419.38 M36.1123,404.38 L49.1123,419.38" fill="none" style="stroke:#181818;stroke-width:0.5;"/><text fill="#000000" font-family="sans-serif" font-size="14" lengthAdjust="spacing" textLength="60.2246" x="6" y="433.8751">Instrutor</text></g><!--link Aluno to UC01--><g class="link" data-entity-1="Aluno" data-entity-2="UC01" data-source-line="16" data-uid="lnk13" id="link_Aluno_UC01"><path d="M42.88,212.38 C50.58,250.31 67.86,307.42 105.22,341.03 C121.64,355.8 144.49,363.78 165.16,368.08" fill="none" id="Aluno-UC01" style="stroke:#181818;stroke-width:1;"/></g><!--link Aluno to UC02--><g class="link" data-entity-1="Aluno" data-entity-2="UC02" data-source-line="17" data-uid="lnk14" id="link_Aluno_UC02"><path d="M56.35,185.08 C69.77,192.48 88.23,202.11 105.22,209.03 C125.6,217.32 148.77,224.74 168.63,230.51" fill="none" id="Aluno-UC02" style="stroke:#181818;stroke-width:1;"/></g><!--link Aluno to UC03--><g class="link" data-entity-1="Aluno" data-entity-2="UC03" data-source-line="18" data-uid="lnk15" id="link_Aluno_UC03"><path d="M54.19,212.58 C65.69,234.42 82.86,260.58 105.22,277.03 C123.74,290.65 147.94,298.49 168.98,302.99" fill="none" id="Aluno-UC03" style="stroke:#181818;stroke-width:1;"/></g><!--link Aluno to UC04--><g class="link" data-entity-1="Aluno" data-entity-2="UC04" data-source-line="19" data-uid="lnk16" id="link_Aluno_UC04"><path d="M48.81,135.54 C57.86,113.01 72.87,86.42 96.22,73.03 C213.12,6 280.45,9.73 399.4,73.03 C481.11,116.51 525.86,227.34 541.32,272.95" fill="none" id="Aluno-UC04" style="stroke:#181818;stroke-width:1;"/></g><!--link Aluno to UC05--><g class="link" data-entity-1="Aluno" data-entity-2="UC05" data-source-line="20" data-uid="lnk17" id="link_Aluno_UC05"><path d="M56.46,159.3 C69.48,150.35 87.45,139.76 105.22,135.03 C190.77,112.27 226.73,92.56 304.4,135.03 C394.72,184.42 362.33,251.93 429.4,330.03 C454.86,359.68 488.76,388.66 513.72,408.46" fill="none" id="Aluno-UC05" style="stroke:#181818;stroke-width:1;"/></g><!--link Aluno to UC06--><g class="link" data-entity-1="Aluno" data-entity-2="UC06" data-source-line="21" data-uid="lnk18" id="link_Aluno_UC06"><path d="M56.24,173.82 C73.97,173.62 101.69,173.31 129.07,173" fill="none" id="Aluno-UC06" style="stroke:#181818;stroke-width:1;"/></g><!--link Instrutor to UC01--><g class="link" data-entity-1="Instrutor" data-entity-2="UC01" data-source-line="23" data-uid="lnk19" id="link_Instrutor_UC01"><path d="M66.62,394.74 C94.18,390.73 135.8,384.67 168.08,379.98" fill="none" id="Instrutor-UC01" style="stroke:#181818;stroke-width:1;"/></g><!--link Instrutor to UC02--><g class="link" data-entity-1="Instrutor" data-entity-2="UC02" data-source-line="24" data-uid="lnk20" id="link_Instrutor_UC02"><path d="M49.78,360.6 C60.54,333.61 78.53,298.61 105.22,277.03 C119.98,265.1 138.92,257.34 156.93,252.3" fill="none" id="Instrutor-UC02" style="stroke:#181818;stroke-width:1;"/></g><!--link Instrutor to UC03--><g class="link" data-entity-1="Instrutor" data-entity-2="UC03" data-source-line="25" data-uid="lnk21" id="link_Instrutor_UC03"><path d="M66.59,369.16 C77.89,359.06 91.41,348.46 105.22,341.03 C126.17,329.76 151.54,322.06 172.69,317.03" fill="none" id="Instrutor-UC03" style="stroke:#181818;stroke-width:1;"/></g><!--link Instrutor to UC07--><g class="link" data-entity-1="Instrutor" data-entity-2="UC07" data-source-line="26" data-uid="lnk22" id="link_Instrutor_UC07"><path d="M66.62,405.8 C92.4,411.71 130.47,420.45 161.7,427.61" fill="none" id="Instrutor-UC07" style="stroke:#181818;stroke-width:1;"/></g><!--link Instrutor to UC08--><g class="link" data-entity-1="Instrutor" data-entity-2="UC08" data-source-line="27" data-uid="lnk23" id="link_Instrutor_UC08"><path d="M64.63,437.35 C75.92,450.82 89.93,465.07 105.22,475.03 C120.79,485.17 139.45,492.67 156.97,498.12" fill="none" id="Instrutor-UC08" style="stroke:#181818;stroke-width:1;"/></g><!--link UC08 to UC04--><g class="link" data-entity-1="UC08" data-entity-2="UC04" data-source-line="31" data-uid="lnk24" id="link_UC08_UC04"><path d="M263.92,495.58 C277.5,490.06 292.02,483.16 304.4,475.03 C319.9,464.85 320.16,457.91 334.4,446.03 C397.01,393.78 471.2824,343.0951 513.3124,315.3551" fill="none" id="UC08-to-UC04" style="stroke:#181818;stroke-width:1;stroke-dasharray:7.0,7.0;"/><polygon fill="#181818" points="518.32,312.05,508.6052,313.6692,514.147,314.8042,513.0119,320.346,518.32,312.05" style="stroke:#181818;stroke-width:1;"/><text fill="#000000" font-family="sans-serif" font-size="13" lengthAdjust="spacing" textLength="63.0068" x="335.4" y="394.0969">&#171;include&#187;</text></g><!--link UC08 to UC05--><g class="link" data-entity-1="UC08" data-entity-2="UC05" data-source-line="32" data-uid="lnk25" id="link_UC08_UC05"><path d="M274.88,497.71 C327.51,485.42 400.3972,468.3942 459.7572,454.5342" fill="none" id="UC08-to-UC05" style="stroke:#181818;stroke-width:1;stroke-dasharray:7.0,7.0;"/><polygon fill="#181818" points="465.6,453.17,455.9262,451.3211,460.731,454.3069,457.7452,459.1116,465.6,453.17" style="stroke:#181818;stroke-width:1;"/><text fill="#000000" font-family="sans-serif" font-size="13" lengthAdjust="spacing" textLength="63.0068" x="335.4" y="467.0969">&#171;include&#187;</text></g><!--SRC=[PPBFJW8n4CRlVOe95q-WyZ-4a11YrCI3qU1zR0TsacwxQRk6Q7mQ3pw1Jy2BMOeWNKwT-RvVPtTcgcaL85Xml2u2A7Oa0riZ1CfW7SnrRUnVV6zyS7MCXDXHQDQQu85NuQv-XGzHUvBe2PQBgsj03wrv7SW4bkXQfsOtcRVao4X61u_aLgmpf9UGfO_kei2GUVt6zRd1qf2d31eqe2VobVKXYizKea7s6JvC-0lx6ZM_uqchb8EZviTtuycHyRvtQSiAJN5WMaAa4zhjDA0iwsPPBylwMJR8ig4Gnnyz5cugtJEbTwQCpfIn41TnQXgttziVyg08s4XT- -sNlQHDNEmkWiegAi6J0rGiuxj15Rklq26KoB6Qee2we5ZiPaDbfUraFwDKZE7jV-JujqSWS8TjYSHsEhFzuYSmdQQBYcQpp1iqlCzV]--></g></svg>